<?xml version="1.0" encoding="utf-8"?>
<!-- Generator: Adobe Illustrator 26.2.1, SVG Export Plug-In . SVG Version: 6.00 Build 0)  -->
<svg version="1.1" id="a" xmlns="http://www.w3.org/2000/svg" xmlns:xlink="http://www.w3.org/1999/xlink" x="0px" y="0px"
	 viewBox="0 0 853.6 152.4" style="enable-background:new 0 0 853.6 152.4;" xml:space="preserve">
<style type="text/css">
	.st0{fill:#010101;}
	.st1{fill:none;stroke:#040505;stroke-width:18.95;}
	.st2{font-family:'ArialMT';}
	.st3{font-size:47px;}
</style>
<path class="st0" d="M21.7,25.9h76.4V7.6H0v141.1h21.7V86.9H95V69H21.7V25.9L21.7,25.9z M233.6,7.6h-21.7v87.2
	c0,27.9-12.8,38.4-35.2,38.4s-35.2-10.6-35.2-38.4V7.6h-21.7V97c0,36.2,24.6,54.9,57,54.9s57-18.7,57-54.9L233.6,7.6L233.6,7.6
	L233.6,7.6z M367.7,46.5c-6.9-26.7-25.1-42.1-56.1-42.1c-29.3,0-51.5,15.6-51.5,40c0,26.1,18.6,33.5,37.1,38l25.8,6.3
	c14.9,3.6,26,7.3,26,22.2s-13.2,23.4-32.3,23.4s-36.8-7.6-39.9-31.2l-21.6,2.2c5,30.2,26.9,46.6,61.1,46.6
	c30.2,0,54.8-13.9,54.8-41.5c0-30.8-20.6-36.5-42-41.8l-24.3-5.6c-12.8-3-22.5-7-22.5-19.2c0-12.8,11.2-22,29.1-22
	s30.8,8.6,34.6,26.3L367.7,46.5L367.7,46.5L367.7,46.5z"/>
<path class="st1" d="M844.1,76.2c0-36.9-98.5-66.7-220.1-66.7S403.9,39.3,403.9,76.2s98.5,66.7,220.1,66.7S844.1,113.1,844.1,76.2
	L844.1,76.2L844.1,76.2z"/>
<text transform="matrix(1 0 0 1 448.32 95.19)" class="st0 st2 st3">27 — 30 Outubro</text>
</svg>
