<?xml version="1.0" encoding="utf-8"?>
<!-- Generator: Adobe Illustrator 26.2.1, SVG Export Plug-In . SVG Version: 6.00 Build 0)  -->
<svg version="1.1" xmlns="http://www.w3.org/2000/svg" xmlns:xlink="http://www.w3.org/1999/xlink" x="0px" y="0px"
	 viewBox="0 0 960 908.6" style="enable-background:new 0 0 960 908.6;" xml:space="preserve">
<style type="text/css">
	.st0{fill:none;stroke:#FF4C38;stroke-width:2.78;}
	.st1{fill:none;stroke:#FF4C38;stroke-width:1.07;stroke-miterlimit:4.27;}
	.st2{fill:#FF4C38;}
	.st3{clip-path:url(#SVGID_00000003067802321340901050000015491414270112149408_);}
	.st4{clip-path:url(#SVGID_00000129203588994218251350000007927614314857789072_);}
	.st5{clip-path:url(#SVGID_00000094602090313914133180000012549194520706430375_);}
	.st6{clip-path:url(#SVGID_00000116210139021329535390000009335170481702094783_);}
	.st7{clip-path:url(#SVGID_00000008827182875394897210000008628054219840979843_);}
	.st8{clip-path:url(#SVGID_00000075155632584702727950000003932376602764197565_);}
	.st9{clip-path:url(#SVGID_00000064329778615978572850000000134219109499515282_);}
	.st10{clip-path:url(#SVGID_00000154389295222345651470000002455246328618070658_);}
	.st11{fill:none;stroke:#FF4C38;stroke-width:9.06;}
	.st12{clip-path:url(#SVGID_00000158747268076550018960000012922471591115646884_);}
	.st13{fill:none;stroke:#FF4C38;}
</style>
<g id="Layer_2">
	<rect width="960" height="908.6"/>
</g>
<g id="a">
	<g>
		<path class="st0" d="M741.4,132.1c-17.3,0-31.3,84.5-31.3,188.8s14,188.8,31.3,188.8s31.3-84.5,31.3-188.8
			S758.7,132.1,741.4,132.1L741.4,132.1z M741.4,132.1c-30.8,0-55.8,84.5-55.8,188.8s25,188.8,55.8,188.8s55.8-84.5,55.8-188.8
			S772.2,132.1,741.4,132.1L741.4,132.1z M741.4,132.1c-41.3,0-74.7,84.5-74.7,188.8s33.5,188.8,74.7,188.8s74.7-84.5,74.7-188.8
			S782.7,132.1,741.4,132.1L741.4,132.1z M741.4,132.1c-53.2,0-96.4,84.5-96.4,188.8s43.2,188.8,96.4,188.8s96.4-84.5,96.4-188.8
			S794.6,132.1,741.4,132.1L741.4,132.1z M741.4,132.1c-64,0-115.8,84.5-115.8,188.8s51.8,188.8,115.8,188.8s115.8-84.5,115.8-188.8
			S805.4,132.1,741.4,132.1L741.4,132.1z M741.4,132.1c-75.5,0-136.7,84.5-136.7,188.8s61.2,188.8,136.7,188.8
			s136.7-84.5,136.7-188.8S816.9,132.1,741.4,132.1L741.4,132.1z M741.4,132.1c-86.8,0-157.2,84.5-157.2,188.8
			s70.4,188.8,157.2,188.8s157.2-84.5,157.2-188.8S828.2,132.1,741.4,132.1L741.4,132.1z M741.4,132.1
			c-99.5,0-180.1,84.5-180.1,188.8S642,509.7,741.4,509.7s180.1-84.5,180.1-188.8S840.9,132.1,741.4,132.1L741.4,132.1z
			 M741.4,132.1c-6.9,0-12.6,84.5-12.6,188.8s5.6,188.8,12.6,188.8S754,425.2,754,320.9S748.3,132.1,741.4,132.1L741.4,132.1z
			 M247.5,663.6c-30.8,0-55.8,84.5-55.8,188.8s25,188.8,55.8,188.8s55.8-84.5,55.8-188.8S278.3,663.6,247.5,663.6L247.5,663.6
			L247.5,663.6z M247.5,663.6c-53.2,0-96.4,84.5-96.4,188.8s43.2,188.8,96.4,188.8s96.4-84.5,96.4-188.8S300.7,663.6,247.5,663.6
			L247.5,663.6L247.5,663.6z M247.5,663.6c-75.5,0-136.7,84.5-136.7,188.8s61.2,188.8,136.7,188.8s136.7-84.5,136.7-188.8
			S323,663.6,247.5,663.6L247.5,663.6L247.5,663.6z M247.5,663.6c-99.5,0-180.1,84.5-180.1,188.8s80.6,188.8,180.1,188.8
			s180.1-84.5,180.1-188.8S347,663.6,247.5,663.6L247.5,663.6L247.5,663.6z M247.5,663.6c-6.9,0-12.6,84.5-12.6,188.8
			s5.6,188.8,12.6,188.8S260,956.7,260,852.4S254.4,663.6,247.5,663.6L247.5,663.6L247.5,663.6z"/>
		<path class="st1" d="M134.7,203.6l-1.3,12.6H98c3.7-0.9,5.5-5.8,5.5-13.1l0,0v-31.3l0,0c0-7.2-1.8-12.1-5.5-13.1h16.6
			c-3.7,0.9-5.5,5.8-5.5,13.1l0,0V215h12.7C128.9,215,133.8,207.3,134.7,203.6z"/>
	</g>
	<path class="st2" d="M134.7,203.6l-1.3,12.6H98c3.7-0.9,5.5-5.8,5.5-13.1l0,0v-31.3l0,0c0-7.2-1.8-12.1-5.5-13.1h16.6
		c-3.7,0.9-5.5,5.8-5.5,13.1l0,0V215h12.7C128.9,215,133.8,207.3,134.7,203.6z"/>
	<g>
		<g>
			<g>
				<defs>
					<rect id="SVGID_1_" x="-960" y="-181.4" width="1920" height="1080"/>
				</defs>
				<clipPath id="SVGID_00000163764071636026860170000006814165537238687140_">
					<use xlink:href="#SVGID_1_"  style="overflow:visible;"/>
				</clipPath>
				<g style="clip-path:url(#SVGID_00000163764071636026860170000006814165537238687140_);">
					<path class="st1" d="M230.2,285.2h-16.6c3.7-0.9,3.2-6.3,0.8-13.1l-5.5-15.1h-17.4l-5.5,15.1c-2.4,6.7-0.6,12.1,3.1,13h-16.6
						c3.7-0.9,9.7-5.8,12.3-13.1l14.7-40.5l-1.4-3.8h5.5l16.1,44.3C222.5,279.4,226.5,284.2,230.2,285.2L230.2,285.2z M208.5,255.9
						l-8.3-22.8l-8.3,22.8H208.5L208.5,255.9z"/>
				</g>
			</g>
		</g>
	</g>
	<path class="st2" d="M230.2,285.2h-16.6c3.7-0.9,3.2-6.3,0.8-13.1l-5.5-15.1h-17.4l-5.5,15.1c-2.4,6.7-0.6,12.1,3.1,13h-16.6
		c3.7-0.9,9.7-5.8,12.3-13.1l14.7-40.5l-1.4-3.8h5.5l16.1,44.3C222.5,279.4,226.5,284.2,230.2,285.2L230.2,285.2z M208.5,255.9
		l-8.3-22.8l-8.3,22.8H208.5L208.5,255.9z"/>
	<g>
		<g>
			<g>
				<defs>
					<rect id="SVGID_00000141449034036581765660000009574183644147814284_" x="-960" y="-181.4" width="1920" height="1080"/>
				</defs>
				<clipPath id="SVGID_00000169553534124206566430000018206590021480453527_">
					<use xlink:href="#SVGID_00000141449034036581765660000009574183644147814284_"  style="overflow:visible;"/>
				</clipPath>
				<g style="clip-path:url(#SVGID_00000169553534124206566430000018206590021480453527_);">
					<path class="st1" d="M300.2,337.2c0.9,12.6-10.7,16.9-27,16.9h-21.7c3.7-0.9,5.5-5.8,5.5-13.1l0,0v-31.3l0,0
						c0-7.2-1.8-12.1-5.5-13.1h16.6c16.4,0,27,5.4,27,12.1c0,5.6-6,9.1-15.9,10.6C292,321.2,299.6,328.5,300.2,337.2L300.2,337.2z
						 M262.5,297.9v21.2h5.6c4,0,8.1-0.2,11.8-0.9c11.7-2.2,11.2-10,7.2-14.1c-4.4-4.6-11.9-6.1-19.1-6.1h-5.5V297.9z M292.2,329.4
						c-4.4-6.8-11.9-9.2-19.1-9.2h-10.7V353h10.7c4,0,8.1-0.4,11.8-1.4C296.7,348.4,296.2,335.5,292.2,329.4z"/>
				</g>
			</g>
		</g>
	</g>
	<path class="st2" d="M300.2,337.2c0.9,12.6-10.7,16.9-27,16.9h-21.7c3.7-0.9,5.5-5.8,5.5-13.1l0,0v-31.3l0,0
		c0-7.2-1.8-12.1-5.5-13.1h16.6c16.4,0,27,5.4,27,12.1c0,5.6-6,9.1-15.9,10.6C292,321.2,299.6,328.5,300.2,337.2L300.2,337.2z
		 M262.5,297.9v21.2h5.6c4,0,8.1-0.2,11.8-0.9c11.7-2.2,11.2-10,7.2-14.1c-4.4-4.6-11.9-6.1-19.1-6.1h-5.5V297.9z M292.2,329.4
		c-4.4-6.8-11.9-9.2-19.1-9.2h-10.7V353h10.7c4,0,8.1-0.4,11.8-1.4C296.7,348.4,296.2,335.5,292.2,329.4z"/>
	<g>
		<g>
			<g>
				<defs>
					<rect id="SVGID_00000142135792365362955780000005214241415900580004_" x="-960" y="-181.4" width="1920" height="1080"/>
				</defs>
				<clipPath id="SVGID_00000183960047782412508730000015675742882146825121_">
					<use xlink:href="#SVGID_00000142135792365362955780000005214241415900580004_"  style="overflow:visible;"/>
				</clipPath>
				<g style="clip-path:url(#SVGID_00000183960047782412508730000015675742882146825121_);">
					<path class="st1" d="M358.5,424.1c-16.4,0-29.6-13.3-29.6-29.6s13.3-29.6,29.6-29.6s29.6,13.3,29.6,29.6
						S374.9,424.1,358.5,424.1z M370.4,420.5c11.7-5.3,15.9-21.3,9.3-35.6c-6.5-14.4-21.3-21.7-33-16.4s-15.9,21.3-9.3,35.6
						C343.9,418.5,358.7,425.8,370.4,420.5L370.4,420.5z"/>
				</g>
			</g>
		</g>
	</g>
	<path class="st2" d="M358.5,424.1c-16.4,0-29.6-13.3-29.6-29.6s13.3-29.6,29.6-29.6s29.6,13.3,29.6,29.6S374.9,424.1,358.5,424.1z
		 M370.4,420.5c11.7-5.3,15.9-21.3,9.3-35.6c-6.5-14.4-21.3-21.7-33-16.4s-15.9,21.3-9.3,35.6C343.9,418.5,358.7,425.8,370.4,420.5
		L370.4,420.5z"/>
	<g>
		<g>
			<g>
				<defs>
					<rect id="SVGID_00000026152711359522175410000001933363951288542605_" x="-960" y="-181.4" width="1920" height="1080"/>
				</defs>
				<clipPath id="SVGID_00000048492535530701869070000011148227503129421706_">
					<use xlink:href="#SVGID_00000026152711359522175410000001933363951288542605_"  style="overflow:visible;"/>
				</clipPath>
				<g style="clip-path:url(#SVGID_00000048492535530701869070000011148227503129421706_);">
					<path class="st1" d="M416,469.9v9.2l0,0c0,7.2,1.8,12.1,5.5,13.1H405c3.7-0.9,5.5-5.8,5.5-13.1l0,0v-31.3l0,0
						c0-7.2-1.8-12.1-5.5-13.1h21.7c16.4,0,28,4.3,27,16.9c-0.6,7.9-7,14.7-17.7,17.2l7,10.2l0,0c4.9,7.2,10.8,12.1,14.5,13.1H441
						c3.6-0.9,1.2-6.2-3-12.5l-6.9-10c-1.4,0.1-2.9,0.2-4.4,0.2L416,469.9L416,469.9z M416,435.9v32.9h10.7c1.2,0,2.4-0.1,3.6-0.2
						l3.8-2.5l1,1.5c4.2-1.3,8-3.8,10.7-8c3.9-6.1,4.4-19-7.2-22.3c-3.8-1-7.8-1.4-11.8-1.4H416L416,435.9z"/>
				</g>
			</g>
		</g>
	</g>
	<path class="st2" d="M416,469.9v9.2l0,0c0,7.2,1.8,12.1,5.5,13.1H405c3.7-0.9,5.5-5.8,5.5-13.1l0,0v-31.3l0,0
		c0-7.2-1.8-12.1-5.5-13.1h21.7c16.4,0,28,4.3,27,16.9c-0.6,7.9-7,14.7-17.7,17.2l7,10.2l0,0c4.9,7.2,10.8,12.1,14.5,13.1H441
		c3.6-0.9,1.2-6.2-3-12.5l-6.9-10c-1.4,0.1-2.9,0.2-4.4,0.2L416,469.9L416,469.9z M416,435.9v32.9h10.7c1.2,0,2.4-0.1,3.6-0.2
		l3.8-2.5l1,1.5c4.2-1.3,8-3.8,10.7-8c3.9-6.1,4.4-19-7.2-22.3c-3.8-1-7.8-1.4-11.8-1.4H416L416,435.9z"/>
	<g>
		<g>
			<g>
				<defs>
					<rect id="SVGID_00000000935821759072580780000008321584451020787628_" x="-960" y="-181.4" width="1920" height="1080"/>
				</defs>
				<clipPath id="SVGID_00000126287647212834228010000003269560019860254104_">
					<use xlink:href="#SVGID_00000000935821759072580780000008321584451020787628_"  style="overflow:visible;"/>
				</clipPath>
				<g style="clip-path:url(#SVGID_00000126287647212834228010000003269560019860254104_);">
					<path class="st1" d="M537.2,561.2h-16.5c3.7-0.9,3.2-6.3,0.8-13.1L516,533h-17.4l-5.5,15.1c-2.4,6.7-0.6,12.1,3.1,13h-16.5
						c3.7-0.9,9.7-5.8,12.3-13.1l14.7-40.5l-1.4-3.8h5.5l16.1,44.3C529.5,555.3,533.5,560.2,537.2,561.2L537.2,561.2z M515.5,531.9
						l-8.3-22.8l-8.3,22.8H515.5L515.5,531.9z"/>
				</g>
			</g>
		</g>
	</g>
	<path class="st2" d="M537.2,561.2h-16.5c3.7-0.9,3.2-6.3,0.8-13.1L516,533h-17.4l-5.5,15.1c-2.4,6.7-0.6,12.1,3.1,13h-16.5
		c3.7-0.9,9.7-5.8,12.3-13.1l14.7-40.5l-1.4-3.8h5.5l16.1,44.3C529.5,555.3,533.5,560.2,537.2,561.2L537.2,561.2z M515.5,531.9
		l-8.3-22.8l-8.3,22.8H515.5L515.5,531.9z"/>
	<g>
		<path class="st1" d="M580.6,617.1v-43.2h-10.1c-7.2,0-12.1,7.8-13.1,11.5l1.3-12.6h49.2l1.3,12.6c-0.9-3.7-5.8-11.4-13.1-11.5H586
			v43.2l0,0c0,7.2,1.8,12.1,5.5,13.1H575C578.7,629.2,580.5,624.3,580.6,617.1L580.6,617.1L580.6,617.1z"/>
	</g>
	<path class="st2" d="M580.6,617.1v-43.2h-10.1c-7.2,0-12.1,7.8-13.1,11.5l1.3-12.6h49.2l1.3,12.6c-0.9-3.7-5.8-11.4-13.1-11.5H586
		v43.2l0,0c0,7.2,1.8,12.1,5.5,13.1H575C578.7,629.2,580.5,624.3,580.6,617.1L580.6,617.1L580.6,617.1z"/>
	<g>
		<g>
			<g>
				<defs>
					<rect id="SVGID_00000111155727268504143530000018422021435239928448_" x="-960" y="-181.4" width="1920" height="1080"/>
				</defs>
				<clipPath id="SVGID_00000016043028194027814940000016700250624328811926_">
					<use xlink:href="#SVGID_00000111155727268504143530000018422021435239928448_"  style="overflow:visible;"/>
				</clipPath>
				<g style="clip-path:url(#SVGID_00000016043028194027814940000016700250624328811926_);">
					<path class="st1" d="M665.5,700.1c-16.4,0-29.7-13.3-29.7-29.7s13.3-29.7,29.7-29.7s29.7,13.3,29.7,29.7
						S681.9,700.1,665.5,700.1z M677.4,696.5c11.7-5.3,15.9-21.3,9.3-35.6c-6.5-14.4-21.3-21.7-33-16.4s-15.9,21.3-9.3,35.6
						C650.9,694.5,665.7,701.8,677.4,696.5z"/>
				</g>
			</g>
		</g>
	</g>
	<path class="st2" d="M665.5,700.1c-16.4,0-29.7-13.3-29.7-29.7s13.3-29.7,29.7-29.7s29.7,13.3,29.7,29.7S681.9,700.1,665.5,700.1z
		 M677.4,696.5c11.7-5.3,15.9-21.3,9.3-35.6c-6.5-14.4-21.3-21.7-33-16.4s-15.9,21.3-9.3,35.6C650.9,694.5,665.7,701.8,677.4,696.5z
		"/>
	<g>
		<g>
			<g>
				<defs>
					<rect id="SVGID_00000154421129395456849030000017875634681547424908_" x="-960" y="-181.4" width="1920" height="1080"/>
				</defs>
				<clipPath id="SVGID_00000105420222175542457090000016388394584730510501_">
					<use xlink:href="#SVGID_00000154421129395456849030000017875634681547424908_"  style="overflow:visible;"/>
				</clipPath>
				<g style="clip-path:url(#SVGID_00000105420222175542457090000016388394584730510501_);">
					<path class="st1" d="M723,745.9v9.2l0,0c0,7.2,1.8,12.1,5.5,13.1H712c3.7-0.9,5.5-5.8,5.5-13.1l0,0v-31.3l0,0
						c0-7.2-1.8-12.1-5.5-13.1h21.7c16.4,0,28,4.3,27,16.9c-0.6,7.9-7,14.7-17.7,17.2l7,10.2l0,0c4.9,7.2,10.8,12.1,14.5,13.1H748
						c3.6-0.9,1.2-6.2-3-12.5l-6.8-10c-1.4,0.1-2.9,0.2-4.4,0.2L723,745.9L723,745.9z M723,711.9v32.9h10.7c1.2,0,2.4-0.1,3.6-0.2
						l3.8-2.5l1,1.5c4.2-1.3,8-3.8,10.7-8c3.9-6.1,4.4-19-7.2-22.3c-3.8-1-7.8-1.4-11.8-1.4H723L723,711.9z"/>
				</g>
			</g>
		</g>
	</g>
	<path class="st2" d="M723,745.9v9.2l0,0c0,7.2,1.8,12.1,5.5,13.1H712c3.7-0.9,5.5-5.8,5.5-13.1l0,0v-31.3l0,0
		c0-7.2-1.8-12.1-5.5-13.1h21.7c16.4,0,28,4.3,27,16.9c-0.6,7.9-7,14.7-17.7,17.2l7,10.2l0,0c4.9,7.2,10.8,12.1,14.5,13.1H748
		c3.6-0.9,1.2-6.2-3-12.5l-6.8-10c-1.4,0.1-2.9,0.2-4.4,0.2L723,745.9L723,745.9z M723,711.9v32.9h10.7c1.2,0,2.4-0.1,3.6-0.2
		l3.8-2.5l1,1.5c4.2-1.3,8-3.8,10.7-8c3.9-6.1,4.4-19-7.2-22.3c-3.8-1-7.8-1.4-11.8-1.4H723L723,711.9z"/>
	<g>
		<g>
			<g>
				<defs>
					<rect id="SVGID_00000126299152195877428860000016121619560021429634_" x="-960" y="-181.4" width="1920" height="1080"/>
				</defs>
				<clipPath id="SVGID_00000106125054165137443810000008066941313983157168_">
					<use xlink:href="#SVGID_00000126299152195877428860000016121619560021429634_"  style="overflow:visible;"/>
				</clipPath>
				<g style="clip-path:url(#SVGID_00000106125054165137443810000008066941313983157168_);">
					<path class="st1" d="M843.9,779.8c-3.7,0.9-10.1,6-13.5,13.1l-13.7,28.6l0,0l-1.3,2.6l0,0l-0.2,0.5l0,0
						c-5.4,11.3-9.7,17.1-16.1,21.3c-4.6,3-9.7,4.7-14.8,5v-6.5c5,0.5,9.8-0.2,13.9-2.2c7.3-3.5,11.8-9.5,16.2-18.7l1-2.2h-4.2
						l-14-28.7c-3.6-7.3-7.9-12.1-11.6-13.1h16.5c-3.7,0.9-2.5,6.4,0.5,13.1l13.3,27.4l13.2-27.4c3.2-6.6,1.8-12.1-1.9-13.1
						L843.9,779.8L843.9,779.8z"/>
				</g>
			</g>
		</g>
	</g>
	<path class="st2" d="M843.9,779.8c-3.7,0.9-10.1,6-13.5,13.1l-13.7,28.6l0,0l-1.3,2.6l0,0l-0.2,0.5l0,0
		c-5.4,11.3-9.7,17.1-16.1,21.3c-4.6,3-9.7,4.7-14.8,5v-6.5c5,0.5,9.8-0.2,13.9-2.2c7.3-3.5,11.8-9.5,16.2-18.7l1-2.2h-4.2l-14-28.7
		c-3.6-7.3-7.9-12.1-11.6-13.1h16.5c-3.7,0.9-2.5,6.4,0.5,13.1l13.3,27.4l13.2-27.4c3.2-6.6,1.8-12.1-1.9-13.1L843.9,779.8
		L843.9,779.8z"/>
	<path class="st2" d="M56.4,56.1h36.5v-8.7H46v67.5h10.4V85.3h35v-8.6h-35V56.1L56.4,56.1L56.4,56.1z M157.7,47.4h-10.4v41.7
		c0,13.3-6.1,18.4-16.8,18.4s-16.8-5.1-16.8-18.4V47.4h-10.4v42.8c0,17.3,11.8,26.2,27.2,26.2s27.2-9,27.2-26.2V47.4L157.7,47.4
		L157.7,47.4z M221.9,66c-3.3-12.8-12-20.1-26.8-20.1c-14,0-24.6,7.5-24.6,19.2c0,12.5,8.9,16,17.7,18.2l12.3,3
		c7.1,1.7,12.4,3.5,12.4,10.6s-6.3,11.2-15.4,11.2s-17.6-3.6-19.1-14.9l-10.3,1c2.4,14.5,12.8,22.3,29.2,22.3
		c14.4,0,26.2-6.6,26.2-19.8c0-14.7-9.9-17.4-20.1-20L191.8,74c-6.1-1.4-10.7-3.4-10.7-9.2c0-6.1,5.3-10.5,13.9-10.5
		s14.7,4.1,16.5,12.6L221.9,66L221.9,66L221.9,66z"/>
	<path class="st11" d="M449.7,80.2c0-17.6-47.1-31.9-105.3-31.9S239.1,62.6,239.1,80.2s47.1,31.9,105.3,31.9S449.7,97.8,449.7,80.2
		L449.7,80.2z"/>
	<g>
		<g>
			<g>
				<defs>
					<rect id="SVGID_00000093164877581796616240000016979204842986120070_" x="-960" y="-181.4" width="1920" height="1080"/>
				</defs>
				<clipPath id="SVGID_00000003794499508360399910000011033636291670712724_">
					<use xlink:href="#SVGID_00000093164877581796616240000016979204842986120070_"  style="overflow:visible;"/>
				</clipPath>
				<g style="clip-path:url(#SVGID_00000003794499508360399910000011033636291670712724_);">
					<g>
						<path class="st13" d="M551.3,80.5c0,4.1,1,6.8,3.1,7.3h-9.3c2.1-0.5,3.1-3.3,3.1-7.3V62.9c0-4.1-1-6.8-3.1-7.3h9.3
							c-2.1,0.5-3.1,3.3-3.1,7.3V80.5z"/>
						<path class="st13" d="M608.3,87.8l-17.5-29.9v22.6c0,4.1,2.3,6.8,4.3,7.3h-9.3c2.1-0.5,4.3-3.3,4.3-7.3V62.9
							c0-4.1-2.3-6.8-4.3-7.3h6.7l16.9,29V62.9c0-4.1-2.3-6.8-4.3-7.3h9.3c-2.1,0.5-4.3,3.3-4.3,7.3v22.8l1.2,2.1L608.3,87.8
							L608.3,87.8z"/>
					</g>
					<g>
						<path class="st13" d="M644.5,85L644.5,85l2.2-2.6l0,0l1.8-2.2c-0.9,1.9-0.5,3.8,3.9,5.7c4,1.6,8.6,1.9,11.3,0.3
							c5.2-3.1,3.4-11.5-9.1-13.9c-13.6-2.6-10.2-12.8-4.6-15.8c2.1-1.1,4.5-1.5,6.9-1.5c3.7,0,7.2,1.2,10,3.3l0,0l-0.9,1.1l0,0
							l-3,3.5c0.9-1.9,0.5-3.9-3.8-5.8c-3.1-1.3-6.3-1.5-8.9,0c-4.2,2.5-3.5,10.1,4.5,11.8c17.6,3.7,17,13.9,9.3,17.9
							C657.6,90.2,647.3,87.1,644.5,85L644.5,85z"/>
						<path class="st13" d="M702.4,79.3V62.9l0,0c0-4.1-1-6.8-3.1-7.3h9.3c-2.1,0.5-3.1,3.3-3.1,7.3l0,0v16.3c0,5.5,4,8.4,8.9,8.4
							s8.9-2.9,8.9-8.4V62.9l0,0c0-4.1-1-6.8-3.1-7.3h9.3c-2.1,0.5-3.1,3.3-3.1,7.3l0,0v16.3c0,6.8-5.3,9.1-11.9,9.1
							S702.4,86,702.4,79.3L702.4,79.3z"/>
					</g>
					<g>
						<path class="st13" d="M781.5,80.8l-0.7,7.1h-19.9c2.1-0.5,3.1-3.3,3.1-7.3V62.9c0-4.1-1-6.8-3.1-7.3h9.3
							c-2.1,0.5-3.1,3.3-3.1,7.3v24.2h7.1C778.3,87.2,781,82.8,781.5,80.8L781.5,80.8z"/>
						<path class="st13" d="M844.4,87.8h-9.3c2.1-0.5,1.8-3.6,0.4-7.3l-3.1-8.5h-9.8l-3.1,8.5c-1.4,3.8-0.3,6.8,1.7,7.3h-9.3
							c2.1-0.5,5.4-3.2,6.9-7.3l8.3-22.7l-0.8-2.2h3.1l9,24.9C840.1,84.6,842.3,87.3,844.4,87.8L844.4,87.8z M832.3,71.4l-4.7-12.8
							L823,71.4H832.3L832.3,71.4z"/>
					</g>
					<path class="st13" d="M881.9,75.3v5.2c0,4.1,1,6.8,3.1,7.3h-9.3c2.1-0.5,3.1-3.3,3.1-7.3V62.9c0-4.1-1-6.8-3.1-7.3h12.2
						c9.2,0,15.7,2.4,15.2,9.5c-0.3,4.5-3.9,8.3-10,9.7l3.9,5.7l0,0c2.8,4.1,6,6.8,8.1,7.3h-9.3c2-0.5,0.7-3.5-1.7-7l-3.8-5.6
						c-0.8,0.1-1.6,0.1-2.5,0.1H881.9L881.9,75.3z M881.9,56.2v18.4h6c0.7,0,1.4,0,2-0.1l2.1-1.4l0.6,0.8c2.4-0.7,4.5-2.2,6-4.5
						c2.2-3.4,2.5-10.7-4.1-12.5c-2.1-0.6-4.4-0.8-6.6-0.8L881.9,56.2L881.9,56.2z"/>
				</g>
			</g>
		</g>
	</g>
	<g>
		<path class="st2" d="M551.3,80.5c0,4.1,1,6.8,3.1,7.3h-9.3c2.1-0.5,3.1-3.3,3.1-7.3V62.9c0-4.1-1-6.8-3.1-7.3h9.3
			c-2.1,0.5-3.1,3.3-3.1,7.3V80.5z"/>
		<path class="st2" d="M608.3,87.8l-17.5-29.9v22.6c0,4.1,2.3,6.8,4.3,7.3h-9.3c2.1-0.5,4.3-3.3,4.3-7.3V62.9c0-4.1-2.3-6.8-4.3-7.3
			h6.7l16.9,29V62.9c0-4.1-2.3-6.8-4.3-7.3h9.3c-2.1,0.5-4.3,3.3-4.3,7.3v22.8l1.2,2.1L608.3,87.8L608.3,87.8z"/>
	</g>
	<g>
		<path class="st2" d="M644.5,85L644.5,85l2.2-2.6l0,0l1.8-2.2c-0.9,1.9-0.5,3.8,3.9,5.7c4,1.6,8.6,1.9,11.3,0.3
			c5.2-3.1,3.4-11.5-9.1-13.9c-13.6-2.6-10.2-12.8-4.6-15.8c2.1-1.1,4.5-1.5,6.9-1.5c3.7,0,7.2,1.2,10,3.3l0,0l-0.9,1.1l0,0l-3,3.5
			c0.9-1.9,0.5-3.9-3.8-5.8c-3.1-1.3-6.3-1.5-8.9,0c-4.2,2.5-3.5,10.1,4.5,11.8c17.6,3.7,17,13.9,9.3,17.9
			C657.6,90.2,647.3,87.1,644.5,85L644.5,85z"/>
		<path class="st2" d="M702.4,79.3V62.9l0,0c0-4.1-1-6.8-3.1-7.3h9.3c-2.1,0.5-3.1,3.3-3.1,7.3l0,0v16.3c0,5.5,4,8.4,8.9,8.4
			s8.9-2.9,8.9-8.4V62.9l0,0c0-4.1-1-6.8-3.1-7.3h9.3c-2.1,0.5-3.1,3.3-3.1,7.3l0,0v16.3c0,6.8-5.3,9.1-11.9,9.1
			S702.4,86,702.4,79.3L702.4,79.3z"/>
	</g>
	<g>
		<path class="st2" d="M781.5,80.8l-0.7,7.1h-19.9c2.1-0.5,3.1-3.3,3.1-7.3V62.9c0-4.1-1-6.8-3.1-7.3h9.3c-2.1,0.5-3.1,3.3-3.1,7.3
			v24.2h7.1C778.3,87.2,781,82.8,781.5,80.8L781.5,80.8z"/>
		<path class="st2" d="M844.4,87.8h-9.3c2.1-0.5,1.8-3.6,0.4-7.3l-3.1-8.5h-9.8l-3.1,8.5c-1.4,3.8-0.3,6.8,1.7,7.3h-9.3
			c2.1-0.5,5.4-3.2,6.9-7.3l8.3-22.7l-0.8-2.2h3.1l9,24.9C840.1,84.6,842.3,87.3,844.4,87.8L844.4,87.8z M832.3,71.4l-4.7-12.8
			L823,71.4H832.3L832.3,71.4z"/>
	</g>
	<path class="st2" d="M881.9,75.3v5.2c0,4.1,1,6.8,3.1,7.3h-9.3c2.1-0.5,3.1-3.3,3.1-7.3V62.9c0-4.1-1-6.8-3.1-7.3h12.2
		c9.2,0,15.7,2.4,15.2,9.5c-0.3,4.5-3.9,8.3-10,9.7l3.9,5.7l0,0c2.8,4.1,6,6.8,8.1,7.3h-9.3c2-0.5,0.7-3.5-1.7-7l-3.8-5.6
		c-0.8,0.1-1.6,0.1-2.5,0.1H881.9L881.9,75.3z M881.9,56.2v18.4h6c0.7,0,1.4,0,2-0.1l2.1-1.4l0.6,0.8c2.4-0.7,4.5-2.2,6-4.5
		c2.2-3.4,2.5-10.7-4.1-12.5c-2.1-0.6-4.4-0.8-6.6-0.8L881.9,56.2L881.9,56.2z"/>
	<g>
		<path class="st2" d="M195.6,620.3h-33.4v-2.2c0-11.1,7.6-16,12.7-19.2l6.7-4.3c2.9-1.9,6.7-4.8,6.7-9.8c0-5.8-3.2-8.6-9-8.6
			s-9.4,4.1-10.1,10.9l-7.1-0.8c1.1-10.4,8.6-16,17.2-16s16.4,4.4,16.4,14.2s-7.4,13-11.9,15.9l-6.1,4c-5.7,3.7-7.6,7.2-7.8,9.5
			h25.5L195.6,620.3L195.6,620.3z"/>
		<path class="st2" d="M244,595.8c0,19.3-9,25.5-18.8,25.5s-18.8-6.2-18.8-25.5s9-25.5,18.8-25.5S244,576.5,244,595.8z M236.6,595.8
			c0-16-5.4-19.7-11.4-19.7s-11.4,3.7-11.4,19.7s5.4,19.6,11.4,19.6S236.6,611.8,236.6,595.8z"/>
	</g>
	<g>
		<path class="st2" d="M287.6,620.3h-33.4v-2.2c0-11.1,7.6-16,12.7-19.2l6.7-4.3c2.9-1.9,6.7-4.8,6.7-9.8c0-5.8-3.2-8.6-9-8.6
			s-9.4,4.1-10.1,10.9l-7.1-0.8c1.1-10.4,8.6-16,17.2-16s16.4,4.4,16.4,14.2s-7.4,13-11.9,15.9l-6.1,4c-5.7,3.7-7.5,7.2-7.8,9.5
			h25.5L287.6,620.3L287.6,620.3z"/>
		<path class="st2" d="M331.7,620.3h-33.4v-2.2c0-11.1,7.6-16,12.7-19.2l6.7-4.3c2.9-1.9,6.7-4.8,6.7-9.8c0-5.8-3.2-8.6-9-8.6
			s-9.4,4.1-10.1,10.9l-7.1-0.8c1.1-10.4,8.6-16,17.2-16s16.4,4.4,16.4,14.2s-7.4,13-11.9,15.9l-6.1,4c-5.7,3.7-7.5,7.2-7.8,9.5
			h25.5L331.7,620.3L331.7,620.3z"/>
	</g>
</g>
</svg>
