<?xml version="1.0" encoding="utf-8"?>
<!-- Generator: Adobe Illustrator 26.2.1, SVG Export Plug-In . SVG Version: 6.00 Build 0)  -->
<svg version="1.1" id="a" xmlns="http://www.w3.org/2000/svg" xmlns:xlink="http://www.w3.org/1999/xlink" x="0px" y="0px"
	 viewBox="0 0 960 908.6" style="enable-background:new 0 0 960 908.6;" xml:space="preserve">
<style type="text/css">
	.st0{fill:none;stroke:#FF4C38;stroke-width:2.78;}
	.st1{fill:#FF4C38;}
	.st2{fill:none;stroke:#FF4C38;stroke-width:9.06;}
	.st3{clip-path:url(#SVGID_00000128458554232723187620000015485699207137939593_);}
	.st4{fill:none;stroke:#FF4C38;}
	.st5{clip-path:url(#SVGID_00000004542707781278755260000004149063458247632048_);}
	.st6{fill:none;stroke:#FF4C38;stroke-width:1.068;stroke-miterlimit:4.273;}
	.st7{clip-path:url(#SVGID_00000094592537252266872990000017072933792004867251_);}
	.st8{clip-path:url(#SVGID_00000049192217071887808790000007563097328493340318_);}
	.st9{clip-path:url(#SVGID_00000180355071112044623170000012577589787523430295_);}
	.st10{clip-path:url(#SVGID_00000106146427055727666830000003126669608807342271_);}
	.st11{clip-path:url(#SVGID_00000044891178148258904940000005456757053851595652_);}
	.st12{clip-path:url(#SVGID_00000026860594652384887220000017386319745938340278_);}
	.st13{clip-path:url(#SVGID_00000090291345957646395860000011339903034335239298_);}
	.st14{clip-path:url(#SVGID_00000147207485532982534810000004946907978870600069_);}
	.st15{clip-path:url(#SVGID_00000088096557927189033200000004762489864885992637_);}
	.st16{clip-path:url(#SVGID_00000035504967143491580650000013609721644135484564_);}
</style>
<rect width="960" height="908.6"/>
<g>
	<path class="st0" d="M741.4,132.1c-17.3,0-31.3,84.5-31.3,188.8s14,188.8,31.3,188.8s31.3-84.5,31.3-188.8S758.7,132.1,741.4,132.1
		L741.4,132.1z M741.4,132.1c-30.8,0-55.8,84.5-55.8,188.8s25,188.8,55.8,188.8s55.8-84.5,55.8-188.8S772.2,132.1,741.4,132.1
		L741.4,132.1z M741.4,132.1c-41.3,0-74.7,84.5-74.7,188.8s33.5,188.8,74.7,188.8s74.7-84.5,74.7-188.8S782.7,132.1,741.4,132.1
		L741.4,132.1z M741.4,132.1c-53.2,0-96.4,84.5-96.4,188.8s43.2,188.8,96.4,188.8s96.4-84.5,96.4-188.8S794.6,132.1,741.4,132.1
		L741.4,132.1z M741.4,132.1c-64,0-115.8,84.5-115.8,188.8s51.8,188.8,115.8,188.8s115.8-84.5,115.8-188.8S805.4,132.1,741.4,132.1
		L741.4,132.1z M741.4,132.1c-75.5,0-136.7,84.5-136.7,188.8s61.2,188.8,136.7,188.8s136.7-84.5,136.7-188.8
		S816.9,132.1,741.4,132.1L741.4,132.1z M741.4,132.1c-86.8,0-157.2,84.5-157.2,188.8s70.4,188.8,157.2,188.8
		s157.2-84.5,157.2-188.8S828.2,132.1,741.4,132.1L741.4,132.1z M741.4,132.1c-99.5,0-180.1,84.5-180.1,188.8S642,509.7,741.4,509.7
		s180.1-84.5,180.1-188.8S840.9,132.1,741.4,132.1L741.4,132.1z M741.4,132.1c-6.9,0-12.6,84.5-12.6,188.8s5.6,188.8,12.6,188.8
		S754,425.2,754,320.9S748.3,132.1,741.4,132.1L741.4,132.1z M247.5,663.6c-30.8,0-55.8,84.5-55.8,188.8s25,188.8,55.8,188.8
		s55.8-84.5,55.8-188.8S278.3,663.6,247.5,663.6L247.5,663.6L247.5,663.6z M247.5,663.6c-53.2,0-96.4,84.5-96.4,188.8
		s43.2,188.8,96.4,188.8s96.4-84.5,96.4-188.8S300.7,663.6,247.5,663.6L247.5,663.6L247.5,663.6z M247.5,663.6
		c-75.5,0-136.7,84.5-136.7,188.8s61.2,188.8,136.7,188.8s136.7-84.5,136.7-188.8S323,663.6,247.5,663.6L247.5,663.6L247.5,663.6z
		 M247.5,663.6c-99.5,0-180.1,84.5-180.1,188.8s80.6,188.8,180.1,188.8s180.1-84.5,180.1-188.8S347,663.6,247.5,663.6L247.5,663.6
		L247.5,663.6z M247.5,663.6c-6.9,0-12.6,84.5-12.6,188.8s5.6,188.8,12.6,188.8S260,956.7,260,852.4S254.4,663.6,247.5,663.6
		L247.5,663.6L247.5,663.6z"/>
</g>
<path class="st1" d="M56.4,56.1h36.5v-8.7H46v67.5h10.4V85.3h35v-8.6h-35V56.1L56.4,56.1L56.4,56.1z M157.7,47.4h-10.4v41.7
	c0,13.3-6.1,18.4-16.8,18.4s-16.8-5.1-16.8-18.4V47.4h-10.4v42.8c0,17.3,11.8,26.2,27.2,26.2s27.2-9,27.2-26.2V47.4L157.7,47.4
	L157.7,47.4z M221.9,66c-3.3-12.8-12-20.1-26.8-20.1c-14,0-24.6,7.5-24.6,19.2c0,12.5,8.9,16,17.7,18.2l12.3,3
	c7.1,1.7,12.4,3.5,12.4,10.6s-6.3,11.2-15.4,11.2s-17.6-3.6-19.1-14.9l-10.3,1c2.4,14.5,12.8,22.3,29.2,22.3
	c14.4,0,26.2-6.6,26.2-19.8c0-14.7-9.9-17.4-20.1-20L191.8,74c-6.1-1.4-10.7-3.4-10.7-9.2c0-6.1,5.3-10.5,13.9-10.5
	s14.7,4.1,16.5,12.6L221.9,66L221.9,66L221.9,66z"/>
<path class="st2" d="M449.7,80.2c0-17.6-47.1-31.9-105.3-31.9S239.1,62.6,239.1,80.2s47.1,31.9,105.3,31.9S449.7,97.8,449.7,80.2
	L449.7,80.2z"/>
<g>
	<g>
		<g>
			<defs>
				<rect id="SVGID_1_" x="-960" y="-181.4" width="1920" height="1080"/>
			</defs>
			<clipPath id="SVGID_00000178886862138720093540000008967772977695283854_">
				<use xlink:href="#SVGID_1_"  style="overflow:visible;"/>
			</clipPath>
			<g style="clip-path:url(#SVGID_00000178886862138720093540000008967772977695283854_);">
				<g>
					<path class="st4" d="M551.3,80.5c0,4.1,1,6.8,3.1,7.3h-9.3c2.1-0.5,3.1-3.3,3.1-7.3V62.9c0-4.1-1-6.8-3.1-7.3h9.3
						c-2.1,0.5-3.1,3.3-3.1,7.3V80.5z"/>
					<path class="st4" d="M608.3,87.8l-17.5-29.9v22.6c0,4.1,2.3,6.8,4.3,7.3h-9.3c2.1-0.5,4.3-3.3,4.3-7.3V62.9
						c0-4.1-2.3-6.8-4.3-7.3h6.7l16.9,29V62.9c0-4.1-2.3-6.8-4.3-7.3h9.3c-2.1,0.5-4.3,3.3-4.3,7.3v22.8l1.2,2.1L608.3,87.8
						L608.3,87.8z"/>
				</g>
				<g>
					<path class="st4" d="M644.5,85L644.5,85l2.2-2.6l0,0l1.8-2.2c-0.9,1.9-0.5,3.8,3.9,5.7c4,1.6,8.6,1.9,11.3,0.3
						c5.2-3.1,3.4-11.5-9.1-13.9c-13.6-2.6-10.2-12.8-4.6-15.8c2.1-1.1,4.5-1.5,6.9-1.5c3.7,0,7.2,1.2,10,3.3l0,0l-0.9,1.1l0,0
						l-3,3.5c0.9-1.9,0.5-3.9-3.8-5.8c-3.1-1.3-6.3-1.5-8.9,0c-4.2,2.5-3.5,10.1,4.5,11.8c17.6,3.7,17,13.9,9.3,17.9
						C657.6,90.2,647.3,87.1,644.5,85L644.5,85z"/>
					<path class="st4" d="M702.4,79.3V62.9l0,0c0-4.1-1-6.8-3.1-7.3h9.3c-2.1,0.5-3.1,3.3-3.1,7.3l0,0v16.3c0,5.5,4,8.4,8.9,8.4
						s8.9-2.9,8.9-8.4V62.9l0,0c0-4.1-1-6.8-3.1-7.3h9.3c-2.1,0.5-3.1,3.3-3.1,7.3l0,0v16.3c0,6.8-5.3,9.1-11.9,9.1
						S702.4,86,702.4,79.3L702.4,79.3z"/>
				</g>
				<g>
					<path class="st4" d="M781.5,80.8l-0.7,7.1h-19.9c2.1-0.5,3.1-3.3,3.1-7.3V62.9c0-4.1-1-6.8-3.1-7.3h9.3
						c-2.1,0.5-3.1,3.3-3.1,7.3v24.2h7.1C778.3,87.2,781,82.8,781.5,80.8L781.5,80.8z"/>
					<path class="st4" d="M844.4,87.8h-9.3c2.1-0.5,1.8-3.6,0.4-7.3l-3.1-8.5h-9.8l-3.1,8.5c-1.4,3.8-0.3,6.8,1.7,7.3h-9.3
						c2.1-0.5,5.4-3.2,6.9-7.3l8.3-22.7l-0.8-2.2h3.1l9,24.9C840.1,84.6,842.3,87.3,844.4,87.8L844.4,87.8z M832.3,71.4l-4.7-12.8
						L823,71.4H832.3L832.3,71.4z"/>
				</g>
				<path class="st4" d="M881.9,75.3v5.2c0,4.1,1,6.8,3.1,7.3h-9.3c2.1-0.5,3.1-3.3,3.1-7.3V62.9c0-4.1-1-6.8-3.1-7.3h12.2
					c9.2,0,15.7,2.4,15.2,9.5c-0.3,4.5-3.9,8.3-10,9.7l3.9,5.7l0,0c2.8,4.1,6,6.8,8.1,7.3h-9.3c2-0.5,0.7-3.5-1.7-7l-3.8-5.6
					c-0.8,0.1-1.6,0.1-2.5,0.1H881.9L881.9,75.3z M881.9,56.2v18.4h6c0.7,0,1.4,0,2-0.1l2.1-1.4l0.6,0.8c2.4-0.7,4.5-2.2,6-4.5
					c2.2-3.4,2.5-10.7-4.1-12.5c-2.1-0.6-4.4-0.8-6.6-0.8L881.9,56.2L881.9,56.2z"/>
			</g>
		</g>
	</g>
</g>
<g>
	<path class="st1" d="M551.3,80.5c0,4.1,1,6.8,3.1,7.3h-9.3c2.1-0.5,3.1-3.3,3.1-7.3V62.9c0-4.1-1-6.8-3.1-7.3h9.3
		c-2.1,0.5-3.1,3.3-3.1,7.3V80.5z"/>
	<path class="st1" d="M608.3,87.8l-17.5-29.9v22.6c0,4.1,2.3,6.8,4.3,7.3h-9.3c2.1-0.5,4.3-3.3,4.3-7.3V62.9c0-4.1-2.3-6.8-4.3-7.3
		h6.7l16.9,29V62.9c0-4.1-2.3-6.8-4.3-7.3h9.3c-2.1,0.5-4.3,3.3-4.3,7.3v22.8l1.2,2.1L608.3,87.8L608.3,87.8z"/>
</g>
<g>
	<path class="st1" d="M644.5,85L644.5,85l2.2-2.6l0,0l1.8-2.2c-0.9,1.9-0.5,3.8,3.9,5.7c4,1.6,8.6,1.9,11.3,0.3
		c5.2-3.1,3.4-11.5-9.1-13.9c-13.6-2.6-10.2-12.8-4.6-15.8c2.1-1.1,4.5-1.5,6.9-1.5c3.7,0,7.2,1.2,10,3.3l0,0l-0.9,1.1l0,0l-3,3.5
		c0.9-1.9,0.5-3.9-3.8-5.8c-3.1-1.3-6.3-1.5-8.9,0c-4.2,2.5-3.5,10.1,4.5,11.8c17.6,3.7,17,13.9,9.3,17.9
		C657.6,90.2,647.3,87.1,644.5,85L644.5,85z"/>
	<path class="st1" d="M702.4,79.3V62.9l0,0c0-4.1-1-6.8-3.1-7.3h9.3c-2.1,0.5-3.1,3.3-3.1,7.3l0,0v16.3c0,5.5,4,8.4,8.9,8.4
		s8.9-2.9,8.9-8.4V62.9l0,0c0-4.1-1-6.8-3.1-7.3h9.3c-2.1,0.5-3.1,3.3-3.1,7.3l0,0v16.3c0,6.8-5.3,9.1-11.9,9.1S702.4,86,702.4,79.3
		L702.4,79.3z"/>
</g>
<g>
	<path class="st1" d="M781.5,80.8l-0.7,7.1h-19.9c2.1-0.5,3.1-3.3,3.1-7.3V62.9c0-4.1-1-6.8-3.1-7.3h9.3c-2.1,0.5-3.1,3.3-3.1,7.3
		v24.2h7.1C778.3,87.2,781,82.8,781.5,80.8L781.5,80.8z"/>
	<path class="st1" d="M844.4,87.8h-9.3c2.1-0.5,1.8-3.6,0.4-7.3l-3.1-8.5h-9.8l-3.1,8.5c-1.4,3.8-0.3,6.8,1.7,7.3h-9.3
		c2.1-0.5,5.4-3.2,6.9-7.3l8.3-22.7l-0.8-2.2h3.1l9,24.9C840.1,84.6,842.3,87.3,844.4,87.8L844.4,87.8z M832.3,71.4l-4.7-12.8
		L823,71.4H832.3L832.3,71.4z"/>
</g>
<path class="st1" d="M881.9,75.3v5.2c0,4.1,1,6.8,3.1,7.3h-9.3c2.1-0.5,3.1-3.3,3.1-7.3V62.9c0-4.1-1-6.8-3.1-7.3h12.2
	c9.2,0,15.7,2.4,15.2,9.5c-0.3,4.5-3.9,8.3-10,9.7l3.9,5.7l0,0c2.8,4.1,6,6.8,8.1,7.3h-9.3c2-0.5,0.7-3.5-1.7-7l-3.8-5.6
	c-0.8,0.1-1.6,0.1-2.5,0.1H881.9L881.9,75.3z M881.9,56.2v18.4h6c0.7,0,1.4,0,2-0.1l2.1-1.4l0.6,0.8c2.4-0.7,4.5-2.2,6-4.5
	c2.2-3.4,2.5-10.7-4.1-12.5c-2.1-0.6-4.4-0.8-6.6-0.8L881.9,56.2L881.9,56.2z"/>
<g>
	<path class="st1" d="M195.6,620.3h-33.4v-2.2c0-11.1,7.6-16,12.7-19.2l6.7-4.3c2.9-1.9,6.7-4.8,6.7-9.8c0-5.8-3.2-8.6-9-8.6
		s-9.4,4.1-10.1,10.9l-7.1-0.8c1.1-10.4,8.6-16,17.2-16s16.4,4.4,16.4,14.2s-7.4,13-11.9,15.9l-6.1,4c-5.7,3.7-7.6,7.2-7.8,9.5h25.5
		L195.6,620.3L195.6,620.3z"/>
	<path class="st1" d="M244,595.8c0,19.3-9,25.5-18.8,25.5s-18.8-6.2-18.8-25.5s9-25.5,18.8-25.5S244,576.5,244,595.8z M236.6,595.8
		c0-16-5.4-19.7-11.4-19.7s-11.4,3.7-11.4,19.7s5.4,19.6,11.4,19.6S236.6,611.8,236.6,595.8z"/>
</g>
<g>
	<path class="st1" d="M287.6,620.3h-33.4v-2.2c0-11.1,7.6-16,12.7-19.2l6.7-4.3c2.9-1.9,6.7-4.8,6.7-9.8c0-5.8-3.2-8.6-9-8.6
		s-9.4,4.1-10.1,10.9l-7.1-0.8c1.1-10.4,8.6-16,17.2-16s16.4,4.4,16.4,14.2s-7.4,13-11.9,15.9l-6.1,4c-5.7,3.7-7.5,7.2-7.8,9.5h25.5
		L287.6,620.3L287.6,620.3z"/>
	<path class="st1" d="M331.7,620.3h-33.4v-2.2c0-11.1,7.6-16,12.7-19.2l6.7-4.3c2.9-1.9,6.7-4.8,6.7-9.8c0-5.8-3.2-8.6-9-8.6
		s-9.4,4.1-10.1,10.9l-7.1-0.8c1.1-10.4,8.6-16,17.2-16s16.4,4.4,16.4,14.2s-7.4,13-11.9,15.9l-6.1,4c-5.7,3.7-7.5,7.2-7.8,9.5h25.5
		L331.7,620.3L331.7,620.3z"/>
</g>
<g>
	<g>
		<defs>
			<rect id="SVGID_00000070800044782609436340000017754918175911562152_" x="93.4" y="129.4" width="877.7" height="893.4"/>
		</defs>
		<clipPath id="SVGID_00000155841622377124314940000017669192772479159965_">
			<use xlink:href="#SVGID_00000070800044782609436340000017754918175911562152_"  style="overflow:visible;"/>
		</clipPath>
		<g style="clip-path:url(#SVGID_00000155841622377124314940000017669192772479159965_);">
			<path class="st6" d="M155.6,194.7l-1.2,12h-33.7c3.5-0.9,5.2-5.6,5.3-12.4h0v-29.7h0c0-6.9-1.8-11.5-5.3-12.4h15.7
				c-3.5,0.9-5.2,5.5-5.3,12.4h0v41.1h12C150.1,205.6,154.7,198.2,155.6,194.7z"/>
		</g>
	</g>
	<g>
		<path class="st1" d="M155.6,194.7l-1.2,12h-33.7c3.5-0.9,5.2-5.6,5.3-12.4h0v-29.7h0c0-6.9-1.8-11.5-5.3-12.4h15.7
			c-3.5,0.9-5.2,5.5-5.3,12.4h0v41.1h12C150.1,205.6,154.7,198.2,155.6,194.7z"/>
	</g>
	<g>
		<defs>
			<rect id="SVGID_00000112614146630163759440000000041170389024163511_" x="69.4" y="129.4" width="877.7" height="893.4"/>
		</defs>
		<clipPath id="SVGID_00000026864244567424790890000005697608326701509802_">
			<use xlink:href="#SVGID_00000112614146630163759440000000041170389024163511_"  style="overflow:visible;"/>
		</clipPath>
		<g style="clip-path:url(#SVGID_00000026864244567424790890000005697608326701509802_);">
			<path class="st6" d="M222.4,270.7h-7.8h-0.1h-7.8c3.5-0.9,3-6,0.7-12.4l-5.2-14.3h-16.5l-5.2,14.4c-2.3,6.4-0.6,11.5,3,12.4h-7.8
				h-0.1h-7.8c3.5-0.9,9.2-5.5,11.7-12.4l14-38.5l-1.3-3.6h5.2l15.3,42.2C215.2,265.1,218.9,269.8,222.4,270.7z M201.8,242.8
				l-7.9-21.7l-7.9,21.7H201.8z"/>
		</g>
	</g>
	<g>
		<path class="st1" d="M222.4,270.7h-7.8h-0.1h-7.8c3.5-0.9,3-6,0.7-12.4l-5.2-14.3h-16.5l-5.2,14.4c-2.3,6.4-0.6,11.5,3,12.4h-7.8
			h-0.1h-7.8c3.5-0.9,9.2-5.5,11.7-12.4l14-38.5l-1.3-3.6h5.2l15.3,42.2C215.2,265.1,218.9,269.8,222.4,270.7z M201.8,242.8
			l-7.9-21.7l-7.9,21.7H201.8z"/>
	</g>
	<g>
		<defs>
			<rect id="SVGID_00000174568166689710157160000017167566464130398642_" x="69.4" y="129.4" width="877.7" height="893.4"/>
		</defs>
		<clipPath id="SVGID_00000112627578261883293360000008317789478697876649_">
			<use xlink:href="#SVGID_00000174568166689710157160000017167566464130398642_"  style="overflow:visible;"/>
		</clipPath>
		<g style="clip-path:url(#SVGID_00000112627578261883293360000008317789478697876649_);">
			<path class="st6" d="M289.1,318.6c0.9,12-10.2,16.1-25.7,16.1v0h-11.1v0h-9.5c3.5-0.9,5.2-5.6,5.3-12.4h0v-29.7h0
				c0-6.9-1.8-11.5-5.3-12.4h5.6v0h10.2c15.6,0,25.7,5.2,25.7,11.5c0,5.3-5.7,8.7-15.1,10C281.2,303.3,288.5,310.3,289.1,318.6z
				 M253.2,281.1v20.1h5.3c3.9,0,7.7-0.2,11.3-0.9c11.1-2.1,10.6-9.5,6.9-13.4c-4.2-4.3-11.3-5.8-18.2-5.8H253.2z M281.5,311.1
				c-4.2-6.5-11.3-8.8-18.2-8.8h-10.2v31.3h10.2c3.9,0,7.7-0.3,11.3-1.3C285.7,329.2,285.2,316.9,281.5,311.1z"/>
		</g>
	</g>
	<g>
		<path class="st1" d="M289.1,318.6c0.9,12-10.2,16.1-25.7,16.1v0h-11.1v0h-9.5c3.5-0.9,5.2-5.6,5.3-12.4h0v-29.7h0
			c0-6.9-1.8-11.5-5.3-12.4h5.6v0h10.2c15.6,0,25.7,5.2,25.7,11.5c0,5.3-5.7,8.7-15.1,10C281.2,303.3,288.5,310.3,289.1,318.6z
			 M253.2,281.1v20.1h5.3c3.9,0,7.7-0.2,11.3-0.9c11.1-2.1,10.6-9.5,6.9-13.4c-4.2-4.3-11.3-5.8-18.2-5.8H253.2z M281.5,311.1
			c-4.2-6.5-11.3-8.8-18.2-8.8h-10.2v31.3h10.2c3.9,0,7.7-0.3,11.3-1.3C285.7,329.2,285.2,316.9,281.5,311.1z"/>
	</g>
	<g>
		<defs>
			<rect id="SVGID_00000165920924282630861580000018200293488195094944_" x="69.4" y="129.4" width="877.7" height="893.4"/>
		</defs>
		<clipPath id="SVGID_00000074418889334265281830000009670716819239379628_">
			<use xlink:href="#SVGID_00000165920924282630861580000018200293488195094944_"  style="overflow:visible;"/>
		</clipPath>
		<g style="clip-path:url(#SVGID_00000074418889334265281830000009670716819239379628_);">
			<path class="st6" d="M344.5,399.6c-15.6,0-28.2-12.6-28.2-28.2c0-15.6,12.6-28.2,28.2-28.2s28.2,12.6,28.2,28.2
				C372.7,386.9,360.1,399.6,344.5,399.6z M355.8,396.1c11.1-5.1,15.1-20.2,8.9-33.9c-6.2-13.7-20.3-20.6-31.4-15.6
				c-11.1,5.1-15.1,20.2-8.9,33.9C330.6,394.2,344.7,401.1,355.8,396.1z"/>
		</g>
	</g>
	<g>
		<path class="st1" d="M344.5,399.6c-15.6,0-28.2-12.6-28.2-28.2c0-15.6,12.6-28.2,28.2-28.2s28.2,12.6,28.2,28.2
			C372.7,386.9,360.1,399.6,344.5,399.6z M355.8,396.1c11.1-5.1,15.1-20.2,8.9-33.9c-6.2-13.7-20.3-20.6-31.4-15.6
			c-11.1,5.1-15.1,20.2-8.9,33.9C330.6,394.2,344.7,401.1,355.8,396.1z"/>
	</g>
	<g>
		<defs>
			<rect id="SVGID_00000005256716552155374430000000989519160595483792_" x="69.4" y="129.4" width="877.7" height="893.4"/>
		</defs>
		<clipPath id="SVGID_00000127008299173659009500000012298269572614110378_">
			<use xlink:href="#SVGID_00000005256716552155374430000000989519160595483792_"  style="overflow:visible;"/>
		</clipPath>
		<g style="clip-path:url(#SVGID_00000127008299173659009500000012298269572614110378_);">
			<path class="st6" d="M404.2,443.4v8.8h0c0,6.9,1.8,11.5,5.3,12.4h-15.7c3.5-0.9,5.2-5.6,5.3-12.4h0v-29.7h0
				c0-6.9-1.8-11.5-5.3-12.4h9.5v0h11.1v0c15.6,0,26.6,4.1,25.7,16.1c-0.5,7.5-6.6,14-16.9,16.4l6.6,9.7h0
				c4.7,6.9,10.2,11.5,13.8,12.4h-7.8h0h-0.1h-7.8c3.4-0.9,1.2-5.9-2.8-11.9l-6.5-9.5c-1.3,0.1-2.7,0.2-4.2,0.2H404.2z M404.2,411.1
				v31.3h10.2c1.1,0,2.3-0.1,3.5-0.2l3.6-2.4l1,1.4c4-1.3,7.6-3.6,10.2-7.6c3.7-5.8,4.2-18.1-6.9-21.2c-3.6-1-7.4-1.3-11.3-1.3
				H404.2z"/>
		</g>
	</g>
	<g>
		<path class="st1" d="M404.2,443.4v8.8h0c0,6.9,1.8,11.5,5.3,12.4h-15.7c3.5-0.9,5.2-5.6,5.3-12.4h0v-29.7h0
			c0-6.9-1.8-11.5-5.3-12.4h9.5v0h11.1v0c15.6,0,26.6,4.1,25.7,16.1c-0.5,7.5-6.6,14-16.9,16.4l6.6,9.7h0
			c4.7,6.9,10.2,11.5,13.8,12.4h-7.8h0h-0.1h-7.8c3.4-0.9,1.2-5.9-2.8-11.9l-6.5-9.5c-1.3,0.1-2.7,0.2-4.2,0.2H404.2z M404.2,411.1
			v31.3h10.2c1.1,0,2.3-0.1,3.5-0.2l3.6-2.4l1,1.4c4-1.3,7.6-3.6,10.2-7.6c3.7-5.8,4.2-18.1-6.9-21.2c-3.6-1-7.4-1.3-11.3-1.3H404.2
			z"/>
	</g>
	<g>
		<defs>
			<rect id="SVGID_00000155837628878793085330000009837308489702288049_" x="69.4" y="129.4" width="877.7" height="893.4"/>
		</defs>
		<clipPath id="SVGID_00000083792968070012243120000017060287415608784272_">
			<use xlink:href="#SVGID_00000155837628878793085330000009837308489702288049_"  style="overflow:visible;"/>
		</clipPath>
		<g style="clip-path:url(#SVGID_00000083792968070012243120000017060287415608784272_);">
			<path class="st6" d="M514.5,526.7h-7.8h-0.1h-7.8c3.5-0.9,3-6,0.7-12.4l-5.2-14.3h-16.5l-5.2,14.4c-2.3,6.4-0.6,11.5,3,12.4h-7.8
				h-0.1h-7.8c3.5-0.9,9.2-5.5,11.7-12.4l14-38.5l-1.3-3.6h5.2l15.3,42.2C507.2,521.1,510.9,525.8,514.5,526.7z M493.8,498.8
				l-7.9-21.7l-7.9,21.7H493.8z"/>
		</g>
	</g>
	<g>
		<path class="st1" d="M514.5,526.7h-7.8h-0.1h-7.8c3.5-0.9,3-6,0.7-12.4l-5.2-14.3h-16.5l-5.2,14.4c-2.3,6.4-0.6,11.5,3,12.4h-7.8
			h-0.1h-7.8c3.5-0.9,9.2-5.5,11.7-12.4l14-38.5l-1.3-3.6h5.2l15.3,42.2C507.2,521.1,510.9,525.8,514.5,526.7z M493.8,498.8
			l-7.9-21.7l-7.9,21.7H493.8z"/>
	</g>
	<g>
		<defs>
			<rect id="SVGID_00000168827590173241559890000011873186619162308027_" x="69.4" y="129.4" width="877.7" height="893.4"/>
		</defs>
		<clipPath id="SVGID_00000018931042405483254200000012918530195117444999_">
			<use xlink:href="#SVGID_00000168827590173241559890000011873186619162308027_"  style="overflow:visible;"/>
		</clipPath>
		<g style="clip-path:url(#SVGID_00000018931042405483254200000012918530195117444999_);">
			<path class="st6" d="M561.7,580.2v-41.1h-9.6c-6.9,0-11.5,7.4-12.4,10.9l1.2-12h46.8l1.2,12c-0.9-3.5-5.5-10.9-12.4-10.9H567
				v41.1h0c0,6.9,1.8,11.5,5.3,12.4h-15.7C560,591.8,561.7,587.1,561.7,580.2L561.7,580.2z"/>
		</g>
	</g>
	<g>
		<path class="st1" d="M561.7,580.2v-41.1h-9.6c-6.9,0-11.5,7.4-12.4,10.9l1.2-12h46.8l1.2,12c-0.9-3.5-5.5-10.9-12.4-10.9H567v41.1
			h0c0,6.9,1.8,11.5,5.3,12.4h-15.7C560,591.8,561.7,587.1,561.7,580.2L561.7,580.2z"/>
	</g>
	<g>
		<defs>
			<rect id="SVGID_00000168103297810642484690000011723717772503362229_" x="69.4" y="129.4" width="877.7" height="893.4"/>
		</defs>
		<clipPath id="SVGID_00000021828480115908380970000017275908410091900835_">
			<use xlink:href="#SVGID_00000168103297810642484690000011723717772503362229_"  style="overflow:visible;"/>
		</clipPath>
		<g style="clip-path:url(#SVGID_00000021828480115908380970000017275908410091900835_);">
			<path class="st6" d="M664.8,627.4c0,15.6-12.6,28.2-28.2,28.2c-15.6,0-28.2-12.6-28.2-28.2c0-15.6,12.6-28.2,28.2-28.2
				C652.1,599.2,664.8,611.8,664.8,627.4z M656.7,618.2c-6.2-13.7-20.3-20.6-31.4-15.6c-11.1,5.1-15.1,20.2-8.9,33.9
				c6.2,13.7,20.3,20.6,31.4,15.6C658.9,647,662.9,631.8,656.7,618.2z M632.8,595.7h-1.1l2.5-9.7h7.2L632.8,595.7z"/>
		</g>
	</g>
	<g>
		<path class="st1" d="M664.8,627.4c0,15.6-12.6,28.2-28.2,28.2c-15.6,0-28.2-12.6-28.2-28.2c0-15.6,12.6-28.2,28.2-28.2
			C652.1,599.2,664.8,611.8,664.8,627.4z M656.7,618.2c-6.2-13.7-20.3-20.6-31.4-15.6c-11.1,5.1-15.1,20.2-8.9,33.9
			c6.2,13.7,20.3,20.6,31.4,15.6C658.9,647,662.9,631.8,656.7,618.2z M632.8,595.7h-1.1l2.5-9.7h7.2L632.8,595.7z"/>
	</g>
	<g>
		<defs>
			<rect id="SVGID_00000111150833447881893690000016413858825116767143_" x="69.4" y="129.4" width="877.7" height="893.4"/>
		</defs>
		<clipPath id="SVGID_00000078767935907205546020000004437760365998302120_">
			<use xlink:href="#SVGID_00000111150833447881893690000016413858825116767143_"  style="overflow:visible;"/>
		</clipPath>
		<g style="clip-path:url(#SVGID_00000078767935907205546020000004437760365998302120_);">
			<path class="st6" d="M691.2,697.4v8.8h0c0,6.9,1.8,11.5,5.3,12.4h-15.7c3.5-0.9,5.2-5.5,5.3-12.4h0v-29.7h0
				c0-6.9-1.8-11.5-5.3-12.4h9.5v0h11.1v0c15.6,0,26.6,4.1,25.7,16.1c-0.5,7.5-6.6,14-16.9,16.4l6.6,9.7h0
				c4.7,6.9,10.2,11.5,13.8,12.4h-7.8h0h-0.1h-7.8c3.4-0.9,1.2-5.9-2.8-11.9l-6.5-9.5c-1.3,0.1-2.7,0.2-4.2,0.2H691.2z M691.2,665.1
				v31.3h10.2c1.1,0,2.3-0.1,3.5-0.2l3.6-2.4l1,1.4c4-1.3,7.6-3.6,10.2-7.6c3.7-5.8,4.2-18.1-6.9-21.2c-3.6-1-7.4-1.3-11.3-1.3
				H691.2z"/>
		</g>
	</g>
	<g>
		<path class="st1" d="M691.2,697.4v8.8h0c0,6.9,1.8,11.5,5.3,12.4h-15.7c3.5-0.9,5.2-5.5,5.3-12.4h0v-29.7h0
			c0-6.9-1.8-11.5-5.3-12.4h9.5v0h11.1v0c15.6,0,26.6,4.1,25.7,16.1c-0.5,7.5-6.6,14-16.9,16.4l6.6,9.7h0
			c4.7,6.9,10.2,11.5,13.8,12.4h-7.8h0h-0.1h-7.8c3.4-0.9,1.2-5.9-2.8-11.9l-6.5-9.5c-1.3,0.1-2.7,0.2-4.2,0.2H691.2z M691.2,665.1
			v31.3h10.2c1.1,0,2.3-0.1,3.5-0.2l3.6-2.4l1,1.4c4-1.3,7.6-3.6,10.2-7.6c3.7-5.8,4.2-18.1-6.9-21.2c-3.6-1-7.4-1.3-11.3-1.3H691.2
			z"/>
	</g>
	<g>
		<defs>
			<rect id="SVGID_00000147214511420187138450000014821683833591655058_" x="69.4" y="129.4" width="877.7" height="893.4"/>
		</defs>
		<clipPath id="SVGID_00000127761783049383933940000009580203635070825646_">
			<use xlink:href="#SVGID_00000147214511420187138450000014821683833591655058_"  style="overflow:visible;"/>
		</clipPath>
		<g style="clip-path:url(#SVGID_00000127761783049383933940000009580203635070825646_);">
			<path class="st6" d="M764.2,740.5v29.7h0c0,6.9,1.8,11.5,5.3,12.4h-15.7c3.5-0.9,5.2-5.5,5.3-12.4h0v-29.7h0
				c0-6.9-1.8-11.5-5.3-12.4h15.7C766,728.9,764.2,733.6,764.2,740.5L764.2,740.5z"/>
		</g>
	</g>
	<g>
		<path class="st1" d="M764.2,740.5v29.7h0c0,6.9,1.8,11.5,5.3,12.4h-15.7c3.5-0.9,5.2-5.5,5.3-12.4h0v-29.7h0
			c0-6.9-1.8-11.5-5.3-12.4h15.7C766,728.9,764.2,733.6,764.2,740.5L764.2,740.5z"/>
	</g>
	<g>
		<defs>
			<rect id="SVGID_00000048482042979490690370000009875550968452886699_" x="69.4" y="129.4" width="877.7" height="893.4"/>
		</defs>
		<clipPath id="SVGID_00000048462260112406384910000012112631548839200655_">
			<use xlink:href="#SVGID_00000048482042979490690370000009875550968452886699_"  style="overflow:visible;"/>
		</clipPath>
		<g style="clip-path:url(#SVGID_00000048462260112406384910000012112631548839200655_);">
			<path class="st6" d="M819.1,852.6c-15.6,0-28.2-12.6-28.2-28.2s12.6-28.2,28.2-28.2c15.6,0,28.2,12.6,28.2,28.2
				S834.6,852.6,819.1,852.6z M830.3,849.1c11.1-5.1,15.1-20.2,8.9-33.9c-6.2-13.7-20.3-20.6-31.4-15.6
				c-11.1,5.1-15.1,20.2-8.9,33.9C805.2,847.2,819.2,854.1,830.3,849.1z"/>
		</g>
	</g>
	<g>
		<path class="st1" d="M819.1,852.6c-15.6,0-28.2-12.6-28.2-28.2s12.6-28.2,28.2-28.2c15.6,0,28.2,12.6,28.2,28.2
			S834.6,852.6,819.1,852.6z M830.3,849.1c11.1-5.1,15.1-20.2,8.9-33.9c-6.2-13.7-20.3-20.6-31.4-15.6c-11.1,5.1-15.1,20.2-8.9,33.9
			C805.2,847.2,819.2,854.1,830.3,849.1z"/>
	</g>
	<g>
		<defs>
			<rect id="SVGID_00000116225995606120812820000011416102811403384706_" x="69.4" y="129.4" width="877.7" height="893.4"/>
		</defs>
		<clipPath id="SVGID_00000000924180336477054170000006501035922703532194_">
			<use xlink:href="#SVGID_00000116225995606120812820000011416102811403384706_"  style="overflow:visible;"/>
		</clipPath>
	</g>
</g>
</svg>
