<svg width="746" height="992" viewBox="0 0 746 992" fill="none" xmlns="http://www.w3.org/2000/svg">
<path d="M36.43 874.126L94.62 791.016L74.76 777.106L0 883.866L153.53 991.366L170.09 967.716L102.84 920.626L158.63 840.956L139.17 827.336L83.38 907.006L36.42 874.126H36.43ZM177.96 629.726L161.4 653.376L256.25 719.796C286.58 741.036 288.33 762.976 271.24 787.386C254.15 811.796 232.93 817.656 202.6 796.416L107.75 729.996L91.19 753.646L188.43 821.736C227.77 849.286 266.87 836.786 291.53 801.586C316.18 766.376 314.55 725.356 275.21 697.816L177.97 629.736L177.96 629.726ZM322.43 513.556C288.2 500.706 257.55 508.776 233.9 542.546C211.62 574.366 211.68 610.426 238.24 629.026C266.66 648.926 288.85 634.256 307.84 617.656L334.34 594.456C349.54 581.006 362.02 571.736 378.23 583.086C394.09 594.196 393.62 615.216 379.08 635.986C364.27 657.136 342.78 670.296 314.71 655.586L300.61 680.696C337.3 698.296 371.76 686.976 397.84 649.736C420.82 616.916 424.51 579.606 394.46 558.566C360.95 535.106 339.1 553.186 317 572.486L292.42 594.676C279.45 606.276 267.65 613.736 254.49 604.516C240.61 594.796 239.1 575.656 252.8 556.096C266.38 536.706 285.6 529.096 307.76 538.546L322.43 513.556V513.556Z" fill="black"/>
<path d="M400.97 514.806C391.05 514.806 382.36 512.256 375.03 507.116C350.36 489.836 347.95 448.246 368.06 386.836C386.39 330.876 421.52 264.296 466.98 199.356C512.45 134.426 563 78.6363 609.31 42.2763C660.14 2.37633 700.06 -9.58367 724.72 7.68633C749.39 24.9663 751.8 66.5563 731.69 127.966C713.36 183.926 678.23 250.506 632.77 315.446C587.3 380.376 536.75 436.166 490.44 472.526C454.73 500.556 424.4 514.806 400.97 514.806V514.806ZM698.69 25.1863C692.5 25.1863 685.78 26.9463 680.25 28.8863C664.69 34.3563 645.53 45.8263 624.85 62.0663C580.42 96.9363 531.68 150.826 487.59 213.786C443.5 276.746 409.54 340.986 391.97 394.656C383.79 419.646 379.56 441.566 379.74 458.066C379.85 468.006 381.63 481.016 389.46 486.496C397.29 491.976 410.12 489.206 419.5 485.906C435.06 480.436 454.22 468.966 474.9 452.726C519.33 417.856 568.07 363.966 612.16 301.006C656.25 238.046 690.21 173.806 707.78 120.136C715.96 95.1463 720.19 73.2263 720.01 56.7263C719.9 46.7863 718.12 33.7763 710.29 28.2963C707.07 26.0463 703.01 25.1863 698.69 25.1863V25.1863Z" fill="#040405"/>
</svg>
