<svg width="136" height="137" viewBox="0 0 136 137" fill="none" xmlns="http://www.w3.org/2000/svg">
<g clip-path="url(#clip0_249_823)">
<path d="M68 135.2L62.7 134.9L57.5 134L52.3 133.3L47.4 131.5L42.3 130.1L37.7 127.6L32.9 125.4L28.6 122.4L24.3 119.3L20.7 115.5L16.9 111.8L13.6 107.7L10.7 103.3L8.7 98.4L6 93.9L4.2 88.9L2.7 83.9L2 78.5L1.4 73.3L1 68.1L1.7 62.9V57.6L2.9 52.5L4.3 47.4L6.2 42.5L8.6 37.8L11.2 33.3L14.2 29L17.1 24.6L20.6 20.7L24.5 17.1L28.8 14L33 10.8L37.8 8.6L42.4 6L47.5 4.6L52.4 2.7L57.7 2.2L62.9 1.6L68 1L73.3 1.1L78.5 1.6L83.6 3.1L88.7 4.4L93.5 6.5L98.4 8.4L102.9 11.1L107.4 13.8L111.4 17.2L115.5 20.5L118.6 24.7L122.1 28.6L124.8 33.1L127.5 37.6L129.8 42.3L131.7 47.2L132.7 52.4L133.9 57.5L134.6 62.7V68L134.7 73.3L134 78.5L133.2 83.7L131.7 88.8L129.5 93.6L127.6 98.5L125.1 103.1L122.2 107.5L118.9 111.6L115.3 115.5L111.1 118.7L107.1 122.1L102.7 124.9L98.2 127.6L93.4 129.8L88.5 131.6L83.4 132.8L78.3 133.9L73.1 134.6L68 135.2ZM68 9.4L62.9 9.5L57.8 9.9L52.8 11.3L47.8 12.5L43.2 14.9L38.5 17L34.4 20L30.3 23L26.7 26.7L23 30.2L20 34.5L17.3 38.8L14.9 43.3L12.4 47.8L11.4 52.9L10.2 57.9L9.6 63L9.1 68.1L9.3 73.2L10.1 78.3L10.7 83.4L12.8 88.1L14.6 92.9L17 97.4L19.7 101.8L22.7 106L26.1 109.8L29.8 113.4L34.2 116.2L38.5 118.9L43 121.3L47.6 123.5L52.6 124.7L57.5 126.3L62.6 126.5L67.7 127.1L72.8 126.4L78 126.2L83 125.1L87.8 123.2L92.5 121.2L97 118.8L101.6 116.5L105.6 113.2L109.6 109.9L112.9 105.9L116.1 101.9L118.6 97.4L121.2 93L122.8 88.1L124.9 83.4L125.7 78.3L126.6 73.2V68.1L126.3 63L125.6 57.9L124.9 52.8L123.2 48L121.2 43.3L119 38.6L116 34.4L112.9 30.3L109.3 26.7L105.6 23.2L101.8 19.7L97.3 17.2L92.7 14.9L88.1 13L83.3 11.4L78.3 10.3L73.3 9.2L68 9.4Z" fill="black"/>
<path d="M68 135.2L62.7 134.9L57.5 134L52.3 133.3L47.4 131.5L42.3 130.1L37.7 127.6L32.9 125.4L28.6 122.4L24.3 119.3L20.7 115.5L16.9 111.8L13.6 107.7L10.7 103.3L8.7 98.4L6 93.9L4.2 88.9L2.7 83.9L2 78.5L1.4 73.3L1 68.1L1.7 62.9V57.6L2.9 52.5L4.3 47.4L6.2 42.5L8.6 37.8L11.2 33.3L14.2 29L17.1 24.6L20.6 20.7L24.5 17.1L28.8 14L33 10.8L37.8 8.6L42.4 6L47.5 4.6L52.4 2.7L57.7 2.2L62.9 1.6L68 1L73.3 1.1L78.5 1.6L83.6 3.1L88.7 4.4L93.5 6.5L98.4 8.4L102.9 11.1L107.4 13.8L111.4 17.2L115.5 20.5L118.6 24.7L122.1 28.6L124.8 33.1L127.5 37.6L129.8 42.3L131.7 47.2L132.7 52.4L133.9 57.5L134.6 62.7V68L134.7 73.3L134 78.5L133.2 83.7L131.7 88.8L129.5 93.6L127.6 98.5L125.1 103.1L122.2 107.5L118.9 111.6L115.3 115.5L111.1 118.7L107.1 122.1L102.7 124.9L98.2 127.6L93.4 129.8L88.5 131.6L83.4 132.8L78.3 133.9L73.1 134.6L68 135.2ZM68 9.4L62.9 9.5L57.8 9.9L52.8 11.3L47.8 12.5L43.2 14.9L38.5 17L34.4 20L30.3 23L26.7 26.7L23 30.2L20 34.5L17.3 38.8L14.9 43.3L12.4 47.8L11.4 52.9L10.2 57.9L9.6 63L9.1 68.1L9.3 73.2L10.1 78.3L10.7 83.4L12.8 88.1L14.6 92.9L17 97.4L19.7 101.8L22.7 106L26.1 109.8L29.8 113.4L34.2 116.2L38.5 118.9L43 121.3L47.6 123.5L52.6 124.7L57.5 126.3L62.6 126.5L67.7 127.1L72.8 126.4L78 126.2L83 125.1L87.8 123.2L92.5 121.2L97 118.8L101.6 116.5L105.6 113.2L109.6 109.9L112.9 105.9L116.1 101.9L118.6 97.4L121.2 93L122.8 88.1L124.9 83.4L125.7 78.3L126.6 73.2V68.1L126.3 63L125.6 57.9L124.9 52.8L123.2 48L121.2 43.3L119 38.6L116 34.4L112.9 30.3L109.3 26.7L105.6 23.2L101.8 19.7L97.3 17.2L92.7 14.9L88.1 13L83.3 11.4L78.3 10.3L73.3 9.2L68 9.4Z" stroke="white" stroke-width="2" stroke-miterlimit="10"/>
<path d="M68 5.20001C102.7 5.20001 130.9 33.4 130.9 68.1C130.9 102.8 102.7 131 68 131C45 131 25 118.7 14 100.3" stroke="white" stroke-width="8" stroke-linecap="round" stroke-linejoin="round"/>
</g>
<defs>
<clipPath id="clip0_249_823">
<rect width="135.9" height="136.2" fill="white"/>
</clipPath>
</defs>
</svg>
