<svg width="141" height="67" viewBox="0 0 141 67" fill="none" xmlns="http://www.w3.org/2000/svg">
<path d="M28.2067 40.4549L26.7528 41.5935C24.8838 43.0903 23.8449 44.9009 23.8449 47.7417C23.8449 52.0821 27.1678 53.6844 30.3347 53.6844C36.2534 53.6844 41.3951 49.3968 41.3951 45.0564C41.3951 42.8848 40.0024 40.8715 35.5264 40.716L28.2067 40.4549ZM31.0616 27.0755C31.0616 30.4412 32.6186 31.4242 35.2145 31.4242C39.8353 31.4242 41.8992 25.2121 41.8992 21.2244C41.8992 18.1697 40.1333 17.1867 37.8494 17.1867C33.5907 17.1867 31.0477 23.5543 31.0477 27.0755H31.0616ZM30.7413 0L18.94 32.821C18.3161 34.5816 17.798 36.3422 17.798 37.6363C17.798 38.4694 18.266 38.9831 19.096 38.9831C21.1571 38.9831 22.6361 36.9226 23.402 35.5369C23.6109 33.7208 24.7279 32.2601 27.0536 31.0104L28.9754 29.9746C28.0925 28.9388 27.4184 27.853 27.4184 25.9369C27.4184 20.9661 33.3372 16.4619 38.0026 16.4619C41.4285 16.4619 43.5063 18.3252 44.2862 19.7248C45.1218 18.4835 46.105 16.9812 48.2831 16.9812C50.1019 16.9812 51.6589 18.3697 51.6589 20.1914C51.6589 21.4354 50.9848 22.313 49.4306 22.313C48.4948 22.313 47.7177 21.7437 47.7177 21.0189C47.7177 19.7776 48.7566 19.9331 48.7566 18.5335C48.7566 18.1197 48.3917 17.7004 47.7706 17.7004C46.6815 17.7004 45.5424 18.8917 44.7597 20.4441C45.1747 21.0133 45.5396 22.2574 45.5396 23.1377C45.5396 27.5392 39.7768 32.1462 35.2061 32.1462C32.0393 32.1462 30.4711 31.1104 29.5993 30.5411L28.5103 31.0577C26.3294 32.0935 25.1345 33.4403 25.1345 34.6816C25.1345 36.1839 26.6413 36.856 29.8695 37.0642L36.5152 37.378C40.618 37.5863 43.4785 39.1497 43.4785 43.193C43.4785 47.8444 38.7017 54.4092 30.4461 54.4092C24.9925 54.4092 20.419 51.3073 20.419 47.9472C20.419 44.6398 24.0009 42.0045 25.7668 41.0742L27.2207 40.2966C25.9757 39.9606 23.7586 39.4913 23.4215 36.8893C22.3074 38.4166 20.5694 40.0162 18.0181 40.0162C15.7341 40.0162 14.5922 38.9304 14.5922 36.8587C14.6487 35.8721 14.8361 34.8972 15.1492 33.9596H15.0462C13.1772 36.2895 10.0605 40.0162 5.59566 40.0162C2.75187 40.0189 0 37.9473 0 33.3931C0 25.0066 10.9044 16.4536 16.2522 16.4536C18.33 16.4536 19.9901 17.7476 19.9901 19.6637H20.0931L26.8447 0.72479H22.2824L22.4829 0H30.7413ZM15.7843 31.527L18.5361 23.9153C19.3717 21.6937 19.5221 21.0161 19.5221 20.3441C19.5221 19.1528 18.9651 17.1867 16.5112 17.1867C9.60648 17.1867 3.62088 29.7691 3.62088 35.5675C3.62088 37.789 4.40077 39.2942 6.42568 39.2942C10.4254 39.2942 15.0991 33.4458 15.7731 31.5186L15.7843 31.527Z" fill="black"/>
<path d="M75.4063 28.0946V20.358H79.2054C81.7484 20.358 83.2942 21.4688 83.2942 24.1458C83.2942 26.97 81.6537 28.0946 79.4951 28.0946H75.4063ZM71.3035 39.6163H75.4258V30.855H78.0969L83.6675 39.6163H88.3356L82.0576 30.3718C85.3999 29.9219 87.4025 27.2255 87.4025 24.0153C87.4025 19.8109 84.4418 17.4672 79.8822 17.4672H71.3035V39.6135V39.6163ZM48.2664 39.6163H52.0321L54.0765 33.6014H62.8335L64.8305 39.6024H69.1115L61.2542 17.245H56.2629L48.2775 39.6163H48.2664ZM55.0597 30.5328L57.5386 23.2155L58.3436 20.3275H58.4912L59.2627 23.1516L61.7695 30.5328H55.0597ZM95.4827 39.6163H99.5715V20.4857H106.237V17.4699H88.7673V20.5246H95.4966V39.6219L95.4827 39.6163ZM108.852 39.6163H123.244V36.5339H112.991V29.6664H121.3V26.6117H112.991V20.5024H122.971V17.4477H108.872V39.5941L108.852 39.6163ZM132.611 40.0967C136.858 40.0967 140.98 37.8501 140.98 33.0599C140.98 30.1968 139.209 28.339 135.83 27.0783L132.644 25.8564C130.859 25.1816 129.516 24.4374 129.516 22.7045C129.516 20.9717 131.093 20.0692 133.154 20.0692C135.178 20.0706 137.174 20.5462 138.981 21.4577L140.429 18.4391C138.758 17.6699 136.663 17.0256 133.41 17.0256C128.227 17.0256 125.586 19.9137 125.586 23.4821C125.586 26.5368 128.093 28.4806 130.221 29.2721L133.343 30.4634C135.051 31.1077 136.789 31.9102 136.789 33.8402C136.789 36.1562 134.599 37.0865 132.508 37.0865C130.157 37.0865 128.065 36.2534 126.196 35.3509L124.556 38.3694C126.784 39.719 129.547 40.1023 132.633 40.1023L132.611 40.0967Z" fill="black"/>
<path d="M134.864 56.4392H140.844V54.3009C140.443 55.5311 139.816 56.3031 138.672 56.3031H136.928V49.6384H138.014V49.5023H134.864V49.6384H135.95V56.3031H134.864V56.4392ZM131.566 53.4623H129.413L130.491 50.6159L131.569 53.4623H131.566ZM127.308 56.4392H129.413V56.3031H128.327L129.355 53.5983H131.628L132.655 56.3031H131.569V56.4392H134.586V56.3031H133.714L131.051 49.3162H130.817L128.174 56.3031H127.313V56.4392H127.308ZM122.609 49.6245C122.776 49.6051 123.04 49.5939 123.274 49.5939C123.96 49.5939 124.734 49.7606 124.734 51.1268C124.734 52.3265 124.235 52.6403 123.508 52.6403H122.609V49.6245ZM120.542 56.4364H123.695V56.3003H122.609V52.7791H123.586C124.038 52.7791 124.879 52.8097 124.979 54.1149L125.049 55.0035C125.127 55.9893 125.4 56.5058 126.441 56.5058C126.594 56.5227 126.749 56.5091 126.897 56.4657C127.045 56.4223 127.182 56.35 127.302 56.2531C127.068 56.2809 126.873 56.3503 126.706 56.3503C126.324 56.3503 126.188 56.0282 126.11 55.6866C126.012 55.2368 126.051 54.3203 125.904 53.8122C125.648 52.9235 124.511 52.7375 124.082 52.6792C125.6 52.4653 125.806 51.4878 125.806 51.1074C125.801 50.8701 125.742 50.6371 125.634 50.4259C125.525 50.2147 125.37 50.0309 125.18 49.8883C124.67 49.4884 124.102 49.4579 123.338 49.4579H122.868C122.712 49.4579 122.556 49.4773 122.397 49.4773H120.536V49.6134H121.623V56.2781H120.536V56.4142L120.542 56.4364ZM113.651 56.4364H119.623V54.2981C119.436 54.8924 118.996 56.3003 117.567 56.3003H115.718V52.7791H116.512C117.453 52.7791 117.609 53.4928 117.785 54.2426L117.89 51.2074C117.501 52.3792 117.225 52.6431 116.353 52.6431H115.718V49.6245H117.342C118.42 49.6245 118.81 50.1604 119.144 51.1768L119.25 49.4884H113.64V49.6245H114.726V56.2892H113.64V56.4253L113.651 56.4364ZM113.142 53.8122H110.156V53.9482H111.412V54.7813C111.419 55.004 111.38 55.2256 111.297 55.4325C111.214 55.6393 111.089 55.8269 110.93 55.9833C110.771 56.1398 110.582 56.2618 110.373 56.3417C110.164 56.4215 109.942 56.4576 109.718 56.4475C109.053 56.4475 108.691 56.3309 108.298 55.9782C107.604 55.3534 107.437 54.1621 107.437 52.9818C107.437 51.2546 107.78 49.4495 109.727 49.4495C111.362 49.4495 111.771 50.7686 111.88 51.4406L111.988 49.4968H111.841C111.796 49.5678 111.732 49.6251 111.656 49.6623C111.58 49.6995 111.496 49.7153 111.412 49.7078C110.933 49.7078 110.746 49.3274 109.741 49.3274C109.31 49.3271 108.884 49.4144 108.488 49.5839C108.093 49.7534 107.736 50.0016 107.44 50.3132C107.081 50.6609 106.796 51.0783 106.605 51.5396C106.413 52.0009 106.318 52.4965 106.326 52.9957C106.329 53.4896 106.431 53.9779 106.626 54.4319C106.822 54.8859 107.106 55.2964 107.462 55.6394C107.75 55.9514 108.102 56.1984 108.493 56.3637C108.885 56.5289 109.307 56.6086 109.732 56.5975C110.966 56.5975 111.387 55.9921 111.858 55.9921C111.934 55.9851 112.01 55.9987 112.079 56.0314C112.149 56.0642 112.208 56.1148 112.25 56.1781H112.367V53.9566H113.15V53.8205L113.142 53.8122ZM96.491 52.9541C96.491 51.1574 96.8615 49.4495 98.7722 49.4495C100.683 49.4495 101.053 51.1574 101.053 52.9541C101.053 55.2951 100.457 56.4475 98.7722 56.4475C97.0871 56.4475 96.491 55.2951 96.491 52.9541ZM95.3769 52.9541C95.3769 54.8369 96.8169 56.5864 98.7833 56.5864C100.691 56.5864 102.19 54.7813 102.19 52.9541C102.19 50.8741 100.519 49.3135 98.7833 49.3135C97.179 49.3135 95.3769 50.8741 95.3769 52.9541ZM92.7504 47.8195C92.7032 47.9539 92.6177 48.0717 92.5045 48.1585C92.3912 48.2453 92.255 48.2973 92.1126 48.3082C91.8757 48.282 91.6481 48.2022 91.4469 48.0749C91.2397 47.9554 91.0104 47.8789 90.7728 47.85C90.3912 47.85 89.9372 48.2221 89.8342 48.8164H89.9707C90.0065 48.6837 90.0856 48.5666 90.1956 48.4836C90.3055 48.4007 90.44 48.3565 90.5779 48.3582C90.7984 48.3818 91.0098 48.459 91.1934 48.5831C91.4039 48.7208 91.6468 48.8013 91.8981 48.8164C92.6334 48.8164 92.8674 47.9583 92.8869 47.8195H92.7504ZM91.9761 53.4623H89.823L90.9009 50.6159L91.9789 53.4623H91.9761ZM87.7369 56.4392H89.8425V56.3031H88.7563L89.784 53.5983H92.0541L93.0818 56.3031H91.9956V56.4392H95.0093V56.3031H94.143L91.4803 49.3162H91.2463L88.6031 56.3031H87.7369V56.4392ZM87.3943 54.3592C87.021 55.3534 86.7286 56.4475 84.985 56.4475C83.6341 56.4475 82.7038 55.7255 82.7038 52.9818C82.7038 51.5184 82.8988 49.4495 84.985 49.4495C86.4835 49.4495 86.9124 50.4465 87.1492 51.4406L87.2578 49.4968H87.1102C87.0632 49.5663 86.9984 49.6221 86.9224 49.6583C86.8465 49.6944 86.7623 49.7096 86.6784 49.7022C86.2857 49.7022 85.8846 49.3218 85.0741 49.3218C84.3009 49.2908 83.5458 49.5607 82.9684 50.0744C82.5591 50.4047 82.2244 50.8176 81.9864 51.286C81.7484 51.7544 81.6125 52.2677 81.5875 52.7922C81.5625 53.3167 81.6491 53.8405 81.8414 54.3293C82.0338 54.8181 82.3277 55.2608 82.7038 55.6283C83.2487 56.1855 83.9806 56.5227 84.7594 56.5752L84.155 57.2056L84.2914 57.3528C84.399 57.2633 84.5331 57.2116 84.673 57.2056C85.0351 57.2056 85.1326 57.5194 85.1326 57.8499C85.1326 58.1803 85.0546 58.6219 84.634 58.6219C84.3974 58.6142 84.1701 58.5282 83.9878 58.3775L83.9099 58.4941C84.1205 58.6747 84.387 58.7777 84.6647 58.7857C84.7943 58.7968 84.9247 58.7811 85.048 58.7397C85.1712 58.6983 85.2846 58.632 85.381 58.545C85.4775 58.458 85.5549 58.3521 85.6085 58.2339C85.662 58.1158 85.6906 57.9879 85.6924 57.8582C85.6989 57.7492 85.6829 57.6399 85.6456 57.5372C85.6082 57.4345 85.5502 57.3405 85.4751 57.261C85.4 57.1814 85.3093 57.118 85.2088 57.0746C85.1082 57.0311 84.9999 57.0086 84.8903 57.0085C84.72 57.0004 84.5517 57.0482 84.4112 57.1445L84.9209 56.5586C85.8902 56.5586 86.4194 56.217 86.801 56.217C86.8844 56.2132 86.9674 56.23 87.0427 56.2658C87.118 56.3017 87.1833 56.3555 87.2327 56.4225H87.3803V54.3426L87.3943 54.3592ZM80.3252 54.3592C79.9547 55.3534 79.6595 56.4475 77.9159 56.4475C76.565 56.4475 75.6347 55.7255 75.6347 52.9818C75.6347 51.5184 75.8297 49.4495 77.9159 49.4495C79.4144 49.4495 79.8433 50.4465 80.0801 51.4406L80.1887 49.4968H80.0411C79.9941 49.5663 79.9293 49.6221 79.8534 49.6583C79.7774 49.6944 79.6932 49.7096 79.6094 49.7022C79.2166 49.7022 78.8156 49.3218 78.005 49.3218C76.008 49.3218 74.5095 51.038 74.5095 52.9902C74.5067 53.483 74.6039 53.9713 74.7954 54.4256C74.9869 54.88 75.2686 55.291 75.6236 55.6339C75.9227 55.9397 76.2806 56.1822 76.6759 56.3468C77.0713 56.5114 77.4958 56.5948 77.9243 56.5919C78.8239 56.5919 79.3531 56.242 79.7347 56.242C79.8181 56.2382 79.9011 56.2549 79.9764 56.2908C80.0517 56.3266 80.117 56.3805 80.1664 56.4475H80.314V54.3676L80.3252 54.3592ZM67.1591 56.4392H73.1308V54.3009C72.9442 54.8952 72.5041 56.3031 71.0752 56.3031H69.2258V52.7791H70.0196C70.9582 52.7791 71.117 53.4928 71.2925 54.2426L71.4011 51.2074C71.0084 52.3792 70.7354 52.6431 69.8636 52.6431H69.2286V49.6245H70.8524C71.9303 49.6245 72.3202 50.1604 72.6545 51.1768L72.7631 49.4884H67.1647V49.6245H68.2398V56.2892H67.1535V56.4253L67.1591 56.4392ZM62.1456 49.6273C62.3127 49.6078 62.5773 49.5967 62.8112 49.5967C63.4964 49.5967 64.2707 49.7633 64.2707 51.1296C64.2707 52.3293 63.7722 52.6431 63.048 52.6431H62.1483V49.6245L62.1456 49.6273ZM60.0789 56.4392H63.2263V56.3031H62.14V52.7791H63.1176C63.5688 52.7791 64.41 52.8097 64.5103 54.1149L64.5799 55.0035C64.6579 55.9893 64.9336 56.5058 65.9726 56.5058C66.1256 56.5226 66.2805 56.5088 66.4283 56.4655C66.576 56.4221 66.7136 56.3499 66.8332 56.2531C66.5992 56.2809 66.4015 56.3503 66.2372 56.3503C65.8556 56.3503 65.7191 56.0282 65.6411 55.6866C65.5436 55.2368 65.5826 54.3203 65.435 53.8122C65.1815 52.9235 64.0423 52.7375 63.6134 52.6792C65.1314 52.4653 65.3375 51.4878 65.3375 51.1074C65.3325 50.8701 65.2735 50.6371 65.1649 50.4259C65.0564 50.2147 64.9011 50.0309 64.7108 49.8883C64.2011 49.4884 63.6329 49.4579 62.8697 49.4579H62.399C62.243 49.4579 62.0871 49.4773 61.9283 49.4773H60.0677V49.6134H61.154V56.2781H60.0677V56.4142L60.0789 56.4392ZM56.3104 56.4392H59.4661V56.3031H58.3798V49.6384H59.4661V49.5023H56.3159V49.6384H57.4022V56.3031H56.3159V56.4392H56.3104ZM50.3721 49.6245C50.6172 49.6245 50.8818 49.5939 51.2077 49.5939C53.3997 49.5939 54.1156 50.9408 54.1156 53.0013C54.1513 53.7995 53.9581 54.5914 53.5585 55.284C53.0014 56.2004 52.138 56.3392 51.2495 56.3392C50.8958 56.3392 50.6033 56.3198 50.3777 56.3003V49.6356L50.3721 49.6245ZM48.3054 56.4364H49.9766L50.6117 56.4558L51.2578 56.4753C52.177 56.4753 52.5892 56.4447 53.2243 56.1726C54.3384 55.695 55.2408 54.6702 55.2408 52.9624C55.2408 51.4878 54.5445 50.1993 52.9513 49.6828C52.3949 49.5049 51.8108 49.4287 51.2272 49.4579H50.6701C50.4835 49.4579 50.3081 49.4773 50.1131 49.4773H48.2915V49.6134H49.3778V56.2781H48.2915V56.4142L48.3054 56.4364ZM103.385 54.5314H105.164V53.901H103.385V54.5342V54.5314Z" fill="black"/>
<path d="M134.864 56.4392H140.844V54.3009C140.443 55.5311 139.816 56.3031 138.672 56.3031H136.928V49.6384H138.014V49.5023H134.864V49.6384H135.95V56.3031H134.864V56.4392ZM131.566 53.4623H129.413L130.491 50.6159L131.569 53.4623H131.566ZM127.308 56.4392H129.413V56.3031H128.327L129.355 53.5983H131.628L132.655 56.3031H131.569V56.4392H134.586V56.3031H133.714L131.051 49.3162H130.817L128.174 56.3031H127.313V56.4392H127.308ZM122.609 49.6245C122.776 49.6051 123.04 49.5939 123.274 49.5939C123.96 49.5939 124.734 49.7606 124.734 51.1268C124.734 52.3265 124.235 52.6403 123.508 52.6403H122.609V49.6245ZM120.542 56.4364H123.695V56.3003H122.609V52.7791H123.586C124.038 52.7791 124.879 52.8097 124.979 54.1149L125.049 55.0035C125.127 55.9893 125.4 56.5058 126.441 56.5058C126.594 56.5227 126.749 56.5091 126.897 56.4657C127.045 56.4223 127.182 56.35 127.302 56.2531C127.068 56.2809 126.873 56.3503 126.706 56.3503C126.324 56.3503 126.188 56.0282 126.11 55.6866C126.012 55.2368 126.051 54.3203 125.904 53.8122C125.648 52.9235 124.511 52.7375 124.082 52.6792C125.6 52.4653 125.806 51.4878 125.806 51.1074C125.801 50.8701 125.742 50.6371 125.634 50.4259C125.525 50.2147 125.37 50.0309 125.18 49.8883C124.67 49.4884 124.102 49.4579 123.338 49.4579H122.868C122.712 49.4579 122.556 49.4773 122.397 49.4773H120.536V49.6134H121.623V56.2781H120.536V56.4142L120.542 56.4364ZM113.651 56.4364H119.623V54.2981C119.436 54.8924 118.996 56.3003 117.567 56.3003H115.718V52.7791H116.512C117.453 52.7791 117.609 53.4928 117.785 54.2426L117.89 51.2074C117.501 52.3792 117.225 52.6431 116.353 52.6431H115.718V49.6245H117.342C118.42 49.6245 118.81 50.1604 119.144 51.1768L119.25 49.4884H113.64V49.6245H114.726V56.2892H113.64V56.4253L113.651 56.4364ZM113.142 53.8122H110.156V53.9482H111.412V54.7813C111.419 55.004 111.38 55.2256 111.297 55.4325C111.214 55.6393 111.089 55.8269 110.93 55.9833C110.771 56.1398 110.582 56.2618 110.373 56.3417C110.164 56.4215 109.942 56.4576 109.718 56.4475C109.053 56.4475 108.691 56.3309 108.298 55.9782C107.604 55.3534 107.437 54.1621 107.437 52.9818C107.437 51.2546 107.78 49.4495 109.727 49.4495C111.362 49.4495 111.771 50.7686 111.88 51.4406L111.988 49.4968H111.841C111.796 49.5678 111.732 49.6251 111.656 49.6623C111.58 49.6995 111.496 49.7153 111.412 49.7078C110.933 49.7078 110.746 49.3274 109.741 49.3274C109.31 49.3271 108.884 49.4144 108.488 49.5839C108.093 49.7534 107.736 50.0016 107.44 50.3132C107.081 50.6609 106.796 51.0783 106.605 51.5396C106.413 52.0009 106.318 52.4965 106.326 52.9957C106.329 53.4896 106.431 53.9779 106.626 54.4319C106.822 54.8859 107.106 55.2964 107.462 55.6394C107.75 55.9514 108.102 56.1984 108.493 56.3637C108.885 56.5289 109.307 56.6086 109.732 56.5975C110.966 56.5975 111.387 55.9921 111.858 55.9921C111.934 55.9851 112.01 55.9987 112.079 56.0314C112.149 56.0642 112.208 56.1148 112.25 56.1781H112.367V53.9566H113.15V53.8205L113.142 53.8122ZM96.491 52.9541C96.491 51.1574 96.8615 49.4495 98.7722 49.4495C100.683 49.4495 101.053 51.1574 101.053 52.9541C101.053 55.2951 100.457 56.4475 98.7722 56.4475C97.0871 56.4475 96.491 55.2951 96.491 52.9541ZM95.3769 52.9541C95.3769 54.8369 96.8169 56.5864 98.7833 56.5864C100.691 56.5864 102.19 54.7813 102.19 52.9541C102.19 50.8741 100.519 49.3135 98.7833 49.3135C97.179 49.3135 95.3769 50.8741 95.3769 52.9541ZM92.7504 47.8195C92.7032 47.9539 92.6177 48.0717 92.5045 48.1585C92.3912 48.2453 92.255 48.2973 92.1126 48.3082C91.8757 48.282 91.6481 48.2022 91.4469 48.0749C91.2397 47.9554 91.0104 47.8789 90.7728 47.85C90.3912 47.85 89.9372 48.2221 89.8342 48.8164H89.9707C90.0065 48.6837 90.0856 48.5666 90.1956 48.4836C90.3055 48.4007 90.44 48.3565 90.5779 48.3582C90.7984 48.3818 91.0098 48.459 91.1934 48.5831C91.4039 48.7208 91.6468 48.8013 91.8981 48.8164C92.6334 48.8164 92.8674 47.9583 92.8869 47.8195H92.7504ZM91.9761 53.4623H89.823L90.9009 50.6159L91.9789 53.4623H91.9761ZM87.7369 56.4392H89.8425V56.3031H88.7563L89.784 53.5983H92.0541L93.0818 56.3031H91.9956V56.4392H95.0093V56.3031H94.143L91.4803 49.3162H91.2463L88.6031 56.3031H87.7369V56.4392ZM87.3943 54.3592C87.021 55.3534 86.7286 56.4475 84.985 56.4475C83.6341 56.4475 82.7038 55.7255 82.7038 52.9818C82.7038 51.5184 82.8988 49.4495 84.985 49.4495C86.4835 49.4495 86.9124 50.4465 87.1492 51.4406L87.2578 49.4968H87.1102C87.0632 49.5663 86.9984 49.6221 86.9224 49.6583C86.8465 49.6944 86.7623 49.7096 86.6784 49.7022C86.2857 49.7022 85.8846 49.3218 85.0741 49.3218C84.3009 49.2908 83.5458 49.5607 82.9684 50.0744C82.5591 50.4047 82.2244 50.8176 81.9864 51.286C81.7484 51.7544 81.6125 52.2677 81.5875 52.7922C81.5625 53.3167 81.6491 53.8405 81.8414 54.3293C82.0338 54.8181 82.3277 55.2608 82.7038 55.6283C83.2487 56.1855 83.9806 56.5227 84.7594 56.5752L84.155 57.2056L84.2914 57.3528C84.399 57.2633 84.5331 57.2116 84.673 57.2056C85.0351 57.2056 85.1326 57.5194 85.1326 57.8499C85.1326 58.1803 85.0546 58.6219 84.634 58.6219C84.3974 58.6142 84.1701 58.5282 83.9878 58.3775L83.9099 58.4941C84.1205 58.6747 84.387 58.7777 84.6647 58.7857C84.7943 58.7968 84.9247 58.7811 85.048 58.7397C85.1712 58.6983 85.2846 58.632 85.381 58.545C85.4775 58.458 85.5549 58.3521 85.6085 58.2339C85.662 58.1158 85.6906 57.9879 85.6924 57.8582C85.6989 57.7492 85.6829 57.6399 85.6456 57.5372C85.6082 57.4345 85.5502 57.3405 85.4751 57.261C85.4 57.1814 85.3093 57.118 85.2088 57.0746C85.1082 57.0311 84.9999 57.0086 84.8903 57.0085C84.72 57.0004 84.5517 57.0482 84.4112 57.1445L84.9209 56.5586C85.8902 56.5586 86.4194 56.217 86.801 56.217C86.8844 56.2132 86.9674 56.23 87.0427 56.2658C87.118 56.3017 87.1833 56.3555 87.2327 56.4225H87.3803V54.3426L87.3943 54.3592ZM80.3252 54.3592C79.9547 55.3534 79.6595 56.4475 77.9159 56.4475C76.565 56.4475 75.6347 55.7255 75.6347 52.9818C75.6347 51.5184 75.8297 49.4495 77.9159 49.4495C79.4144 49.4495 79.8433 50.4465 80.0801 51.4406L80.1887 49.4968H80.0411C79.9941 49.5663 79.9293 49.6221 79.8534 49.6583C79.7774 49.6944 79.6932 49.7096 79.6094 49.7022C79.2166 49.7022 78.8156 49.3218 78.005 49.3218C76.008 49.3218 74.5095 51.038 74.5095 52.9902C74.5067 53.483 74.6039 53.9713 74.7954 54.4256C74.9869 54.88 75.2686 55.291 75.6236 55.6339C75.9227 55.9397 76.2806 56.1822 76.6759 56.3468C77.0713 56.5114 77.4958 56.5948 77.9243 56.5919C78.8239 56.5919 79.3531 56.242 79.7347 56.242C79.8181 56.2382 79.9011 56.2549 79.9764 56.2908C80.0517 56.3266 80.117 56.3805 80.1664 56.4475H80.314V54.3676L80.3252 54.3592ZM67.1591 56.4392H73.1308V54.3009C72.9442 54.8952 72.5041 56.3031 71.0752 56.3031H69.2258V52.7791H70.0196C70.9582 52.7791 71.117 53.4928 71.2925 54.2426L71.4011 51.2074C71.0084 52.3792 70.7354 52.6431 69.8636 52.6431H69.2286V49.6245H70.8524C71.9303 49.6245 72.3202 50.1604 72.6545 51.1768L72.7631 49.4884H67.1647V49.6245H68.2398V56.2892H67.1535V56.4253L67.1591 56.4392ZM62.1456 49.6273C62.3127 49.6078 62.5773 49.5967 62.8112 49.5967C63.4964 49.5967 64.2707 49.7633 64.2707 51.1296C64.2707 52.3293 63.7722 52.6431 63.048 52.6431H62.1483V49.6245L62.1456 49.6273ZM60.0789 56.4392H63.2263V56.3031H62.14V52.7791H63.1176C63.5688 52.7791 64.41 52.8097 64.5103 54.1149L64.5799 55.0035C64.6579 55.9893 64.9336 56.5058 65.9726 56.5058C66.1256 56.5226 66.2805 56.5088 66.4283 56.4655C66.576 56.4221 66.7136 56.3499 66.8332 56.2531C66.5992 56.2809 66.4015 56.3503 66.2372 56.3503C65.8556 56.3503 65.7191 56.0282 65.6411 55.6866C65.5436 55.2368 65.5826 54.3203 65.435 53.8122C65.1815 52.9235 64.0423 52.7375 63.6134 52.6792C65.1314 52.4653 65.3375 51.4878 65.3375 51.1074C65.3325 50.8701 65.2735 50.6371 65.1649 50.4259C65.0564 50.2147 64.9011 50.0309 64.7108 49.8883C64.2011 49.4884 63.6329 49.4579 62.8697 49.4579H62.399C62.243 49.4579 62.0871 49.4773 61.9283 49.4773H60.0677V49.6134H61.154V56.2781H60.0677V56.4142L60.0789 56.4392ZM56.3104 56.4392H59.4661V56.3031H58.3798V49.6384H59.4661V49.5023H56.3159V49.6384H57.4022V56.3031H56.3159V56.4392H56.3104ZM50.3721 49.6245C50.6172 49.6245 50.8818 49.5939 51.2077 49.5939C53.3997 49.5939 54.1156 50.9408 54.1156 53.0013C54.1513 53.7995 53.9581 54.5914 53.5585 55.284C53.0014 56.2004 52.138 56.3392 51.2495 56.3392C50.8958 56.3392 50.6033 56.3198 50.3777 56.3003V49.6356L50.3721 49.6245ZM48.3054 56.4364H49.9766L50.6117 56.4558L51.2578 56.4753C52.177 56.4753 52.5892 56.4447 53.2243 56.1726C54.3384 55.695 55.2408 54.6702 55.2408 52.9624C55.2408 51.4878 54.5445 50.1993 52.9513 49.6828C52.3949 49.5049 51.8108 49.4287 51.2272 49.4579H50.6701C50.4835 49.4579 50.3081 49.4773 50.1131 49.4773H48.2915V49.6134H49.3778V56.2781H48.2915V56.4142L48.3054 56.4364ZM103.385 54.5314H105.164V53.901H103.385V54.5342V54.5314Z" fill="black" stroke="#1D1D1B" stroke-width="0.3" stroke-miterlimit="3.86"/>
<path d="M92.4383 66.8139H98.41V64.6757C98.2234 65.2699 97.7833 66.6779 96.3545 66.6779H94.505V63.1539H95.2988C96.2375 63.1539 96.3962 63.8676 96.5717 64.6174L96.6803 61.5821C96.2876 62.754 96.0147 63.0178 95.1429 63.0178H94.505V59.9993H96.1289C97.2068 59.9993 97.5967 60.5352 97.9309 61.5516L98.0396 59.8632H92.4383V59.9993H93.5246V66.664H92.4383V66.8001V66.8139ZM87.2215 66.8139H90.3744V66.6779H89.2882V60.0131H89.8452C90.3633 60.0131 91.2072 60.0631 91.6557 61.6627L91.7643 59.8771H85.8205V61.6488C86.3775 60.0492 87.2131 59.9993 87.7395 59.9993H88.2966V66.664H87.2103V66.8001L87.2215 66.8139ZM81.0353 60.002C81.2566 59.9806 81.4787 59.9704 81.701 59.9715C82.3862 59.9715 83.1605 60.1381 83.1605 61.5044C83.1605 62.704 82.6619 63.0178 81.9378 63.0178H81.0381V59.9993L81.0353 60.002ZM78.9714 66.8139H82.1244V66.6779H81.0381V63.1539H82.0185C82.4698 63.1539 83.3109 63.1844 83.4112 64.4896L83.4808 65.3782C83.5588 66.3641 83.8346 66.8806 84.8735 66.8806C85.0266 66.8976 85.1816 66.8841 85.3293 66.8407C85.4771 66.7973 85.6147 66.7249 85.7341 66.6279C85.5002 66.6584 85.3024 66.7251 85.1381 66.7251C84.7565 66.7251 84.62 66.4029 84.542 66.0614C84.4445 65.6115 84.4835 64.6951 84.3359 64.1869C84.0825 63.2983 82.9433 63.1122 82.5143 63.0539C84.0323 62.8401 84.2356 61.8626 84.2356 61.4822C84.2306 61.2449 84.1716 61.0119 84.0631 60.8007C83.9545 60.5895 83.7992 60.4057 83.6089 60.2631C83.0992 59.8632 82.531 59.8354 81.7679 59.8354H81.2972C81.1412 59.8354 80.9852 59.8548 80.8264 59.8548H78.9659V59.9909H80.0521V66.6557H78.9659V66.7917L78.9714 66.8139ZM75.6709 63.837H73.5178L74.5957 60.9906L75.6736 63.837H75.6709ZM71.4094 66.8139H73.515V66.6779H72.4176L73.4454 63.9731H75.7154L76.7432 66.6779H75.6569V66.8139H78.6845V66.6779H77.8127L75.15 59.6882H74.9244L72.2812 66.6779H71.4205V66.8139H71.4094ZM63.4406 66.8139H63.5882C63.6034 66.7494 63.6411 66.6923 63.6948 66.6531C63.7484 66.6138 63.8144 66.5951 63.8807 66.6001C64.1595 66.6381 64.4326 66.71 64.694 66.8139C65.0952 66.9263 65.5114 66.9759 65.9279 66.9611C67.4737 66.9611 68.4152 65.867 68.4152 64.659C68.4152 63.3205 67.2314 63.0289 66.744 62.8734L65.5602 62.5041C64.8834 62.2903 64.1509 62.007 64.1509 61.1656C64.1509 60.1298 65.1285 59.8271 65.7663 59.8271C66.8805 59.8271 67.4598 60.6963 67.6158 61.6321H67.7328V59.866H67.5963C67.4988 60.052 67.4682 60.0715 67.3038 60.0715C66.9306 60.0715 66.6771 59.691 65.7663 59.691C64.5046 59.691 63.6217 60.5602 63.6217 61.7404C63.6217 62.629 64.1787 63.1289 65.226 63.4594L66.3401 63.8009C66.8972 63.9675 67.652 64.3369 67.652 65.245C67.652 65.8809 67.301 66.825 65.9195 66.825C65.1954 66.825 63.9921 66.8251 63.5409 64.7173L63.4323 66.8167L63.4406 66.8139ZM59.7 63.837H57.5469L58.6248 60.9906L59.7028 63.837H59.7ZM55.444 66.8139H57.5497V66.6779H56.4635L57.4912 63.9731H59.7612L60.789 66.6779H59.7028V66.8139H62.7192V66.6779H61.8335L59.1708 59.6882H58.9368L56.2936 66.6779H55.4329V66.8139H55.444ZM50.372 60.002C50.6171 60.002 50.8817 59.9715 51.2076 59.9715C53.3996 59.9715 54.1155 61.3183 54.1155 63.3788C54.1516 64.178 53.9584 64.9708 53.5584 65.6643C53.0013 66.5807 52.1379 66.7195 51.2494 66.7195C50.8957 66.7195 50.6032 66.7001 50.3776 66.6806V60.0159L50.372 60.002ZM48.3053 66.8139H49.9765L50.6143 66.8334L51.2605 66.8528C52.1797 66.8528 52.5919 66.825 53.2269 66.5501C54.3411 66.0725 55.2435 65.0478 55.2435 63.3399C55.2435 61.8654 54.5472 60.5769 52.954 60.0603C52.3977 59.8819 51.8135 59.8057 51.2299 59.8354H50.6728C50.4862 59.8354 50.3107 59.8548 50.1158 59.8548H48.2942V59.9909H49.3805V66.6557H48.2942V66.7917L48.3053 66.8139ZM99.7692 66.8139H99.9169C99.932 66.7494 99.9698 66.6923 100.023 66.6531C100.077 66.6138 100.143 66.5951 100.209 66.6001C100.488 66.6381 100.761 66.71 101.023 66.8139C101.424 66.9263 101.84 66.9759 102.257 66.9611C103.802 66.9611 104.744 65.867 104.744 64.659C104.744 63.3205 103.56 63.0289 103.073 62.8734L101.889 62.5041C101.215 62.2903 100.479 62.007 100.479 61.1656C100.479 60.1298 101.46 59.8271 102.095 59.8271C103.209 59.8271 103.788 60.6963 103.944 61.6321H104.061V59.866H103.925C103.827 60.052 103.797 60.0715 103.632 60.0715C103.262 60.0715 103.006 59.691 102.095 59.691C100.833 59.691 99.9503 60.5602 99.9503 61.7404C99.9503 62.629 100.507 63.1289 101.555 63.4594L102.669 63.8009C103.226 63.9675 103.981 64.3369 103.981 65.245C103.981 65.8809 103.627 66.825 102.248 66.825C101.524 66.825 100.321 66.8251 99.8695 64.7173L99.7609 66.8167L99.7692 66.8139Z" fill="black"/>
<path d="M92.4383 66.8139H98.41V64.6757C98.2234 65.2699 97.7833 66.6779 96.3545 66.6779H94.505V63.1539H95.2988C96.2375 63.1539 96.3962 63.8676 96.5717 64.6174L96.6803 61.5821C96.2876 62.754 96.0147 63.0178 95.1429 63.0178H94.505V59.9993H96.1289C97.2068 59.9993 97.5967 60.5352 97.9309 61.5516L98.0396 59.8632H92.4383V59.9993H93.5246V66.664H92.4383V66.8001V66.8139ZM87.2215 66.8139H90.3744V66.6779H89.2882V60.0131H89.8452C90.3633 60.0131 91.2072 60.0631 91.6557 61.6627L91.7643 59.8771H85.8205V61.6488C86.3775 60.0492 87.2131 59.9993 87.7395 59.9993H88.2966V66.664H87.2103V66.8001L87.2215 66.8139ZM81.0353 60.002C81.2566 59.9806 81.4787 59.9704 81.701 59.9715C82.3862 59.9715 83.1605 60.1381 83.1605 61.5044C83.1605 62.704 82.6619 63.0178 81.9378 63.0178H81.0381V59.9993L81.0353 60.002ZM78.9714 66.8139H82.1244V66.6779H81.0381V63.1539H82.0185C82.4698 63.1539 83.3109 63.1844 83.4112 64.4896L83.4808 65.3782C83.5588 66.3641 83.8346 66.8806 84.8735 66.8806C85.0266 66.8976 85.1816 66.8841 85.3293 66.8407C85.4771 66.7973 85.6147 66.7249 85.7341 66.6279C85.5002 66.6584 85.3024 66.7251 85.1381 66.7251C84.7565 66.7251 84.62 66.4029 84.542 66.0614C84.4445 65.6115 84.4835 64.6951 84.3359 64.1869C84.0825 63.2983 82.9433 63.1122 82.5143 63.0539C84.0323 62.8401 84.2356 61.8626 84.2356 61.4822C84.2306 61.2449 84.1716 61.0119 84.0631 60.8007C83.9545 60.5895 83.7992 60.4057 83.6089 60.2631C83.0992 59.8632 82.531 59.8354 81.7679 59.8354H81.2972C81.1412 59.8354 80.9852 59.8548 80.8264 59.8548H78.9659V59.9909H80.0521V66.6557H78.9659V66.7917L78.9714 66.8139ZM75.6709 63.837H73.5178L74.5957 60.9906L75.6736 63.837H75.6709ZM71.4094 66.8139H73.515V66.6779H72.4176L73.4454 63.9731H75.7154L76.7432 66.6779H75.6569V66.8139H78.6845V66.6779H77.8127L75.15 59.6882H74.9244L72.2812 66.6779H71.4205V66.8139H71.4094ZM63.4406 66.8139H63.5882C63.6034 66.7494 63.6411 66.6923 63.6948 66.6531C63.7484 66.6138 63.8144 66.5951 63.8807 66.6001C64.1595 66.6381 64.4326 66.71 64.694 66.8139C65.0952 66.9263 65.5114 66.9759 65.9279 66.9611C67.4737 66.9611 68.4152 65.867 68.4152 64.659C68.4152 63.3205 67.2314 63.0289 66.744 62.8734L65.5602 62.5041C64.8834 62.2903 64.1509 62.007 64.1509 61.1656C64.1509 60.1298 65.1285 59.8271 65.7663 59.8271C66.8805 59.8271 67.4598 60.6963 67.6158 61.6321H67.7328V59.866H67.5963C67.4988 60.052 67.4682 60.0715 67.3038 60.0715C66.9306 60.0715 66.6771 59.691 65.7663 59.691C64.5046 59.691 63.6217 60.5602 63.6217 61.7404C63.6217 62.629 64.1787 63.1289 65.226 63.4594L66.3401 63.8009C66.8972 63.9675 67.652 64.3369 67.652 65.245C67.652 65.8809 67.301 66.825 65.9195 66.825C65.1954 66.825 63.9921 66.8251 63.5409 64.7173L63.4323 66.8167L63.4406 66.8139ZM59.7 63.837H57.5469L58.6248 60.9906L59.7028 63.837H59.7ZM55.444 66.8139H57.5497V66.6779H56.4635L57.4912 63.9731H59.7612L60.789 66.6779H59.7028V66.8139H62.7192V66.6779H61.8335L59.1708 59.6882H58.9368L56.2936 66.6779H55.4329V66.8139H55.444ZM50.372 60.002C50.6171 60.002 50.8817 59.9715 51.2076 59.9715C53.3996 59.9715 54.1155 61.3183 54.1155 63.3788C54.1516 64.178 53.9584 64.9708 53.5584 65.6643C53.0013 66.5807 52.1379 66.7195 51.2494 66.7195C50.8957 66.7195 50.6032 66.7001 50.3776 66.6806V60.0159L50.372 60.002ZM48.3053 66.8139H49.9765L50.6143 66.8334L51.2605 66.8528C52.1797 66.8528 52.5919 66.825 53.2269 66.5501C54.3411 66.0725 55.2435 65.0478 55.2435 63.3399C55.2435 61.8654 54.5472 60.5769 52.954 60.0603C52.3977 59.8819 51.8135 59.8057 51.2299 59.8354H50.6728C50.4862 59.8354 50.3107 59.8548 50.1158 59.8548H48.2942V59.9909H49.3805V66.6557H48.2942V66.7917L48.3053 66.8139ZM99.7692 66.8139H99.9169C99.932 66.7494 99.9698 66.6923 100.023 66.6531C100.077 66.6138 100.143 66.5951 100.209 66.6001C100.488 66.6381 100.761 66.71 101.023 66.8139C101.424 66.9263 101.84 66.9759 102.257 66.9611C103.802 66.9611 104.744 65.867 104.744 64.659C104.744 63.3205 103.56 63.0289 103.073 62.8734L101.889 62.5041C101.215 62.2903 100.479 62.007 100.479 61.1656C100.479 60.1298 101.46 59.8271 102.095 59.8271C103.209 59.8271 103.788 60.6963 103.944 61.6321H104.061V59.866H103.925C103.827 60.052 103.797 60.0715 103.632 60.0715C103.262 60.0715 103.006 59.691 102.095 59.691C100.833 59.691 99.9503 60.5602 99.9503 61.7404C99.9503 62.629 100.507 63.1289 101.555 63.4594L102.669 63.8009C103.226 63.9675 103.981 64.3369 103.981 65.245C103.981 65.8809 103.627 66.825 102.248 66.825C101.524 66.825 100.321 66.8251 99.8695 64.7173L99.7609 66.8167L99.7692 66.8139Z" fill="black" stroke="#1D1D1B" stroke-width="0.3" stroke-miterlimit="3.86"/>
</svg>
