<?xml version="1.0" encoding="utf-8"?>
<!-- Generator: Adobe Illustrator 26.2.1, SVG Export Plug-In . SVG Version: 6.00 Build 0)  -->
<svg version="1.1" id="Layer_1" xmlns="http://www.w3.org/2000/svg" xmlns:xlink="http://www.w3.org/1999/xlink" x="0px" y="0px"
	 viewBox="0 0 1906.4 384" style="enable-background:new 0 0 1906.4 384;" xml:space="preserve">
<style type="text/css">
	.st0{fill:#020203;}
	.st1{fill:none;stroke:#040506;stroke-width:41.0089;}
	.st2{font-family:'ArialMT';}
	.st3{font-size:96px;}
</style>
<path class="st0" d="M77.7,85.3h165.4V45.8H30.6v305.5h47.1V217.4h158.5v-38.7H77.7V85.3L77.7,85.3z M536.3,45.8h-47.1v188.7
	c0,60.3-27.7,83.2-76.2,83.2c-48.6,0-76.2-22.9-76.2-83.2V45.8h-47.1v193.5c0,78.3,53.2,118.8,123.3,118.8
	c70,0,123.3-40.5,123.3-118.8V45.8L536.3,45.8z M826.4,130C811.6,72.3,772.2,39,705,39c-63.3,0-111.4,33.8-111.4,86.6
	c0,56.5,40.3,72.4,80.2,82.3l55.7,13.7c32.2,7.7,56.2,15.7,56.2,48c0,31.6-28.5,50.6-69.8,50.6c-42.1,0-79.7-16.4-86.3-67.6
	l-46.7,4.7C593.7,322.6,641,358,715.1,358c65.3,0,118.6-30,118.6-89.7c0-66.7-44.6-78.9-91-90.4l-52.6-12.1
	c-27.6-6.5-48.6-15.3-48.6-41.4c0-27.6,24.1-47.5,63.1-47.5c38.6,0,66.7,18.5,74.8,57L826.4,130L826.4,130z"/>
<g>
	<path class="st1" d="M1857.3,194.3c0-79.8-213.3-144.4-476.3-144.4s-476.3,64.7-476.3,144.4S1118,338.7,1381,338.7
		S1857.3,274,1857.3,194.3L1857.3,194.3z"/>
</g>
<text transform="matrix(1 0 0 1 1041.4492 221.8636)" class="st0 st2 st3">23 — 28 </text>
<text transform="matrix(1 0 0 1 1425.7227 221.8636)" class="st0 st2 st3">Agosto</text>
</svg>
