<?xml version="1.0" encoding="utf-8"?>
<!-- Generator: Adobe Illustrator 26.2.1, SVG Export Plug-In . SVG Version: 6.00 Build 0)  -->
<svg version="1.1" id="Layer_1" xmlns="http://www.w3.org/2000/svg" xmlns:xlink="http://www.w3.org/1999/xlink" x="0px" y="0px"
	 viewBox="0 0 963 889" style="enable-background:new 0 0 963 889;" xml:space="preserve">
<style type="text/css">
	.st0{clip-path:url(#SVGID_00000120525228066877723820000015285041000276289414_);}
	.st1{clip-path:url(#SVGID_00000148633608315079538420000003089427731201249212_);}
	.st2{fill:none;stroke:#000000;stroke-width:9.06;}
	.st3{fill:none;stroke:#000000;stroke-width:1.07;stroke-miterlimit:4.27;}
	.st4{clip-path:url(#SVGID_00000120525228066877723820000015285041000276289414_);fill:none;}
	.st5{fill:none;stroke:#000000;stroke-width:0.5;}
	.st6{clip-path:url(#SVGID_00000049188043368168450980000012206440136163956375_);fill:none;stroke:#000000;stroke-width:2.777;}
	.st7{clip-path:url(#SVGID_00000049188043368168450980000012206440136163956375_);fill:none;stroke:#FF4C38;stroke-width:2.777;}
</style>
<g>
	<g>
		<g>
			<defs>
				<rect id="SVGID_1_" width="963" height="888.3"/>
			</defs>
			<clipPath id="SVGID_00000135654257857647962510000013918224996710816670_">
				<use xlink:href="#SVGID_1_"  style="overflow:visible;"/>
			</clipPath>
			<g style="clip-path:url(#SVGID_00000135654257857647962510000013918224996710816670_);">
				<g>
					<defs>
						<polyline id="SVGID_00000023989632741911791310000013450536864394736047_" points="927.5,1031.9 37,1031.9 37,31 927.5,31 
													"/>
					</defs>
					<clipPath id="SVGID_00000070806017716208597860000003316705585827883445_">
						<use xlink:href="#SVGID_00000023989632741911791310000013450536864394736047_"  style="overflow:visible;"/>
					</clipPath>
					<g style="clip-path:url(#SVGID_00000070806017716208597860000003316705585827883445_);">
						<path d="M47.4,43.4h36.5v-8.7H37v67.5h10.4V72.6h35V64h-35V43.4L47.4,43.4z M148.7,34.6h-10.4v41.7c0,13.3-6.1,18.4-16.8,18.4
							s-16.8-5.1-16.8-18.4V34.6H94.2v42.8c0,17.3,11.8,26.3,27.2,26.3s27.2-9,27.2-26.3V34.6H148.7z M212.9,53.3
							c-3.3-12.8-12-20.1-26.9-20.1c-14,0-24.6,7.5-24.6,19.1c0,12.5,8.9,16,17.7,18.2l12.3,3c7.1,1.7,12.4,3.5,12.4,10.6
							c0,7-6.3,11.2-15.4,11.2c-9.3,0-17.6-3.6-19.1-14.9l-10.3,1c2.4,14.5,12.8,22.3,29.2,22.3c14.4,0,26.2-6.6,26.2-19.8
							c0-14.7-9.9-17.5-20.1-20l-11.6-2.7c-6.1-1.3-10.7-3.3-10.7-9.1c0-6.1,5.3-10.5,13.9-10.5c8.6,0,14.7,4.1,16.5,12.6
							L212.9,53.3L212.9,53.3z"/>
						<path class="st2" d="M440.7,67.5c0-17.6-47.1-31.9-105.3-31.9S230.1,49.8,230.1,67.5s47.1,31.9,105.3,31.9
							S440.7,85.1,440.7,67.5z"/>
						<path class="st3" d="M207.4,338.1c-8.8,0-17.4-2.6-24.7-7.5s-13-11.8-16.4-20c-3.4-8.1-4.3-17.1-2.5-25.7
							c1.7-8.6,6-16.6,12.2-22.8c6.2-6.2,14.1-10.5,22.8-12.2c8.6-1.7,17.6-0.8,25.7,2.5c8.1,3.4,15.1,9.1,20,16.4
							s7.5,15.9,7.5,24.7c0,5.8-1.1,11.6-3.4,17c-2.2,5.4-5.5,10.3-9.6,14.4s-9,7.4-14.4,9.6C219,336.9,213.3,338.1,207.4,338.1
							L207.4,338.1z M225.2,332.6c17.5-8,23.8-31.9,14-53.4s-32-32.5-49.5-24.5s-23.8,31.9-14,53.5
							C185.5,329.6,207.6,340.6,225.2,332.6z"/>
						<path class="st3" d="M278,303.2V317c0,10.8,2.8,18.2,8.3,19.6h-24.8c5.5-1.4,8.2-8.8,8.3-19.6v-46.9
							c-0.1-10.8-2.8-18.2-8.3-19.6H294c24.6,0,41.9,6.5,40.6,25.4c-1.1,15-16,27.3-40.6,27.3L278,303.2L278,303.2z M278,252.2v49.3
							h16c10.9,0,22.1-3.5,28.6-13.8c5.9-9.2,6.6-28.5-10.9-33.4c-5.8-1.5-11.8-2.2-17.8-2.1L278,252.2L278,252.2z"/>
						<path class="st3" d="M398.5,317.8l-1.9,18.9h-55.4c5.5-1.4,8.2-8.8,8.3-19.6v-46.9c0-10.8-2.8-18.2-8.3-19.6h53.1l1.9,18.9
							c-1.4-5.5-8.8-17.1-19.6-17.2h-19v40.5h9.8c10.8-0.1,17.2-2,19.6-7.7v17c-2.4-5.7-8.8-7.6-19.6-7.7h-9.8V335h21.2
							C389.7,334.9,397.1,323.3,398.5,317.8z"/>
						<path class="st3" d="M468.5,336.6l-46.7-80V317c0.1,10.8,6,18.2,11.6,19.6h-24.8c5.5-1.4,11.5-8.8,11.6-19.6v-46.9
							c-0.1-10.8-6-18.2-11.6-19.6h17.9l45.2,77.6v-58c-0.1-10.8-6-18.2-11.6-19.6H485c-5.5,1.4-11.5,8.8-11.6,19.6V331l3.3,5.6
							H468.5L468.5,336.6z"/>
						<path d="M207.4,338.1c-8.8,0-17.4-2.6-24.7-7.5s-13-11.8-16.4-20c-3.4-8.1-4.3-17.1-2.5-25.7c1.7-8.6,6-16.6,12.2-22.8
							c6.2-6.2,14.1-10.5,22.8-12.2c8.6-1.7,17.6-0.8,25.7,2.5c8.1,3.4,15.1,9.1,20,16.4s7.5,15.9,7.5,24.7c0,5.8-1.1,11.6-3.4,17
							c-2.2,5.4-5.5,10.3-9.6,14.4s-9,7.4-14.4,9.6C219,336.9,213.3,338.1,207.4,338.1L207.4,338.1z M225.2,332.6
							c17.5-8,23.8-31.9,14-53.4s-32-32.5-49.5-24.5s-23.8,31.9-14,53.5C185.5,329.6,207.6,340.6,225.2,332.6z"/>
						<path d="M278,303.2V317c0,10.8,2.8,18.2,8.3,19.6h-24.8c5.5-1.4,8.2-8.8,8.3-19.6v-46.9c-0.1-10.8-2.8-18.2-8.3-19.6H294
							c24.6,0,41.9,6.5,40.6,25.4c-1.1,15-16,27.3-40.6,27.3L278,303.2L278,303.2z M278,252.2v49.3h16c10.9,0,22.1-3.5,28.6-13.8
							c5.9-9.2,6.6-28.5-10.9-33.4c-5.8-1.5-11.8-2.2-17.8-2.1L278,252.2L278,252.2z"/>
						<path d="M398.5,317.8l-1.9,18.9h-55.4c5.5-1.4,8.2-8.8,8.3-19.6v-46.9c-0.1-10.8-2.8-18.2-8.3-19.6h53.1l1.9,18.9
							c-1.4-5.5-8.8-17.1-19.6-17.2h-19v40.5h9.8c10.9-0.1,17.2-2,19.6-7.7v17c-2.4-5.7-8.8-7.6-19.6-7.7h-9.8V335h21.2
							C389.7,334.9,397,323.3,398.5,317.8z"/>
						<path d="M468.5,336.6l-46.7-80V317c0.1,10.8,6,18.2,11.6,19.6h-24.8c5.5-1.4,11.5-8.8,11.6-19.6v-46.9
							c-0.1-10.8-6-18.2-11.6-19.6h17.9l45.2,77.6v-58c-0.1-10.8-6-18.2-11.6-19.6H485c-5.5,1.4-11.5,8.8-11.6,19.6V331l3.3,5.6
							H468.5L468.5,336.6z"/>
						<path class="st3" d="M439.2,468l2.7,2.1c-5.6,6.6-13.1,11.4-21.4,13.8s-17.2,2.3-25.5-0.2c-8.3-2.6-15.6-7.5-21.2-14.2
							c-5.5-6.7-9-14.8-9.9-23.5s0.6-17.3,4.6-25.1c3.9-7.7,10-14.1,17.6-18.4c7.5-4.3,16.1-6.3,24.8-5.8c8.7,0.5,17,3.6,23.9,8.8
							l-5.8,6.9c-11.1-11.1-25.8-16.1-38.6-10.2c-17.5,8-23.8,31.9-14,53.5c9.8,21.5,32,32.5,49.5,24.5
							C431.5,477.6,436.2,473.3,439.2,468L439.2,468z"/>
						<path class="st3" d="M531.6,484.2h-24.8c5.5-1.4,4.8-9.5,1.2-19.6l-8.2-22.6h-26.1l-8.2,22.6c-3.6,10.1-0.9,18.2,4.7,19.6
							h-24.8c5.5-1.4,14.5-8.7,18.5-19.6l22.1-60.8l-2.1-5.8h8.2l24.2,66.5C520.1,475.5,526,482.8,531.6,484.2z M499.1,440.3
							l-12.4-34.1l-12.4,34.1H499.1z"/>
						<path class="st3" d="M596.6,465.4l-1.9,18.9h-53.2c5.5-1.4,8.2-8.8,8.3-19.6v-46.9c-0.1-10.9-2.8-18.2-8.3-19.6h24.8
							c-5.5,1.4-8.2,8.8-8.3,19.6v64.8h19C587.8,482.5,595.2,470.9,596.6,465.4z"/>
						<path class="st3" d="M661.1,465.4l-1.9,18.9H606c5.5-1.4,8.2-8.8,8.3-19.6v-46.9c-0.1-10.9-2.8-18.2-8.3-19.6h24.8
							c-5.5,1.4-8.2,8.8-8.3,19.6v64.8h19C652.4,482.5,659.7,470.9,661.1,465.4z"/>
						<path d="M439.2,468l2.7,2.1c-5.6,6.6-13.1,11.4-21.4,13.8s-17.2,2.3-25.5-0.2c-8.3-2.6-15.6-7.5-21.2-14.2
							c-5.5-6.7-9-14.8-9.9-23.5s0.6-17.3,4.6-25.1c3.9-7.7,10-14.1,17.6-18.4c7.5-4.3,16.1-6.3,24.8-5.8c8.7,0.5,17,3.6,23.9,8.8
							l-5.8,6.9c-11.1-11.1-25.8-16.1-38.6-10.2c-17.5,8-23.8,31.9-14,53.5c9.8,21.5,32,32.5,49.5,24.5
							C431.5,477.6,436.2,473.3,439.2,468L439.2,468z"/>
						<path d="M531.6,484.2h-24.8c5.5-1.4,4.8-9.5,1.2-19.6l-8.2-22.6h-26.1l-8.2,22.6c-3.6,10.1-0.9,18.2,4.7,19.6h-24.8
							c5.5-1.4,14.5-8.7,18.5-19.6l22.1-60.8l-2.1-5.8h8.2l24.2,66.5C520.1,475.5,526,482.8,531.6,484.2z M499.1,440.3l-12.4-34.1
							l-12.4,34.1H499.1z"/>
						<path d="M596.6,465.4l-1.9,18.9h-53.2c5.5-1.4,8.2-8.8,8.3-19.6v-46.9c-0.1-10.9-2.8-18.2-8.3-19.6h24.8
							c-5.5,1.4-8.2,8.8-8.3,19.6v64.8h19C587.8,482.5,595.2,470.9,596.6,465.4z"/>
						<path d="M661.1,465.4l-1.9,18.9H606c5.5-1.4,8.2-8.8,8.3-19.6v-46.9c-0.1-10.9-2.8-18.2-8.3-19.6h24.8
							c-5.5,1.4-8.2,8.8-8.3,19.6v64.8h19C652.4,482.5,659.7,470.9,661.1,465.4z"/>
						<path class="st3" d="M574.2,630.2h44.3v1.7H566c0-35.3,45.5-37.5,45.5-66.9c0-11.4-6.6-19-16.9-19c-6.6,0-14.7,7.2-16,12.9
							l-5.1-6.4c6.3-5.2,12.6-8.2,20.9-8.2c17.6,0,25.2,12.9,25.2,22.4C619.7,595.3,578.1,597.6,574.2,630.2z"/>
						<path class="st3" d="M693.2,588.8c0,24.5-11.9,44.5-30,44.5s-30-20-30-44.5s11.9-44.5,30-44.5S693.2,564.2,693.2,588.8z
							 M685.2,588.9c0-11.4-2.2-22.1-6.1-30.2c-4.1-8.4-9.8-13.1-15.8-13.1s-11.7,4.6-15.8,13.1c-4,8.1-6.1,18.8-6.1,30.2
							s2.2,22.1,6.1,30.2c4.1,8.4,9.8,13.1,15.8,13.1s11.7-4.7,15.8-13.1C683,611,685.1,600.3,685.2,588.9L685.2,588.9z"/>
						<path class="st3" d="M711.1,630.2h44.3v1.7h-52.5c0-35.3,45.5-37.5,45.5-66.9c0-11.4-6.6-19-16.9-19c-6.6,0-14.7,7.2-16,12.9
							l-5.1-6.4c6.3-5.2,12.6-8.2,20.9-8.2c17.6,0,25.2,12.9,25.2,22.4C756.5,595.3,714.9,597.6,711.1,630.2z"/>
						<path class="st3" d="M778,630.2h44.3v1.7h-52.6c0-35.3,45.5-37.5,45.5-66.9c0-11.4-6.6-19-16.9-19c-6.6,0-14.7,7.2-16,12.9
							l-5.1-6.4c6.3-5.2,12.6-8.2,20.9-8.2c17.6,0,25.2,12.9,25.2,22.4C823.4,595.3,781.8,597.6,778,630.2z"/>
						<path d="M574.2,630.2h44.3v1.7H566c0-35.3,45.5-37.5,45.5-66.9c0-11.4-6.6-19-16.9-19c-6.6,0-14.7,7.2-16,12.9l-5.1-6.4
							c6.3-5.2,12.6-8.2,20.9-8.2c17.6,0,25.2,12.9,25.2,22.4C619.7,595.3,578.1,597.6,574.2,630.2z"/>
						<path d="M693.2,588.8c0,24.5-11.9,44.5-30,44.5s-30-20-30-44.5s11.9-44.5,30-44.5S693.2,564.2,693.2,588.8z M685.2,588.9
							c0-11.4-2.2-22.1-6.1-30.2c-4.1-8.4-9.8-13.1-15.8-13.1s-11.7,4.6-15.8,13.1c-4,8.1-6.1,18.8-6.1,30.2s2.2,22.1,6.1,30.2
							c4.1,8.4,9.8,13.1,15.8,13.1s11.7-4.7,15.8-13.1C683,611,685.1,600.3,685.2,588.9L685.2,588.9z"/>
						<path d="M711.1,630.2h44.3v1.7h-52.5c0-35.3,45.5-37.5,45.5-66.9c0-11.4-6.6-19-16.9-19c-6.6,0-14.7,7.2-16,12.9l-5.1-6.4
							c6.3-5.2,12.6-8.2,20.9-8.2c17.6,0,25.2,12.9,25.2,22.4C756.5,595.3,714.9,597.6,711.1,630.2z"/>
						<path d="M778,630.2h44.3v1.7h-52.6c0-35.3,45.5-37.5,45.5-66.9c0-11.4-6.6-19-16.9-19c-6.6,0-14.7,7.2-16,12.9l-5.1-6.4
							c6.3-5.2,12.6-8.2,20.9-8.2c17.6,0,25.2,12.9,25.2,22.4C823.4,595.3,781.8,597.6,778,630.2z"/>
					</g>
				</g>
			</g>
			
				<line style="clip-path:url(#SVGID_00000135654257857647962510000013918224996710816670_);fill:none;" x1="927.5" y1="31" x2="927.5" y2="1031.9"/>
		</g>
	</g>
</g>
<g>
	<g>
		<path d="M749.1,41.5h13v3.2h-13v10.9h-3.9v-25h17.4v3.2h-13.5V41.5z"/>
		<path d="M785.7,41.1v3.2h-13v8h13.5v3.3h-17.4v-25h17.4v3.2h-13.5v7.3H785.7z"/>
		<path d="M807.2,37.8c-0.7-3.1-3-4.7-6.1-4.7c-3.2,0-5.2,1.6-5.2,3.9c0,2.1,1.7,2.9,4,3.4l4.3,1c3.8,0.9,7.4,1.9,7.4,7.4
			c0,4.9-4.4,7.3-9.7,7.3c-6.1,0-9.9-2.9-10.8-8.3l3.8-0.4c0.5,4.2,3.6,5.5,7.1,5.5c3.4,0,5.7-1.6,5.7-4.1c0-2.6-2-3.3-4.6-3.9
			l-4.6-1.1c-3.3-0.8-6.6-2.1-6.6-6.7c0-4.3,3.9-7.1,9.1-7.1c5.5,0,8.7,2.7,9.9,7.5L807.2,37.8z"/>
		<path d="M828.6,33.9v21.7h-3.9V33.9h-8.4v-3.3H837v3.3H828.6z"/>
		<path d="M843.1,30.6h3.9v25h-3.9V30.6z"/>
		<path d="M866.6,55.6h-4.2l-9.5-25h4.2l7.3,20.6h0.1l7.4-20.6h4.2L866.6,55.6z"/>
		<path d="M884,48.9l-2.5,6.7h-4.2l9.8-25h4.9l9.8,25h-4.2l-2.5-6.7H884z M889.6,34.1h-0.1l-4.3,11.6h8.7L889.6,34.1z"/>
		<path d="M907.6,30.6h3.9v21.7h13.7v3.3h-17.5V30.6z"/>
	</g>
	<g>
		<path class="st5" d="M749.1,41.5h13v3.2h-13v10.9h-3.9v-25h17.4v3.2h-13.5V41.5z"/>
		<path class="st5" d="M785.7,41.1v3.2h-13v8h13.5v3.3h-17.4v-25h17.4v3.2h-13.5v7.3H785.7z"/>
		<path class="st5" d="M807.2,37.8c-0.7-3.1-3-4.7-6.1-4.7c-3.2,0-5.2,1.6-5.2,3.9c0,2.1,1.7,2.9,4,3.4l4.3,1
			c3.8,0.9,7.4,1.9,7.4,7.4c0,4.9-4.4,7.3-9.7,7.3c-6.1,0-9.9-2.9-10.8-8.3l3.8-0.4c0.5,4.2,3.6,5.5,7.1,5.5c3.4,0,5.7-1.6,5.7-4.1
			c0-2.6-2-3.3-4.6-3.9l-4.6-1.1c-3.3-0.8-6.6-2.1-6.6-6.7c0-4.3,3.9-7.1,9.1-7.1c5.5,0,8.7,2.7,9.9,7.5L807.2,37.8z"/>
		<path class="st5" d="M828.6,33.9v21.7h-3.9V33.9h-8.4v-3.3H837v3.3H828.6z"/>
		<path class="st5" d="M843.1,30.6h3.9v25h-3.9V30.6z"/>
		<path class="st5" d="M866.6,55.6h-4.2l-9.5-25h4.2l7.3,20.6h0.1l7.4-20.6h4.2L866.6,55.6z"/>
		<path class="st5" d="M884,48.9l-2.5,6.7h-4.2l9.8-25h4.9l9.8,25h-4.2l-2.5-6.7H884z M889.6,34.1h-0.1l-4.3,11.6h8.7L889.6,34.1z"
			/>
		<path class="st5" d="M907.6,30.6h3.9v21.7h13.7v3.3h-17.5V30.6z"/>
	</g>
	<g>
		<path class="st5" d="M608.9,72.6h3.9v25h-3.9V72.6z"/>
		<path class="st5" d="M637.2,97.6L624.4,78h-0.1v19.6h-3.6v-25h4.3l12.6,19.3h0.1V72.6h3.6v25H637.2z"/>
		<path class="st5" d="M659.7,75.9v21.7h-3.9V75.9h-8.4v-3.3H668v3.3H659.7z"/>
		<path class="st5" d="M691,83.1v3.2h-13v8h13.5v3.3h-17.4v-25h17.4v3.2H678v7.3H691z"/>
		<path class="st5" d="M708.5,87.8h-6.2v9.8h-3.9v-25H710c5.6,0,8.6,3,8.6,7.6c0,3.8-2.1,6.5-5.9,7.3l6.3,10.1h-4.5L708.5,87.8z
			 M709.5,84.5c3.4,0,5.2-1.6,5.2-4.3s-1.8-4.3-5.2-4.3h-7.3v8.7H709.5z"/>
		<path class="st5" d="M741.9,97.6L729.2,78H729v19.6h-3.6v-25h4.3l12.6,19.3h0.1V72.6h3.6v25H741.9z"/>
		<path class="st5" d="M758.5,90.9l-2.5,6.7h-4.2l9.8-25h4.9l9.8,25h-4.2l-2.5-6.7H758.5z M764.1,76.1H764l-4.3,11.6h8.7L764.1,76.1
			z"/>
		<path class="st5" d="M802.7,89.5c-0.9,4.1-4.4,8.7-10.9,8.7c-6.9,0-11.8-5-11.8-13.1c0-8,4.8-13,11.8-13c5.8,0,9.3,3.8,10.4,6.9
			l-3.7,0.8c-1-2.4-3.2-4.5-6.7-4.5c-4.8,0-7.8,3.6-7.8,9.8c0,6.2,3,9.9,7.8,9.9c4.2,0,6.3-2.9,7-6L802.7,89.5z"/>
		<path class="st5" d="M809.3,72.6h3.9v25h-3.9V72.6z"/>
		<path class="st5" d="M843.9,85.1c0,8.1-4.8,13.1-11.8,13.1c-7.1,0-11.8-5-11.8-13.1c0-8.1,4.8-13.1,11.8-13.1
			C839.1,72,843.9,77,843.9,85.1z M840,85.1c0-6.2-3.1-9.8-7.9-9.8s-7.9,3.6-7.9,9.8s3.1,9.8,7.9,9.8S840,91.3,840,85.1z"/>
		<path class="st5" d="M867.4,97.6L854.7,78h-0.1v19.6H851v-25h4.3l12.6,19.3h0.1V72.6h3.6v25H867.4z"/>
		<path class="st5" d="M884,90.9l-2.5,6.7h-4.2l9.8-25h4.9l9.8,25h-4.2l-2.5-6.7H884z M889.6,76.1h-0.1l-4.3,11.6h8.7L889.6,76.1z"
			/>
		<path class="st5" d="M907.7,72.6h3.9v21.7h13.7v3.3h-17.5V72.6z"/>
	</g>
	<g>
		<path class="st5" d="M653.1,114.6c7.1,0,11.9,4.2,11.9,12.5s-4.8,12.5-11.9,12.5h-9.5v-25H653.1z M652.7,136.4
			c5.4,0,8.5-3.2,8.5-9.3c0-6.1-3.1-9.3-8.5-9.3h-5.2v18.5L652.7,136.4z"/>
		<path class="st5" d="M688.9,125.1v3.2h-13v8h13.5v3.3h-17.4v-25h17.4v3.2H676v7.3H688.9z"/>
		<path class="st5" d="M718.5,139.6h-4.2l-9.5-25h4.2l7.3,20.6h0.1l7.4-20.6h4.2L718.5,139.6z"/>
		<path class="st5" d="M733.9,114.6h3.9v25h-3.9V114.6z"/>
		<path class="st5" d="M755.2,114.6c7.1,0,11.9,4.2,11.9,12.5s-4.8,12.5-11.9,12.5h-9.5v-25H755.2z M754.7,136.4
			c5.4,0,8.5-3.2,8.5-9.3c0-6.1-3.1-9.3-8.5-9.3h-5.2v18.5L754.7,136.4z"/>
		<path class="st5" d="M791,125.1v3.2h-13v8h13.5v3.3h-17.4v-25h17.4v3.2H778v7.3H791z"/>
		<path class="st5" d="M820.9,127.1c0,8.1-4.8,13.1-11.8,13.1c-7.1,0-11.8-5-11.8-13.1c0-8.1,4.8-13.1,11.8-13.1
			C816.2,114,820.9,119,820.9,127.1z M817,127.1c0-6.2-3.1-9.8-7.9-9.8s-7.9,3.6-7.9,9.8s3.1,9.8,7.9,9.8S817,133.3,817,127.1z"/>
		<path class="st5" d="M831.3,132.9l-2.5,6.7h-4.2l9.8-25h4.9l9.8,25h-4.2l-2.5-6.7H831.3z M836.9,118.1h-0.1l-4.3,11.6h8.7
			L836.9,118.1z"/>
		<path class="st5" d="M865,129.8h-6.2v9.8h-3.9v-25h11.6c5.6,0,8.6,3,8.6,7.6c0,3.8-2.1,6.5-5.9,7.3l6.3,10.1h-4.5L865,129.8z
			 M866,126.5c3.4,0,5.2-1.6,5.2-4.3s-1.8-4.3-5.2-4.3h-7.3v8.7H866z"/>
		<path class="st5" d="M892.5,117.9v21.7h-3.9v-21.7h-8.4v-3.3h20.6v3.3H892.5z"/>
		<path class="st5" d="M923.8,125.1v3.2h-13v8h13.5v3.3H907v-25h17.4v3.2h-13.5v7.3H923.8z"/>
	</g>
	<g>
		<path class="st5" d="M733.6,156.6c7.1,0,11.9,4.2,11.9,12.5s-4.8,12.5-11.9,12.5h-9.5v-25H733.6z M733.1,178.4
			c5.4,0,8.5-3.2,8.5-9.3c0-6.1-3.1-9.3-8.5-9.3H728v18.5L733.1,178.4z"/>
		<path class="st5" d="M769.4,167.1v3.2h-13v8h13.5v3.3h-17.4v-25h17.4v3.2h-13.5v7.3H769.4z"/>
		<path class="st5" d="M787,156.6h3.9v21.7h13.7v3.3H787V156.6z"/>
		<path class="st5" d="M810.6,156.6h3.9v25h-3.9V156.6z"/>
		<path class="st5" d="M837,163.8c-0.7-3.1-3-4.7-6.1-4.7c-3.2,0-5.2,1.6-5.2,3.9c0,2.1,1.7,2.9,4,3.4l4.3,1
			c3.8,0.9,7.4,1.9,7.4,7.4c0,4.9-4.4,7.3-9.7,7.3c-6.1,0-9.9-2.9-10.8-8.3l3.8-0.4c0.5,4.2,3.6,5.5,7.1,5.5c3.4,0,5.7-1.6,5.7-4.1
			c0-2.6-2-3.3-4.6-3.9l-4.6-1.1c-3.3-0.8-6.6-2.1-6.6-6.7c0-4.3,3.9-7.1,9.1-7.1c5.5,0,8.7,2.7,9.9,7.5L837,163.8z"/>
		<path class="st5" d="M859.3,156.6c4.9,0,7.6,2.7,7.6,6.8c0,2.2-1,4-3.1,4.9v0.1c2.6,0.9,4,2.9,4,6c0,4.3-2.8,7.2-8,7.2h-11.4v-25
			H859.3z M858.8,167.2c2.8,0,4.2-1.3,4.2-3.7c0-2.3-1.5-3.7-4.2-3.7h-6.6v7.4H858.8z M859.2,178.3c3.1,0,4.7-1.5,4.7-4
			c0-2.6-1.6-4-4.7-4h-7v8.1H859.2z"/>
		<path class="st5" d="M897.3,169.1c0,8.1-4.8,13.1-11.8,13.1c-7.1,0-11.8-5-11.8-13.1c0-8.1,4.8-13.1,11.8-13.1
			C892.6,156,897.3,161,897.3,169.1z M893.4,169.1c0-6.2-3.1-9.8-7.9-9.8s-7.9,3.6-7.9,9.8s3.1,9.8,7.9,9.8S893.4,175.3,893.4,169.1
			z"/>
		<path class="st5" d="M907.7,174.9l-2.5,6.7h-4.2l9.8-25h4.9l9.8,25h-4.2l-2.5-6.7H907.7z M913.3,160.1h-0.1l-4.3,11.6h8.7
			L913.3,160.1z"/>
	</g>
	<g>
		<path d="M608.9,72.6h3.9v25h-3.9V72.6z"/>
		<path d="M637.2,97.6L624.4,78h-0.1v19.6h-3.6v-25h4.3l12.6,19.3h0.1V72.6h3.6v25H637.2z"/>
		<path d="M659.7,75.9v21.7h-3.9V75.9h-8.4v-3.3H668v3.3H659.7z"/>
		<path d="M691,83.1v3.2h-13v8h13.5v3.3h-17.4v-25h17.4v3.2H678v7.3H691z"/>
		<path d="M708.5,87.8h-6.2v9.8h-3.9v-25H710c5.6,0,8.6,3,8.6,7.6c0,3.8-2.1,6.5-5.9,7.3l6.3,10.1h-4.5L708.5,87.8z M709.5,84.5
			c3.4,0,5.2-1.6,5.2-4.3s-1.8-4.3-5.2-4.3h-7.3v8.7H709.5z"/>
		<path d="M741.9,97.6L729.2,78H729v19.6h-3.6v-25h4.3l12.6,19.3h0.1V72.6h3.6v25H741.9z"/>
		<path d="M758.5,90.9l-2.5,6.7h-4.2l9.8-25h4.9l9.8,25h-4.2l-2.5-6.7H758.5z M764.1,76.1H764l-4.3,11.6h8.7L764.1,76.1z"/>
		<path d="M802.7,89.5c-0.9,4.1-4.4,8.7-10.9,8.7c-6.9,0-11.8-5-11.8-13.1c0-8,4.8-13,11.8-13c5.8,0,9.3,3.8,10.4,6.9l-3.7,0.8
			c-1-2.4-3.2-4.5-6.7-4.5c-4.8,0-7.8,3.6-7.8,9.8c0,6.2,3,9.9,7.8,9.9c4.2,0,6.3-2.9,7-6L802.7,89.5z"/>
		<path d="M809.3,72.6h3.9v25h-3.9V72.6z"/>
		<path d="M843.9,85.1c0,8.1-4.8,13.1-11.8,13.1c-7.1,0-11.8-5-11.8-13.1c0-8.1,4.8-13.1,11.8-13.1C839.1,72,843.9,77,843.9,85.1z
			 M840,85.1c0-6.2-3.1-9.8-7.9-9.8s-7.9,3.6-7.9,9.8s3.1,9.8,7.9,9.8S840,91.3,840,85.1z"/>
		<path d="M867.4,97.6L854.7,78h-0.1v19.6H851v-25h4.3l12.6,19.3h0.1V72.6h3.6v25H867.4z"/>
		<path d="M884,90.9l-2.5,6.7h-4.2l9.8-25h4.9l9.8,25h-4.2l-2.5-6.7H884z M889.6,76.1h-0.1l-4.3,11.6h8.7L889.6,76.1z"/>
		<path d="M907.7,72.6h3.9v21.7h13.7v3.3h-17.5V72.6z"/>
	</g>
	<g>
		<path d="M653.1,114.6c7.1,0,11.9,4.2,11.9,12.5s-4.8,12.5-11.9,12.5h-9.5v-25H653.1z M652.7,136.4c5.4,0,8.5-3.2,8.5-9.3
			c0-6.1-3.1-9.3-8.5-9.3h-5.2v18.5L652.7,136.4z"/>
		<path d="M688.9,125.1v3.2h-13v8h13.5v3.3h-17.4v-25h17.4v3.2H676v7.3H688.9z"/>
		<path d="M718.5,139.6h-4.2l-9.5-25h4.2l7.3,20.6h0.1l7.4-20.6h4.2L718.5,139.6z"/>
		<path d="M733.9,114.6h3.9v25h-3.9V114.6z"/>
		<path d="M755.2,114.6c7.1,0,11.9,4.2,11.9,12.5s-4.8,12.5-11.9,12.5h-9.5v-25H755.2z M754.7,136.4c5.4,0,8.5-3.2,8.5-9.3
			c0-6.1-3.1-9.3-8.5-9.3h-5.2v18.5L754.7,136.4z"/>
		<path d="M791,125.1v3.2h-13v8h13.5v3.3h-17.4v-25h17.4v3.2H778v7.3H791z"/>
		<path d="M820.9,127.1c0,8.1-4.8,13.1-11.8,13.1c-7.1,0-11.8-5-11.8-13.1c0-8.1,4.8-13.1,11.8-13.1
			C816.2,114,820.9,119,820.9,127.1z M817,127.1c0-6.2-3.1-9.8-7.9-9.8s-7.9,3.6-7.9,9.8s3.1,9.8,7.9,9.8S817,133.3,817,127.1z"/>
		<path d="M831.3,132.9l-2.5,6.7h-4.2l9.8-25h4.9l9.8,25h-4.2l-2.5-6.7H831.3z M836.9,118.1h-0.1l-4.3,11.6h8.7L836.9,118.1z"/>
		<path d="M865,129.8h-6.2v9.8h-3.9v-25h11.6c5.6,0,8.6,3,8.6,7.6c0,3.8-2.1,6.5-5.9,7.3l6.3,10.1h-4.5L865,129.8z M866,126.5
			c3.4,0,5.2-1.6,5.2-4.3s-1.8-4.3-5.2-4.3h-7.3v8.7H866z"/>
		<path d="M892.5,117.9v21.7h-3.9v-21.7h-8.4v-3.3h20.6v3.3H892.5z"/>
		<path d="M923.8,125.1v3.2h-13v8h13.5v3.3H907v-25h17.4v3.2h-13.5v7.3H923.8z"/>
	</g>
	<g>
		<path d="M733.6,156.6c7.1,0,11.9,4.2,11.9,12.5s-4.8,12.5-11.9,12.5h-9.5v-25H733.6z M733.1,178.4c5.4,0,8.5-3.2,8.5-9.3
			c0-6.1-3.1-9.3-8.5-9.3H728v18.5L733.1,178.4z"/>
		<path d="M769.4,167.1v3.2h-13v8h13.5v3.3h-17.4v-25h17.4v3.2h-13.5v7.3H769.4z"/>
		<path d="M787,156.6h3.9v21.7h13.7v3.3H787V156.6z"/>
		<path d="M810.6,156.6h3.9v25h-3.9V156.6z"/>
		<path d="M837,163.8c-0.7-3.1-3-4.7-6.1-4.7c-3.2,0-5.2,1.6-5.2,3.9c0,2.1,1.7,2.9,4,3.4l4.3,1c3.8,0.9,7.4,1.9,7.4,7.4
			c0,4.9-4.4,7.3-9.7,7.3c-6.1,0-9.9-2.9-10.8-8.3l3.8-0.4c0.5,4.2,3.6,5.5,7.1,5.5c3.4,0,5.7-1.6,5.7-4.1c0-2.6-2-3.3-4.6-3.9
			l-4.6-1.1c-3.3-0.8-6.6-2.1-6.6-6.7c0-4.3,3.9-7.1,9.1-7.1c5.5,0,8.7,2.7,9.9,7.5L837,163.8z"/>
		<path d="M859.3,156.6c4.9,0,7.6,2.7,7.6,6.8c0,2.2-1,4-3.1,4.9v0.1c2.6,0.9,4,2.9,4,6c0,4.3-2.8,7.2-8,7.2h-11.4v-25H859.3z
			 M858.8,167.2c2.8,0,4.2-1.3,4.2-3.7c0-2.3-1.5-3.7-4.2-3.7h-6.6v7.4H858.8z M859.2,178.3c3.1,0,4.7-1.5,4.7-4c0-2.6-1.6-4-4.7-4
			h-7v8.1H859.2z"/>
		<path d="M897.3,169.1c0,8.1-4.8,13.1-11.8,13.1c-7.1,0-11.8-5-11.8-13.1c0-8.1,4.8-13.1,11.8-13.1
			C892.6,156,897.3,161,897.3,169.1z M893.4,169.1c0-6.2-3.1-9.8-7.9-9.8s-7.9,3.6-7.9,9.8s3.1,9.8,7.9,9.8S893.4,175.3,893.4,169.1
			z"/>
		<path d="M907.7,174.9l-2.5,6.7h-4.2l9.8-25h4.9l9.8,25h-4.2l-2.5-6.7H907.7z M913.3,160.1h-0.1l-4.3,11.6h8.7L913.3,160.1z"/>
	</g>
</g>
<g>
	<defs>
		<rect id="SVGID_00000084516672218667582140000011112709801644242562_" x="57.2" y="651.7" width="533.1" height="380.4"/>
	</defs>
	<clipPath id="SVGID_00000016762668188280291940000013128401552935631749_">
		<use xlink:href="#SVGID_00000084516672218667582140000011112709801644242562_"  style="overflow:visible;"/>
	</clipPath>
	
		<ellipse style="clip-path:url(#SVGID_00000016762668188280291940000013128401552935631749_);fill:none;stroke:#000000;stroke-width:2.777;" cx="238.7" cy="841.9" rx="31.3" ry="188.8"/>
	
		<ellipse style="clip-path:url(#SVGID_00000016762668188280291940000013128401552935631749_);fill:none;stroke:#000000;stroke-width:2.777;" cx="238.7" cy="841.9" rx="55.8" ry="188.8"/>
	
		<ellipse style="clip-path:url(#SVGID_00000016762668188280291940000013128401552935631749_);fill:none;stroke:#000000;stroke-width:2.777;" cx="238.7" cy="841.9" rx="74.7" ry="188.8"/>
	
		<ellipse style="clip-path:url(#SVGID_00000016762668188280291940000013128401552935631749_);fill:none;stroke:#000000;stroke-width:2.777;" cx="238.7" cy="841.9" rx="96.4" ry="188.8"/>
	
		<ellipse style="clip-path:url(#SVGID_00000016762668188280291940000013128401552935631749_);fill:none;stroke:#000000;stroke-width:2.777;" cx="238.7" cy="841.9" rx="115.8" ry="188.8"/>
	
		<ellipse style="clip-path:url(#SVGID_00000016762668188280291940000013128401552935631749_);fill:none;stroke:#000000;stroke-width:2.777;" cx="238.7" cy="841.9" rx="136.7" ry="188.8"/>
	
		<ellipse style="clip-path:url(#SVGID_00000016762668188280291940000013128401552935631749_);fill:none;stroke:#000000;stroke-width:2.777;" cx="238.7" cy="841.9" rx="157.2" ry="188.8"/>
	
		<ellipse style="clip-path:url(#SVGID_00000016762668188280291940000013128401552935631749_);fill:none;stroke:#000000;stroke-width:2.777;" cx="238.7" cy="841.9" rx="180.1" ry="188.8"/>
	
		<ellipse style="clip-path:url(#SVGID_00000016762668188280291940000013128401552935631749_);fill:none;stroke:#000000;stroke-width:2.777;" cx="238.7" cy="841.9" rx="12.6" ry="188.8"/>
	
		<ellipse style="clip-path:url(#SVGID_00000016762668188280291940000013128401552935631749_);fill:none;stroke:#FF4C38;stroke-width:2.777;" cx="408.7" cy="841.9" rx="55.8" ry="188.8"/>
	
		<ellipse style="clip-path:url(#SVGID_00000016762668188280291940000013128401552935631749_);fill:none;stroke:#FF4C38;stroke-width:2.777;" cx="408.7" cy="841.9" rx="96.4" ry="188.8"/>
	
		<ellipse style="clip-path:url(#SVGID_00000016762668188280291940000013128401552935631749_);fill:none;stroke:#FF4C38;stroke-width:2.777;" cx="408.7" cy="841.9" rx="136.7" ry="188.8"/>
	
		<ellipse style="clip-path:url(#SVGID_00000016762668188280291940000013128401552935631749_);fill:none;stroke:#FF4C38;stroke-width:2.777;" cx="408.7" cy="841.9" rx="180.1" ry="188.8"/>
	
		<ellipse style="clip-path:url(#SVGID_00000016762668188280291940000013128401552935631749_);fill:none;stroke:#FF4C38;stroke-width:2.777;" cx="408.7" cy="841.9" rx="12.6" ry="188.8"/>
</g>
</svg>
