<?xml version="1.0" encoding="utf-8"?>
<!-- Generator: Adobe Illustrator 26.2.1, SVG Export Plug-In . SVG Version: 6.00 Build 0)  -->
<svg version="1.1" id="Layer_1" xmlns="http://www.w3.org/2000/svg" xmlns:xlink="http://www.w3.org/1999/xlink" x="0px" y="0px"
	 viewBox="0 0 1848 330" style="enable-background:new 0 0 1848 330;" xml:space="preserve">
<style type="text/css">
	.st0{fill:#040405;}
</style>
<g>
	<g>
		<path d="M47.1,56h165.4V16.4H0v305.5h47.1V188.1h158.5v-38.7H47.1V56z M505.6,16.4h-47.1v188.7c0,60.3-27.6,83.2-76.2,83.2
			s-76.2-22.9-76.2-83.2V16.4H259v193.5c0,78.3,53.2,118.8,123.3,118.8s123.3-40.5,123.3-118.8L505.6,16.4L505.6,16.4z M795.8,100.7
			C780.9,43,741.5,9.6,674.3,9.6c-63.3,0-111.4,33.8-111.4,86.6c0,56.6,40.3,72.5,80.2,82.3l55.8,13.7c32.2,7.7,56.2,15.7,56.2,48
			c0,31.6-28.5,50.6-69.8,50.6c-42.1,0-79.7-16.4-86.3-67.6l-46.7,4.6c10.8,65.4,58.1,100.9,132.2,100.9c65.3,0,118.6-30,118.6-89.7
			c0-66.7-44.6-78.9-91-90.4l-52.6-12.1c-27.6-6.5-48.6-15.3-48.6-41.5c0-27.6,24.1-47.5,63.1-47.5c38.6,0,66.7,18.5,74.8,57
			L795.8,100.7L795.8,100.7z"/>
		<path class="st0" d="M1350.4,329.8c-129.1,0-250.9-15.3-342.7-43.2C906.9,256,853.6,214,853.6,164.9c0-49.1,53.3-91.1,154-121.7
			C1099.5,15.3,1221.2,0,1350.4,0c129.2,0,250.9,15.3,342.8,43.2c100.8,30.5,154,72.6,154,121.7c0,49.1-53.3,91.2-154.1,121.7
			C1601.3,314.5,1479.6,329.8,1350.4,329.8z M1350.4,41c-125.3,0-242.8,14.7-330.9,41.4c-92.1,27.9-124.9,60.9-124.9,82.5
			c0,21.5,32.8,54.5,125,82.5c88.1,26.7,205.6,41.4,330.8,41.4c125.3,0,242.8-14.7,330.8-41.4c92.1-27.9,125-60.9,125-82.5
			c0-21.6-32.8-54.6-124.9-82.5C1593.2,55.7,1475.7,41,1350.4,41z"/>
	</g>
</g>
</svg>
