<?xml version="1.0" encoding="utf-8"?>
<!-- Generator: Adobe Illustrator 26.2.1, SVG Export Plug-In . SVG Version: 6.00 Build 0)  -->
<svg version="1.1" id="Layer_1" xmlns="http://www.w3.org/2000/svg" xmlns:xlink="http://www.w3.org/1999/xlink" x="0px" y="0px"
	 viewBox="0 0 1914 606.8" style="enable-background:new 0 0 1914 606.8;" xml:space="preserve">
<style type="text/css">
	.st0{enable-background:new    ;}
	.st1{fill:#E64D3C;}
	.st2{fill:none;stroke:#000000;stroke-width:1.35;stroke-miterlimit:5.38;}
</style>
<path d="M266.5,539.8C266.4,539.8,266.4,539.8,266.5,539.8c-61.1,0-118.5-24.9-161.7-70.2c-43.2-45.2-66.9-105.4-66.9-169.3
	c0-64,23.8-124.1,66.9-169.3c42.8-44.8,99.5-69.7,159.9-70.2v0h1.8c2.5,0,5.1,0.1,7.6,0.2c58.2,2,112.7,26.7,154.1,70.1
	c43.2,45.2,66.9,105.4,66.9,169.4c0,64-23.8,124.1-66.9,169.3C385,514.8,327.5,539.7,266.5,539.8
	C266.5,539.8,266.5,539.8,266.5,539.8z M266.5,64.4c-1.2,1.5-5.8,11.1-9.7,71.2c-2.8,44.5-4.4,103-4.4,164.7
	c0,61.7,1.6,120.2,4.4,164.7c3.8,60.1,8.4,69.7,9.7,71.2c1.2-1.5,5.8-11.1,9.7-71.2c2.8-44.5,4.4-103,4.4-164.7
	c0-61.7-1.6-120.2-4.4-164.7C272.3,75.5,267.7,65.9,266.5,64.4z M261.8,66.3c-16.7,14.5-33,104.9-33,234
	c0,129.1,16.3,219.4,33,233.9c-2.5-7.4-5.5-24.9-8.2-65.7c-3-44.9-4.6-104.7-4.6-168.2c0-63.5,1.6-123.3,4.6-168.3
	C256.2,91.2,259.2,73.7,261.8,66.3z M271.1,66.3c2.5,7.5,5.5,24.9,8.2,65.7c3,44.9,4.6,104.7,4.6,168.2c0,63.5-1.6,123.3-4.6,168.3
	c-2.7,40.8-5.7,58.3-8.2,65.7c16.7-14.5,33-104.9,33-234C304.1,171.2,287.8,80.8,271.1,66.3z M256.9,66.6
	c-14.3,7.2-27.9,30.4-38.5,66C205.2,177.4,198,236.9,198,300.2c0,63.3,7.3,122.9,20.5,167.6c10.5,35.6,24.2,58.8,38.5,66
	c-20-25.7-31.7-131.2-31.7-233.6C225.2,197.8,236.9,92.3,256.9,66.6z M276.2,66.7c2.5,3.2,4.9,7.8,7.2,13.8
	c4.7,12.1,9,29.3,12.6,51.3c7.5,45,11.6,104.8,11.6,168.4c0,63.6-4.1,123.4-11.6,168.4c-3.6,22-7.9,39.2-12.6,51.3
	c-2.3,5.9-4.7,10.5-7.2,13.8c14.2-7.3,27.8-30.4,38.2-65.9c13.2-44.7,20.5-104.3,20.5-167.6c0-63.4-7.3-122.9-20.5-167.6
	C304,97.2,290.4,74.1,276.2,66.7z M246.5,69.8c-16.8,9.5-32.4,31.1-45,63c-17.7,44.7-27.4,104.2-27.4,167.5
	c0,63.3,9.7,122.8,27.4,167.5c12.6,31.9,28.1,53.4,45,63c-11.9-11.1-22.6-32.1-31.4-61.8c-13.3-45.1-20.7-104.9-20.7-168.6
	c0-63.7,7.3-123.6,20.7-168.6C223.9,101.9,234.7,80.8,246.5,69.8z M286.4,69.8c11.9,11.1,22.6,32.1,31.4,61.8
	c13.3,45.1,20.6,105,20.6,168.6c0,63.7-7.3,123.6-20.7,168.6c-8.8,29.7-19.6,50.7-31.4,61.8c16.8-9.5,32.3-31.1,45-63
	c17.7-44.7,27.4-104.2,27.4-167.5c0-63.3-9.7-122.8-27.4-167.5C318.7,100.8,303.2,79.3,286.4,69.8z M293.8,70.4
	c15.3,11.2,29.3,32,40.8,61c17.9,45.1,27.7,105,27.7,168.8c0,63.7-9.8,123.7-27.7,168.8c-11.5,29.1-25.5,49.8-40.8,61
	c52.9-24.4,92.3-118.2,92.3-229.8C386.1,188.6,346.6,94.9,293.8,70.4z M239.1,70.4c-52.8,24.5-92.3,118.2-92.3,229.8
	c0,111.6,39.5,205.3,92.3,229.8c-15.3-11.2-29.3-32-40.8-61c-17.8-45.1-27.7-105-27.7-168.8c0-63.7,9.8-123.7,27.7-168.8
	C209.8,102.4,223.8,81.7,239.1,70.4z M226.7,73.3c-60.2,28.3-104.4,119.3-104.4,226.9c0,107.5,44.1,198.5,104.3,226.9
	c-17.8-11.7-34-31.3-47.6-57.9C156,424,143.3,364,143.3,300.2c0-63.8,12.7-123.8,35.8-168.9C192.7,104.7,208.9,85,226.7,73.3z
	 M306.2,73.4c17.8,11.7,34,31.3,47.6,58c23.1,45.2,35.7,105.2,35.7,168.9c0,63.8-12.7,123.8-35.7,168.9
	c-13.6,26.6-29.8,46.2-47.6,57.9c60.2-28.3,104.3-119.3,104.3-226.8C410.5,192.7,366.4,101.7,306.2,73.4z M315.6,74.2
	c20.6,11.8,39.5,31.1,55.4,57c27.7,45.2,43,105.2,43,169.1c0,63.8-15.3,123.9-43,169c-15.9,25.9-34.8,45.1-55.4,56.9
	c70-29.3,121.2-119.5,121.2-226C436.8,193.8,385.7,103.6,315.6,74.2z M217.3,74.2c-70,29.3-121.2,119.5-121.2,226
	c0,106.4,51.1,196.7,121.2,226c-20.6-11.8-39.5-31-55.4-56.9c-27.7-45.2-43-105.2-43-169c0-63.8,15.3-123.9,43-169.1
	C177.7,105.3,196.6,86,217.3,74.2z M337.1,76c26.2,11.9,50.3,30.4,70.7,54.9c37.7,45.2,58.4,105.3,58.4,169.3
	c0,63.9-20.7,124-58.4,169.3c-20.5,24.6-44.7,43.2-71.1,55.1c33.1-11.4,63.5-30.8,88.9-57.4c42.5-44.6,66-103.9,66-166.9
	c0-63.1-23.4-122.4-66-166.9C400.3,106.8,370.1,87.4,337.1,76z M196.1,75.9c-33.1,11.4-63.5,30.8-88.8,57.4
	c-42.5,44.6-66,103.9-66,166.9c0,63.1,23.4,122.3,66,166.9c25.4,26.6,55.7,46,88.8,57.4c-26.4-11.9-50.5-30.5-71-55.1
	c-37.7-45.2-58.4-105.3-58.4-169.2c0-63.9,20.7-124,58.4-169.3C145.6,106.4,169.8,87.8,196.1,75.9z M205.8,75.7
	C127.2,106.5,70.2,195.5,70.2,300.2c0,104.2,56.4,192.8,134.5,224c-22.8-11.9-43.6-30.4-61.3-54.9c-32.7-45.2-50.7-105.3-50.7-169.1
	C92.6,197.5,139.8,109.7,205.8,75.7z M327.9,76c22.9,11.9,43.9,30.5,61.6,55.1c32.7,45.2,50.7,105.3,50.7,169.2
	c0,63.9-18,124-50.7,169.2c-17.7,24.4-38.5,43-61.3,54.8c78-31.2,134.4-119.9,134.4-224C462.7,195.9,406.1,107.1,327.9,76z"/>
<g class="st0">
	<path d="M1633.9,67.7h8v45.2h28.5v7h-36.5V67.7z"/>
	<path d="M1687.5,67V75h-7.5V67H1687.5z M1687.5,81.3v38.6h-7.5V81.3H1687.5z"/>
	<path d="M1723,92.8c-1.1-4.5-4.9-6.7-9.1-6.7c-4.5,0-7.5,2-7.5,5.6c0,3.4,3.4,4.2,7.5,5l3.8,0.6c6.6,1.2,12.9,3.2,12.9,11.4
		c0,7.9-7.1,12-16.3,12c-9.8,0-16-5-17.3-12l6.8-1.4c1.2,5.5,5.1,7.9,10.6,7.9c5,0,8.6-2.3,8.6-6.2c0-3.5-3.4-4.6-8.1-5.4l-3.9-0.7
		c-6-1-12.2-3.1-12.2-11.1c0-6.6,6.3-11.4,15.2-11.4c8.4,0,14.8,5.2,15.8,10.9L1723,92.8z"/>
	<path d="M1759.8,80.4c10.2,0,17.5,8,17.5,20.2c0,12.1-7.3,20.2-17.5,20.2c-5.5,0-9.9-2.3-12-5.9h-0.3v5h-7.1V67h7.5v18.8h0.3
		C1750.2,82.6,1754.4,80.4,1759.8,80.4L1759.8,80.4z M1769.7,100.6c0-8.8-4.4-14.1-11.2-14.1c-6.7,0-11.1,5.4-11.1,14.1
		c0,8.8,4.4,14.1,11.1,14.1C1765.3,114.7,1769.7,109.3,1769.7,100.6z"/>
	<path d="M1822,100.6c0,12.1-7.4,20.2-18.7,20.2c-11.3,0-18.7-8-18.7-20.2s7.4-20.2,18.7-20.2C1814.7,80.4,1822,88.5,1822,100.6z
		 M1814.4,100.6c0-8.8-4.3-14.1-11-14.1c-6.8,0-11.1,5.4-11.1,14.1c0,8.8,4.3,14.1,11.1,14.1
		C1810.2,114.7,1814.4,109.3,1814.4,100.6z"/>
	<path d="M1864.9,113.7v6.1c-0.7,0.2-2.5,0.4-3.9,0.4c-3.6,0-6.1-1.3-6.8-4.6h-0.3c-2.6,3.7-7.9,5.2-12.3,5.2
		c-6.7,0-12.4-4.4-12.4-11.5c0-8.3,5.8-11.4,15.8-12.4c7-0.7,8.8-2,8.8-4.5c0-3.4-2.1-5.8-7.6-5.8c-3.8,0-7.5,2-8.8,6.5l-6.8-1.6
		c1.6-6.9,7.8-11,15.9-11c11,0,14.8,5.3,14.8,11.8v19.6c0,1.9,0.9,2.3,1.8,2.3C1863.6,114,1864.4,114,1864.9,113.7z M1853.9,100.1
		c-1.2,1.3-5.5,2-9.6,2.5c-3.9,0.5-7.4,2.4-7.4,6.7c0,3.6,2.4,5.6,6.2,5.6c4.8,0,10.8-3,10.8-10.2V100.1z"/>
</g>
<path class="st1" d="M480.5,539.8C480.5,539.8,480.5,539.8,480.5,539.8c-61.1,0-118.5-24.9-161.7-70.2
	c-43.2-45.2-66.9-105.4-66.9-169.3c0-64,23.8-124.1,66.9-169.3C362,85.6,419.4,60.7,480.5,60.7c0,0,0,0,0.1,0
	c61.1,0,118.5,24.9,161.6,70.2c43.2,45.2,66.9,105.4,66.9,169.4c0,64-23.8,124.1-66.9,169.3C599,514.8,541.6,539.7,480.5,539.8
	C480.6,539.8,480.6,539.8,480.5,539.8z M480.5,64.4c-1.2,1.5-5.8,11.1-9.7,71.2c-2.8,44.5-4.4,103-4.4,164.7
	c0,61.7,1.6,120.2,4.4,164.7c3.8,60.1,8.4,69.7,9.7,71.2c1.2-1.5,5.8-11.1,9.7-71.2c2.8-44.5,4.4-103,4.4-164.7
	c0-61.7-1.6-120.2-4.4-164.7C486.4,75.5,481.8,65.9,480.5,64.4z M476.5,64.7c-16.2,3.5-32.1,27.8-43.9,68
	C419.3,177.4,412,236.9,412,300.2c0,63.3,7.3,122.9,20.5,167.6c11.8,40.1,27.7,64.4,43.9,67.9c-2.7-6.4-5.9-23.2-8.8-67.3
	c-3-44.9-4.6-104.7-4.6-168.2c0-63.5,1.6-123.3,4.6-168.3C470.5,87.9,473.8,71.1,476.5,64.7z M484.6,64.7c2.7,6.4,5.9,23.2,8.8,67.3
	c3,44.9,4.6,104.7,4.6,168.2c0,63.6-1.6,123.3-4.6,168.3c-2.9,44.1-6.2,60.9-8.8,67.3c16.2-3.5,32.1-27.8,43.9-67.9
	c13.2-44.8,20.5-104.3,20.5-167.6c0-63.4-7.3-122.9-20.5-167.6C516.7,92.5,500.9,68.2,484.6,64.7z M496.2,66.2
	c13.5,9.7,25.9,32.1,35.7,65.4c13.3,45.1,20.6,104.9,20.6,168.6c0,63.7-7.3,123.6-20.6,168.6c-9.8,33.3-22.2,55.7-35.7,65.4
	c58.6-15.2,104-114.3,104-234C600.2,180.6,554.8,81.4,496.2,66.2z M464.9,66.2c-58.6,15.2-104,114.3-104,234
	c0,119.7,45.4,218.8,104,234c-13.5-9.7-25.9-32.1-35.7-65.4c-13.3-45.1-20.6-104.9-20.6-168.6c0-63.7,7.3-123.6,20.6-168.6
	C439,98.3,451.3,76,464.9,66.2z M450.2,68c-79.5,19.9-140,116.5-140,232.3c0,115.8,60.5,212.4,140,232.2
	c-21.4-10.5-41.1-32.1-57-63.3C370.1,424,357.4,364,357.4,300.2c0-63.8,12.7-123.8,35.8-168.9C409.1,100.1,428.8,78.4,450.2,68z
	 M510.9,68c21.4,10.5,41.1,32.1,57,63.3c23.1,45.2,35.7,105.2,35.7,168.9c0,63.8-12.7,123.8-35.7,168.9c-16,31.2-35.6,52.8-57,63.3
	c79.5-19.9,140-116.5,140-232.2C650.9,184.5,590.4,87.9,510.9,68z M526.5,69.1c28.9,10.8,55.5,31.9,77.2,62
	c32.7,45.2,50.7,105.3,50.7,169.2c0,63.9-18,124-50.7,169.2c-21.7,30-48.3,51.1-77.2,62c42.6-9.2,81.8-31.2,113.2-64.2
	c42.5-44.6,66-103.9,66-166.9c0-63.1-23.4-122.4-66-166.9C608.2,100.3,569.1,78.3,526.5,69.1z M434.6,69.1
	c-42.6,9.2-81.8,31.2-113.2,64.2c-42.5,44.6-66,103.9-66,166.9c0,63.1,23.4,122.3,66,166.9c31.5,33,70.6,55,113.2,64.2
	c-28.9-10.8-55.5-31.9-77.2-62c-32.7-45.2-50.7-105.3-50.7-169.1c0-63.9,18-124,50.7-169.2C379.2,101,405.7,79.9,434.6,69.1z"/>
<g class="st0">
	<path class="st2" d="M791.8,168.2c-27.8,0-50.3-22.5-50.3-50.3c0-27.8,22.5-50.3,50.3-50.3c27.8,0,50.3,22.5,50.3,50.3
		C842.1,145.7,819.6,168.2,791.8,168.2z M811.9,162c19.8-9,26.9-36.1,15.8-60.4c-11.1-24.3-36.1-36.8-55.9-27.7
		c-19.8,9-26.9,36.1-15.8,60.4C767,158.7,792.1,171.1,811.9,162z"/>
	<path class="st2" d="M871.3,128.8v15.6h0c0.1,12.3,3.1,20.6,9.4,22.1h-28.1c6.3-1.6,9.3-9.9,9.4-22.1h0v-53h0
		c-0.1-12.3-3.1-20.6-9.4-22.1h17v0h19.8v0c27.8,0,47.4,7.3,45.9,28.7c-1.2,17-18.1,30.8-45.9,30.8H871.3z M871.3,71.2v55.7h18.1
		c12.3,0,24.9-4,32.4-15.6c6.6-10.4,7.5-32.2-12.3-37.8c-6.4-1.8-13.2-2.4-20.1-2.4H871.3z"/>
</g>
<g class="st0">
	<path class="st2" d="M1010.5,145.3l-2.2,21.3h-62.6c6.3-1.6,9.3-9.9,9.4-22.1h0v-53h0c-0.1-12.3-3.1-20.6-9.4-22.1h60.1l2.2,21.3
		c-1.6-6.3-9.9-19.4-22.1-19.4h-21.4V117h11.1c12.3-0.1,19.5-2.2,22.1-8.7v9.5v0.2v9.5c-2.7-6.4-9.9-8.6-22.1-8.7h-11.1v45.8h23.9
		C1000.6,164.7,1008.9,151.6,1010.5,145.3z"/>
	<path class="st2" d="M1090.3,166.6l-52.7-90.5v68.3c0.1,12.3,6.8,20.6,13.1,22.1h-13.9h-0.2h-13.9c6.3-1.6,13-9.9,13.1-22.1v-53
		c-0.1-12.3-6.8-20.6-13.1-22.1h20.3l51.1,87.7V91.5c-0.1-12.3-6.8-20.6-13.1-22.1h13.9v0h0.2v0h13.9c-6.3,1.6-13,9.9-13.1,22.1
		v68.8l3.7,6.3h-3.7h-1.9H1090.3z"/>
</g>
<g class="st0">
	<path d="M791.8,168.2c-27.8,0-50.3-22.5-50.3-50.3c0-27.8,22.5-50.3,50.3-50.3c27.8,0,50.3,22.5,50.3,50.3
		C842.1,145.7,819.6,168.2,791.8,168.2z M811.9,162c19.8-9,26.9-36.1,15.8-60.4c-11.1-24.3-36.1-36.8-55.9-27.7
		c-19.8,9-26.9,36.1-15.8,60.4C767,158.7,792.1,171.1,811.9,162z"/>
	<path d="M871.3,128.8v15.6h0c0.1,12.3,3.1,20.6,9.4,22.1h-28.1c6.3-1.6,9.3-9.9,9.4-22.1h0v-53h0c-0.1-12.3-3.1-20.6-9.4-22.1h17v0
		h19.8v0c27.8,0,47.4,7.3,45.9,28.7c-1.2,17-18.1,30.8-45.9,30.8H871.3z M871.3,71.2v55.7h18.1c12.3,0,24.9-4,32.4-15.6
		c6.6-10.4,7.5-32.2-12.3-37.8c-6.4-1.8-13.2-2.4-20.1-2.4H871.3z"/>
</g>
<g class="st0">
	<path d="M1010.5,145.3l-2.2,21.3h-62.6c6.3-1.6,9.3-9.9,9.4-22.1h0v-53h0c-0.1-12.3-3.1-20.6-9.4-22.1h60.1l2.2,21.3
		c-1.6-6.3-9.9-19.4-22.1-19.4h-21.4V117h11.1c12.3-0.1,19.5-2.2,22.1-8.7v9.5v0.2v9.5c-2.7-6.4-9.9-8.6-22.1-8.7h-11.1v45.8h23.9
		C1000.6,164.7,1008.9,151.6,1010.5,145.3z"/>
	<path d="M1090.3,166.6l-52.7-90.5v68.3c0.1,12.3,6.8,20.6,13.1,22.1h-13.9h-0.2h-13.9c6.3-1.6,13-9.9,13.1-22.1v-53
		c-0.1-12.3-6.8-20.6-13.1-22.1h20.3l51.1,87.7V91.5c-0.1-12.3-6.8-20.6-13.1-22.1h13.9v0h0.2v0h13.9c-6.3,1.6-13,9.9-13.1,22.1
		v68.8l3.7,6.3h-3.7h-1.9H1090.3z"/>
</g>
<g class="st0">
	<path class="st2" d="M1233.6,321.3l3,2.4c-9.2,10.7-22.9,17.5-38.2,17.5c-27.8,0-50.3-22.5-50.3-50.3c0-27.8,22.5-50.3,50.3-50.3
		c11.3,0,21.7,3.7,30.1,10l-6.5,7.8c-12.6-12.6-29.1-18.2-43.6-11.6c-19.8,9-26.9,36.1-15.8,60.4c11.1,24.3,36.1,36.8,55.9,27.7
		C1225,332.1,1230.1,327.3,1233.6,321.3z"/>
	<path class="st2" d="M1338.7,339.6h-13.9h-0.2h-13.9c6.3-1.6,5.4-10.7,1.3-22.1l-9.3-25.6h-29.5l-9.3,25.6
		c-4.1,11.4-1,20.5,5.3,22.1h-13.9h-0.2h-13.9c6.3-1.6,16.4-9.8,20.9-22.1h0l25-68.6l-2.4-6.5h9.3l27.3,75.1
		C1325.7,329.8,1332.4,338,1338.7,339.6z M1301.9,290l-14-38.6l-14,38.6H1301.9z"/>
</g>
<g class="st0">
	<path class="st2" d="M1414.2,318.3l-2.2,21.3h-60.1c6.3-1.6,9.3-9.9,9.4-22.1h0v-53h0c-0.1-12.3-3.1-20.6-9.4-22.1h28.1
		c-6.3,1.6-9.3,9.9-9.4,22.1h0v73.3h21.4C1404.3,337.7,1412.6,324.6,1414.2,318.3z"/>
	<path class="st2" d="M1488.3,318.3l-2.2,21.3H1426c6.3-1.6,9.3-9.9,9.4-22.1h0v-53h0c-0.1-12.3-3.1-20.6-9.4-22.1h28.1
		c-6.3,1.6-9.3,9.9-9.4,22.1h0v73.3h21.4C1478.4,337.7,1486.7,324.6,1488.3,318.3z"/>
</g>
<g class="st0">
	<path d="M1233.6,321.3l3,2.4c-9.2,10.7-22.9,17.5-38.2,17.5c-27.8,0-50.3-22.5-50.3-50.3c0-27.8,22.5-50.3,50.3-50.3
		c11.3,0,21.7,3.7,30.1,10l-6.5,7.8c-12.6-12.6-29.1-18.2-43.6-11.6c-19.8,9-26.9,36.1-15.8,60.4c11.1,24.3,36.1,36.8,55.9,27.7
		C1225,332.1,1230.1,327.3,1233.6,321.3z"/>
	<path d="M1338.7,339.6h-13.9h-0.2h-13.9c6.3-1.6,5.4-10.7,1.3-22.1l-9.3-25.6h-29.5l-9.3,25.6c-4.1,11.4-1,20.5,5.3,22.1h-13.9
		h-0.2h-13.9c6.3-1.6,16.4-9.8,20.9-22.1h0l25-68.6l-2.4-6.5h9.3l27.3,75.1C1325.7,329.8,1332.4,338,1338.7,339.6z M1301.9,290
		l-14-38.6l-14,38.6H1301.9z"/>
</g>
<g class="st0">
	<path d="M1414.2,318.3l-2.2,21.3h-60.1c6.3-1.6,9.3-9.9,9.4-22.1h0v-53h0c-0.1-12.3-3.1-20.6-9.4-22.1h28.1
		c-6.3,1.6-9.3,9.9-9.4,22.1h0v73.3h21.4C1404.3,337.7,1412.6,324.6,1414.2,318.3z"/>
	<path d="M1488.2,318.3l-2.2,21.3H1426c6.3-1.6,9.3-9.9,9.4-22.1h0v-53h0c-0.1-12.3-3.1-20.6-9.4-22.1h28.1
		c-6.3,1.6-9.3,9.9-9.4,22.1h0v73.3h21.4C1478.4,337.7,1486.7,324.6,1488.2,318.3z"/>
</g>
<g class="st0">
	<path class="st2" d="M1566,510.7h50v1.9h-59.4c0-39.9,51.4-42.3,51.4-75.6c0-12.9-7.5-21.4-19.1-21.4c-7.5,0-16.6,8.2-18,14.6
		l-5.7-7.2c7.1-5.8,14.3-9.3,23.6-9.3c19.9,0,28.5,14.6,28.5,25.3C1617.4,471.3,1570.3,474,1566,510.7z"/>
	<path class="st2" d="M1702,463.9c0,27.7-13.5,50.3-33.9,50.3s-33.9-22.6-33.9-50.3s13.5-50.3,33.9-50.3S1702,436.2,1702,463.9z
		 M1692.9,464.1c0-12.9-2.5-25-6.9-34.1c-4.7-9.5-11-14.8-17.9-14.8s-13.2,5.2-17.9,14.8c-4.5,9.1-6.9,21.2-6.9,34.1
		s2.5,25,6.9,34.1c4.7,9.5,11,14.8,17.9,14.8s13.2-5.2,17.9-14.8C1690.4,489,1692.9,476.9,1692.9,464.1z"/>
</g>
<g class="st0">
	<path class="st2" d="M1723.4,510.7h50v1.9h-59.4c0-39.9,51.4-42.3,51.4-75.6c0-12.9-7.5-21.4-19.1-21.4c-7.5,0-16.6,8.2-18,14.6
		l-5.7-7.2c7.1-5.8,14.3-9.3,23.6-9.3c19.9,0,28.5,14.6,28.5,25.3C1774.8,471.3,1727.7,474,1723.4,510.7z"/>
	<path class="st2" d="M1800.6,510.7h50v1.9h-59.4c0-39.9,51.4-42.3,51.4-75.6c0-12.9-7.5-21.4-19.1-21.4c-7.5,0-16.6,8.2-18,14.6
		l-5.7-7.2c7.1-5.8,14.3-9.3,23.6-9.3c19.9,0,28.5,14.6,28.5,25.3C1851.9,471.3,1804.9,474,1800.6,510.7z"/>
</g>
<g class="st0">
	<path d="M1566,510.7h50v1.9h-59.4c0-39.9,51.4-42.3,51.4-75.6c0-12.9-7.5-21.4-19.1-21.4c-7.5,0-16.6,8.2-18,14.6l-5.7-7.2
		c7.1-5.8,14.3-9.3,23.6-9.3c19.9,0,28.5,14.6,28.5,25.3C1617.4,471.3,1570.3,474,1566,510.7z"/>
	<path d="M1702,463.9c0,27.7-13.5,50.3-33.9,50.3s-33.9-22.6-33.9-50.3s13.5-50.3,33.9-50.3S1702,436.2,1702,463.9z M1692.9,464.1
		c0-12.9-2.5-25-6.9-34.1c-4.7-9.5-11-14.8-17.9-14.8s-13.2,5.2-17.9,14.8c-4.5,9.1-6.9,21.2-6.9,34.1s2.5,25,6.9,34.1
		c4.7,9.5,11,14.8,17.9,14.8s13.2-5.2,17.9-14.8C1690.4,489,1692.9,476.9,1692.9,464.1z"/>
</g>
<g class="st0">
	<path d="M1723.4,510.7h50v1.9h-59.4c0-39.9,51.4-42.3,51.4-75.6c0-12.9-7.5-21.4-19.1-21.4c-7.5,0-16.6,8.2-18,14.6l-5.7-7.2
		c7.1-5.8,14.3-9.3,23.6-9.3c19.9,0,28.5,14.6,28.5,25.3C1774.8,471.3,1727.7,474,1723.4,510.7z"/>
	<path d="M1800.6,510.7h50v1.9h-59.4c0-39.9,51.4-42.3,51.4-75.6c0-12.9-7.5-21.4-19.1-21.4c-7.5,0-16.6,8.2-18,14.6l-5.7-7.2
		c7.1-5.8,14.3-9.3,23.6-9.3c19.9,0,28.5,14.6,28.5,25.3C1851.9,471.3,1804.9,474,1800.6,510.7z"/>
</g>
<g class="st0">
	<path d="M783.8,412.3c-1.8,8.5-9.1,18.1-22.7,18.1c-14.5,0-24.6-10.4-24.6-27.3c0-16.7,10.1-27.2,24.6-27.2
		c12.2,0,19.4,7.9,21.8,14.5l-7.8,1.7c-2-5.1-6.7-9.5-14-9.5c-10,0-16.4,7.6-16.4,20.4c0,13,6.3,20.6,16.4,20.6
		c8.7,0,13.1-6.1,14.7-12.5L783.8,412.3z"/>
	<path d="M827,423.1v6.1c-0.7,0.2-2.5,0.4-3.9,0.4c-3.6,0-6.1-1.3-6.8-4.6H816c-2.6,3.7-7.9,5.2-12.3,5.2c-6.7,0-12.4-4.4-12.4-11.5
		c0-8.3,5.8-11.4,15.8-12.4c7-0.7,8.8-2,8.8-4.5c0-3.4-2.1-5.8-7.6-5.8c-3.8,0-7.5,2-8.8,6.5l-6.8-1.6c1.6-6.9,7.8-11,15.9-11
		c11,0,14.8,5.3,14.8,11.8v19.6c0,1.9,0.9,2.3,1.8,2.3C825.7,423.4,826.5,423.3,827,423.1z M816,409.4c-1.2,1.3-5.5,2-9.6,2.5
		c-3.9,0.5-7.4,2.4-7.4,6.7c0,3.6,2.4,5.6,6.2,5.6c4.8,0,10.8-3,10.8-10.2V409.4z"/>
	<path d="M842.2,395.7c2.9-4.3,7.3-6,12-6c7,0,13.7,4.1,13.7,13.9v25.6h-7.5v-23.3c0-7.3-3-9.9-8.5-9.9c-4.9,0-9.6,4.1-9.6,12v21.2
		h-7.5v-38.6h7.1v5.1L842.2,395.7z"/>
	<path d="M894.4,389.8c5.3,0,9.6,2.2,11.6,5.4h0.3v-18.8h7.5v52.9h-7.1v-5h-0.3c-2,3.6-6.5,5.9-12,5.9c-10.2,0-17.5-8-17.5-20.2
		S884.2,389.8,894.4,389.8L894.4,389.8z M906.8,409.9c0-8.8-4.4-14.1-11.1-14.1c-6.8,0-11.2,5.4-11.2,14.1s4.4,14.1,11.2,14.1
		C902.4,424,906.8,418.7,906.8,409.9z"/>
	<path d="M932.4,376.3v8.1h-7.5v-8.1H932.4z M932.4,390.7v38.6h-7.5v-38.6H932.4z"/>
	<path d="M959.4,389.8c5.3,0,9.6,2.2,11.6,5.4h0.3v-18.8h7.5v52.9h-7.1v-5h-0.3c-2,3.6-6.5,5.9-12,5.9c-10.2,0-17.5-8-17.5-20.2
		S949.2,389.8,959.4,389.8L959.4,389.8z M971.8,409.9c0-8.8-4.4-14.1-11.1-14.1c-6.8,0-11.2,5.4-11.2,14.1s4.4,14.1,11.2,14.1
		C967.4,424,971.8,418.7,971.8,409.9z"/>
	<path d="M1023.3,423.1v6.1c-0.7,0.2-2.5,0.4-3.9,0.4c-3.6,0-6.1-1.3-6.8-4.6h-0.3c-2.6,3.7-7.9,5.2-12.3,5.2
		c-6.7,0-12.4-4.4-12.4-11.5c0-8.3,5.8-11.4,15.8-12.4c7-0.7,8.8-2,8.8-4.5c0-3.4-2.1-5.8-7.6-5.8c-3.8,0-7.5,2-8.8,6.5l-6.8-1.6
		c1.6-6.9,7.8-11,15.9-11c11,0,14.8,5.3,14.8,11.8v19.6c0,1.9,0.9,2.3,1.8,2.3C1021.9,423.4,1022.7,423.3,1023.3,423.1z
		 M1012.2,409.4c-1.2,1.3-5.5,2-9.6,2.5c-3.9,0.5-7.4,2.4-7.4,6.7c0,3.6,2.4,5.6,6.2,5.6c4.8,0,10.8-3,10.8-10.2V409.4z"/>
	<path d="M1049,423v6.2c-0.7,0.4-3.4,0.9-5.5,0.9c-6.6,0-9.9-2.2-9.9-9.1v-24.7h-6.4v-5.6h6.4v-10.9h7.5v10.9h8.4v5.6h-8.4v24
		c0,2.9,1.2,3.4,3.8,3.4C1046.4,423.7,1048,423.4,1049,423z"/>
	<path d="M1084.6,424.1c-2.9,4.3-7.3,6-12,6c-7,0-13.7-4.1-13.7-13.9v-25.6h7.5V414c0,7.3,3,9.9,8.5,9.9c4.9,0,9.6-4.1,9.6-12v-21.2
		h7.5v38.6h-7.1v-5.1L1084.6,424.1z"/>
	<path d="M1110.4,396.5h0.3c1.9-3.7,6-6.7,11.5-6.7c1.2,0,2.5,0.1,3.4,0.4v7.2c-1-0.1-2.3-0.3-3.8-0.3c-6.3,0-11,3.1-11,11.7v20.5
		h-7.5v-38.6h7.1L1110.4,396.5z"/>
	<path d="M1166.4,423.1v6.1c-0.7,0.2-2.5,0.4-3.9,0.4c-3.6,0-6.1-1.3-6.8-4.6h-0.3c-2.6,3.7-7.9,5.2-12.3,5.2
		c-6.7,0-12.4-4.4-12.4-11.5c0-8.3,5.8-11.4,15.8-12.4c7-0.7,8.8-2,8.8-4.5c0-3.4-2.1-5.8-7.6-5.8c-3.8,0-7.5,2-8.8,6.5l-6.8-1.6
		c1.6-6.9,7.8-11,15.9-11c11,0,14.8,5.3,14.8,11.8v19.6c0,1.9,0.9,2.3,1.8,2.3C1165,423.4,1165.8,423.3,1166.4,423.1z M1155.3,409.4
		c-1.2,1.3-5.5,2-9.6,2.5c-3.9,0.5-7.4,2.4-7.4,6.7c0,3.6,2.4,5.6,6.2,5.6c4.8,0,10.8-3,10.8-10.2V409.4z"/>
	<path d="M1197.8,402.2c-1.1-4.5-4.9-6.7-9.1-6.7c-4.5,0-7.5,2-7.5,5.6c0,3.4,3.4,4.2,7.5,5l3.8,0.6c6.6,1.2,12.9,3.2,12.9,11.4
		c0,7.9-7.1,12-16.3,12c-9.8,0-16-5-17.3-12l6.8-1.4c1.2,5.5,5.1,7.9,10.6,7.9c5,0,8.6-2.3,8.6-6.2c0-3.5-3.4-4.6-8.1-5.4l-3.9-0.7
		c-6-1-12.2-3.1-12.2-11.1c0-6.6,6.3-11.4,15.2-11.4c8.4,0,14.8,5.2,15.8,10.9L1197.8,402.2z"/>
</g>
<g class="st0">
	<path d="M771,516.9h-34.8v-2.3c0-11.6,8-16.7,13.3-20l7-4.5c3-2,7-5,7-10.2c0-6-3.3-9-9.4-9s-9.8,4.3-10.5,11.4l-7.4-0.8
		c1.1-10.9,9-16.7,17.9-16.7c9,0,17.1,4.5,17.1,14.8c0,10-7.7,13.6-12.4,16.6l-6.4,4.2c-6,3.9-7.9,7.5-8.1,10H771L771,516.9z"/>
	<path d="M819.9,491.3c0,20.1-9.4,26.6-19.6,26.6c-10.3,0-19.6-6.5-19.6-26.6c0-20.2,9.4-26.7,19.6-26.7
		C810.5,464.6,819.9,471.1,819.9,491.3z M812.1,491.3c0-16.7-5.6-20.5-11.9-20.5c-6.2,0-11.9,3.8-11.9,20.5
		c0,16.7,5.6,20.5,11.9,20.5C806.5,511.8,812.1,508,812.1,491.3z"/>
	<path d="M900.9,516.9h-7.7v-40.7h-0.3l-14.6,40.7h-6.5l-14.6-40.7h-0.3v40.7h-7.5v-52.2h11.7l13.9,40.3h0.3l13.9-40.3h11.7V516.9z"
		/>
	<path d="M946.6,510.7v6.1c-0.7,0.2-2.5,0.4-3.9,0.4c-3.6,0-6.1-1.3-6.8-4.6h-0.3c-2.6,3.7-7.9,5.2-12.3,5.2
		c-6.7,0-12.4-4.4-12.4-11.5c0-8.3,5.8-11.4,15.8-12.4c7-0.7,8.8-2,8.8-4.5c0-3.4-2.1-5.8-7.6-5.8c-3.8,0-7.5,2-8.8,6.5l-6.8-1.6
		c1.6-6.9,7.8-11,15.9-11c11,0,14.8,5.3,14.8,11.8v19.6c0,1.9,0.9,2.3,1.8,2.3C945.3,511,946,511,946.6,510.7z M935.6,497.1
		c-1.2,1.3-5.5,2-9.6,2.5c-3.9,0.5-7.4,2.4-7.4,6.7c0,3.6,2.4,5.6,6.2,5.6c4.8,0,10.8-3,10.8-10.2V497.1z"/>
	<path d="M961.7,464v8.1h-7.5V464H961.7z M961.6,478.3v38.6h-7.5v-38.6H961.6z"/>
	<path d="M1008.6,497.6c0,12.1-7.4,20.2-18.7,20.2c-11.3,0-18.7-8-18.7-20.2s7.4-20.2,18.7-20.2
		C1001.2,477.4,1008.6,485.5,1008.6,497.6z M1001,497.6c0-8.8-4.3-14.1-11-14.1c-6.8,0-11.1,5.4-11.1,14.1c0,8.8,4.3,14.1,11.1,14.1
		C996.7,511.7,1001,506.3,1001,497.6z"/>
	<path d="M1161.5,487.7c5.8,0,9.8-3.1,9.8-8.4c0-5.4-4.1-8.5-9.1-8.5c-5.1,0-9,3.1-9.7,9l-7.3-0.7c1.1-9,7.6-14.4,17-14.4
		c9.4,0,16.8,5.2,16.8,14.6c0,5.1-3.2,8.9-7.5,10.8v0.3c5.1,1.7,9.1,5.9,9.1,12.3c0,10.2-8.2,15.2-18.4,15.2
		c-10.2,0-17.4-5.2-18.9-15.8l7.6-0.8c1,7.4,5.4,10.4,11.3,10.4c5.9,0,10.6-3.4,10.6-9.1c0-6.4-4.7-9.2-11.3-9.2h-4.5v-5.8H1161.5z"
		/>
	<path d="M1228.9,491.3c0,20.1-9.4,26.6-19.6,26.6s-19.6-6.5-19.6-26.6c0-20.2,9.4-26.7,19.6-26.7S1228.9,471.1,1228.9,491.3z
		 M1221.1,491.3c0-16.7-5.6-20.5-11.9-20.5c-6.2,0-11.9,3.8-11.9,20.5c0,16.7,5.6,20.5,11.9,20.5
		C1215.5,511.8,1221.1,508,1221.1,491.3z"/>
	<path d="M1293.1,499.6c0,12.8-8.1,18.5-18.9,18.5c-10.6,0-18-6.3-19.3-18.1c-0.1-0.9-0.1-1.6,0-2.3l7.5-0.7c-0.1,0.7-0.1,1.4,0,2
		c0.9,8.9,5.3,12.2,11.7,12.2c7,0,10.9-3.2,10.9-12.2v-34.3h8V499.6z"/>
	<path d="M1331.3,511.8c-2.9,4.3-7.3,6-12,6c-7,0-13.7-4.1-13.7-13.9v-25.6h7.5v23.3c0,7.3,3,9.9,8.5,9.9c4.9,0,9.6-4.1,9.6-12
		v-21.2h7.5v38.6h-7.1v-5.1L1331.3,511.8z"/>
	<path d="M1357.5,483.4c2.9-4.3,7.3-6,12-6c7,0,13.7,4.1,13.7,13.9v25.6h-7.5v-23.3c0-7.3-3-9.9-8.5-9.9c-4.9,0-9.6,4.1-9.6,12v21.2
		h-7.5v-38.6h7.1v5.1L1357.5,483.4z"/>
	<path d="M1402.3,483.4c3-4.3,7.3-6,11.9-6c6.8,0,13.4,4.1,13.4,13.9v25.6h-7.5v-23.3c0-7.3-3-9.9-8.5-9.9c-4.7,0-9.6,4.8-9.6,12.7
		v20.5h-7.5V464h7.5v19.4H1402.3z"/>
	<path d="M1474,497.6c0,12.1-7.4,20.2-18.7,20.2c-11.4,0-18.7-8-18.7-20.2s7.4-20.2,18.7-20.2C1466.6,477.4,1474,485.5,1474,497.6z
		 M1466.3,497.6c0-8.8-4.3-14.1-11-14.1c-6.8,0-11.1,5.4-11.1,14.1c0,8.8,4.3,14.1,11.1,14.1
		C1462.1,511.7,1466.3,506.3,1466.3,497.6z"/>
</g>
<polygon class="st1" points="1118.6,501.4 1116,498.6 1119.5,495.4 1026.1,495.4 1026.1,491.6 1119.5,491.6 1116,488.4 
	1118.6,485.6 1127.1,493.5 "/>
</svg>
